<?xml version="1.0" encoding="UTF-8"?>
<svg id="Layer_1" xmlns="http://www.w3.org/2000/svg" version="1.1" viewBox="0 0 170 170">
  <!-- Generator: Adobe Illustrator 29.0.0, SVG Export Plug-In . SVG Version: 2.1.0 Build 186)  -->
  <rect x="151" y="61" width="8" height="8"/>
  <rect x="161" y="71" width="8" height="8"/>
  <rect x="161" y="81" width="8" height="8"/>
  <rect x="161" y="91" width="8" height="8"/>
  <rect x="151" y="101" width="8" height="8"/>
  <rect x="151" y="111" width="8" height="8"/>
  <rect x="141" y="121" width="8" height="8"/>
  <rect x="141" y="131" width="8" height="8"/>
  <rect x="11" y="61" width="8" height="8"/>
  <rect x="1" y="71" width="8" height="8"/>
  <rect x="1" y="81" width="8" height="8"/>
  <rect x="1" y="91" width="8" height="8"/>
  <rect x="11" y="101" width="8" height="8"/>
  <rect x="11" y="111" width="8" height="8"/>
  <rect x="21" y="121" width="8" height="8"/>
  <rect x="21" y="131" width="8" height="8"/>
  <rect x="141" y="41" width="8" height="8"/>
  <rect x="151" y="51" width="8" height="8"/>
  <rect x="61" y="11" width="8" height="8"/>
  <rect x="71" y="1" width="8" height="8"/>
  <rect x="81" y="1" width="8" height="8"/>
  <rect x="91" y="1" width="8" height="8"/>
  <rect x="101" y="11" width="8" height="8"/>
  <rect x="111" y="11" width="8" height="8"/>
  <rect x="121" y="21" width="8" height="8"/>
  <rect x="131" y="21" width="8" height="8"/>
  <rect x="141" y="31" width="8" height="8"/>
  <rect x="31" y="141" width="8" height="8"/>
  <rect x="41" y="141" width="8" height="8"/>
  <rect x="51" y="151" width="8" height="8"/>
  <rect x="61" y="151" width="8" height="8"/>
  <rect x="71" y="161" width="8" height="8"/>
  <rect x="81" y="161" width="8" height="8"/>
  <rect x="91" y="161" width="8" height="8"/>
  <rect x="101" y="151" width="8" height="8"/>
  <rect x="111" y="151" width="8" height="8"/>
  <rect x="121" y="141" width="8" height="8"/>
  <rect x="131" y="141" width="8" height="8"/>
  <rect x="51" y="11" width="8" height="8"/>
  <rect x="31" y="21" width="8" height="8"/>
  <rect x="21" y="31" width="8" height="8"/>
  <rect x="21" y="41" width="8" height="8"/>
  <rect x="11" y="51" width="8" height="8"/>
  <rect x="41" y="21" width="8" height="8"/>
</svg>