<?xml version="1.0" encoding="UTF-8"?>
<svg id="Layer_1" xmlns="http://www.w3.org/2000/svg" version="1.1" viewBox="0 0 170 170">
  <!-- Generator: Adobe Illustrator 29.0.0, SVG Export Plug-In . SVG Version: 2.1.0 Build 186)  -->
  <g>
    <rect x="81" y="21" width="8" height="8"/>
    <rect x="71" y="31" width="8" height="8"/>
    <rect x="91" y="31" width="8" height="8"/>
    <rect x="61" y="41" width="8" height="8"/>
    <rect x="81" y="41" width="8" height="8"/>
    <rect x="101" y="41" width="8" height="8"/>
    <rect x="51" y="51" width="8" height="8"/>
    <rect x="71" y="51" width="8" height="8"/>
    <rect x="91" y="51" width="8" height="8"/>
    <rect x="111" y="51" width="8" height="8"/>
    <rect x="41" y="61" width="8" height="8"/>
    <rect x="81" y="61" width="8" height="8"/>
    <rect x="121" y="61" width="8" height="8"/>
    <rect x="41" y="71" width="8" height="8"/>
    <rect x="61" y="71" width="8" height="8"/>
    <rect x="81" y="71" width="8" height="8"/>
    <rect x="101" y="71" width="8" height="8"/>
    <rect x="121" y="71" width="8" height="8"/>
    <rect x="31" y="81" width="8" height="8"/>
    <rect x="71" y="81" width="8" height="8"/>
    <rect x="81" y="81" width="8" height="8"/>
    <rect x="91" y="81" width="8" height="8"/>
    <rect x="131" y="81" width="8" height="8"/>
    <rect x="31" y="91" width="8" height="8"/>
    <rect x="51" y="91" width="8" height="8"/>
    <rect x="81" y="91" width="8" height="8"/>
    <rect x="111" y="91" width="8" height="8"/>
    <rect x="131" y="91" width="8" height="8"/>
    <rect x="31" y="101" width="8" height="8"/>
    <rect x="61" y="101" width="8" height="8"/>
    <rect x="81" y="101" width="8" height="8"/>
    <rect x="101" y="101" width="8" height="8"/>
    <rect x="131" y="101" width="8" height="8"/>
    <rect x="41" y="111" width="8" height="8"/>
    <rect x="71" y="111" width="8" height="8"/>
    <rect x="81" y="111" width="8" height="8"/>
    <rect x="91" y="111" width="8" height="8"/>
    <rect x="121" y="111" width="8" height="8"/>
    <rect x="51" y="121" width="8" height="8"/>
    <rect x="81" y="121" width="8" height="8"/>
    <rect x="111" y="121" width="8" height="8"/>
    <rect x="61" y="131" width="8" height="8"/>
    <rect x="71" y="131" width="8" height="8"/>
    <rect x="81" y="131" width="8" height="8"/>
    <rect x="91" y="131" width="8" height="8"/>
    <rect x="101" y="131" width="8" height="8"/>
    <rect x="81" y="141" width="8" height="8"/>
  </g>
  <rect x="161" y="21" width="8" height="8"/>
  <rect x="161" y="31" width="8" height="8"/>
  <rect x="161" y="41" width="8" height="8"/>
  <rect x="161" y="51" width="8" height="8"/>
  <rect x="161" y="61" width="8" height="8"/>
  <rect x="161" y="71" width="8" height="8"/>
  <rect x="161" y="81" width="8" height="8"/>
  <rect x="161" y="91" width="8" height="8"/>
  <rect x="161" y="101" width="8" height="8"/>
  <rect x="161" y="111" width="8" height="8"/>
  <rect x="161" y="121" width="8" height="8"/>
  <rect x="161" y="131" width="8" height="8"/>
  <rect x="161" y="141" width="8" height="8"/>
  <rect x="161" y="11" width="8" height="8"/>
  <rect x="1" y="21" width="8" height="8"/>
  <rect x="1" y="31" width="8" height="8"/>
  <rect x="1" y="41" width="8" height="8"/>
  <rect x="1" y="51" width="8" height="8"/>
  <rect x="1" y="61" width="8" height="8"/>
  <rect x="1" y="71" width="8" height="8"/>
  <rect x="1" y="81" width="8" height="8"/>
  <rect x="1" y="91" width="8" height="8"/>
  <rect x="1" y="101" width="8" height="8"/>
  <rect x="1" y="111" width="8" height="8"/>
  <rect x="1" y="121" width="8" height="8"/>
  <rect x="1" y="131" width="8" height="8"/>
  <rect x="1" y="141" width="8" height="8"/>
  <rect x="1" y="11" width="8" height="8"/>
  <rect x="141" y="1" width="8" height="8"/>
  <rect x="151" y="1" width="8" height="8"/>
  <rect x="11" y="1" width="8" height="8"/>
  <rect x="21" y="1" width="8" height="8"/>
  <rect x="31" y="1" width="8" height="8"/>
  <rect x="41" y="1" width="8" height="8"/>
  <rect x="51" y="1" width="8" height="8"/>
  <rect x="61" y="1" width="8" height="8"/>
  <rect x="71" y="1" width="8" height="8"/>
  <rect x="81" y="1" width="8" height="8"/>
  <rect x="91" y="1" width="8" height="8"/>
  <rect x="101" y="1" width="8" height="8"/>
  <rect x="111" y="1" width="8" height="8"/>
  <rect x="121" y="1" width="8" height="8"/>
  <rect x="131" y="1" width="8" height="8"/>
  <rect x="141" y="1" width="8" height="8"/>
  <rect x="161" y="1" width="8" height="8"/>
  <rect x="1" y="1" width="8" height="8"/>
  <rect x="161" y="151" width="8" height="8"/>
  <rect x="1" y="151" width="8" height="8"/>
  <rect x="141" y="161" width="8" height="8"/>
  <rect x="151" y="161" width="8" height="8"/>
  <rect x="11" y="161" width="8" height="8"/>
  <rect x="21" y="161" width="8" height="8"/>
  <rect x="31" y="161" width="8" height="8"/>
  <rect x="41" y="161" width="8" height="8"/>
  <rect x="51" y="161" width="8" height="8"/>
  <rect x="61" y="161" width="8" height="8"/>
  <rect x="71" y="161" width="8" height="8"/>
  <rect x="81" y="161" width="8" height="8"/>
  <rect x="91" y="161" width="8" height="8"/>
  <rect x="101" y="161" width="8" height="8"/>
  <rect x="111" y="161" width="8" height="8"/>
  <rect x="121" y="161" width="8" height="8"/>
  <rect x="131" y="161" width="8" height="8"/>
  <rect x="141" y="161" width="8" height="8"/>
  <rect x="161" y="161" width="8" height="8"/>
  <rect x="1" y="161" width="8" height="8"/>
</svg>