<?xml version="1.0" encoding="UTF-8"?>
<svg id="Layer_1" xmlns="http://www.w3.org/2000/svg" version="1.1" viewBox="0 0 1200 1200">
  <!-- Generator: Adobe Illustrator 29.0.0, SVG Export Plug-In . SVG Version: 2.1.0 Build 186)  -->
  <path d="M1147.1,330h-118.2v175h-283.1v-200.7h387.5c-53.6-94.4-132-172.8-226.3-226.4h-269.3v442.5h97.8v144.1l-236.8,5.1v-349.9h-82.4v-102.9c18.4-2.3,43.1,6.9,56.6-7.7V26.4c-5.1,1.7-11.2-5.1-12.9-5.1h-7.9c-45.2,12.4-88.2,29.9-128.5,51.9v66.4h-97.3c-39.5,33.1-74.7,71.1-104.6,113.2h201.9v344.8h66.9v164.7h108.1v-61.7c0,0,23.1,5.7,23.1,5.7l115.9-5.7v498.9c38.9-1.7,76.9-7.1,113.5-15.8l-.2-328.7h391.2l4.1,16.6c41.4-81.5,64.8-173.8,64.8-271.5s-23.1-188.8-64-270ZM735.4,839.5c-5.6,7.4-9.8.2-10.5-7.8-2.1-24.2,8.1-56.1-.2-82.2l10.8-43.8v133.8Z"/>
  <path d="M887.7,67.5c-62.4-32.5-131.2-54.3-204-63.1v66.2c0,0,204-3.1,204-3.1Z"/>
  <path d="M323.6,947.5h-97.8c-8.2-35.8-8.2-77.5,0-113.2h90.1c11.6-8.3,7.4-23.5,7.7-36H128v-262.4h-61.8v-187.4c-35.4,76.5-55.1,161.7-55.1,251.5,0,173.9,74,330.5,192.2,440.1h120.3s0-92.6,0-92.6Z"/>
  <path d="M328.7,847.2v90h36v-97.8c-12.5.4-27.7-3.9-36,7.7Z"/>
  <rect x="493.4" y="237.4" width="41.2" height="20.5"/>
</svg>