<?xml version="1.0" encoding="UTF-8"?>
<svg id="Layer_1" xmlns="http://www.w3.org/2000/svg" version="1.1" viewBox="0 0 1200 1200">
  <!-- Generator: Adobe Illustrator 29.0.0, SVG Export Plug-In . SVG Version: 2.1.0 Build 186)  -->
  <path d="M450.4,4.4v14.4c9.9-2.6,20-4.9,30.1-6.9l-30.1-7.5Z"/>
  <path d="M723.2,238.5c-8.3,11.6-23.5,7.4-36,7.7V6.3c-20.3-3-40.9-4.9-61.8-5.8v245.7h-128.7v123.5h128.7v200.7l56.2-.5,5.6-200.2h72.1v200.7h205.9v36h-190.5v82.3h360.4v183c41.5-81.6,64.9-173.9,64.9-271.7s-.6-30.2-1.7-45h-217.7V163.9h-200.8V27.4c-18.5-5.8-37.4-10.7-56.6-14.8v225.8Z"/>
  <path d="M74.6,755.6h149.3v-164.7h355.2v-205.8h-213.6l-7.7-7.7v-115.8h-221.4v123.5H43.7v133.8H5.4C1.9,545.5,0,572.5,0,600s2.5,63.3,7.3,93.9h67.3v61.7Z"/>
  <path d="M220.9,992.3l-74.1.9c4.3,5,8.7,9.8,13.1,14.6h64l-3-15.5Z"/>
  <path d="M759.3,1131.3h119.8c6.3-3.3,12.6-6.8,18.7-10.3h-138.5v10.3Z"/>
  <rect x="594.5" y="606.4" width="56.6" height="236.7"/>
  <path d="M481.3,223.1V12.1l-.8-.2c-10.1,2-20.2,4.3-30.1,6.9v204.3c0,10.2,30.9,10.2,30.9,0Z"/>
</svg>