<?xml version="1.0" encoding="UTF-8"?>
<svg id="Layer_1" xmlns="http://www.w3.org/2000/svg" version="1.1" viewBox="0 0 1000 1000">
  <!-- Generator: Adobe Illustrator 29.0.0, SVG Export Plug-In . SVG Version: 2.1.0 Build 186)  -->
  <path d="M452.2,373.6c-8.4,33.7,41.1,59.4,67.9,33.3,41.7-40.7-49.3-107.7-67.9-33.3h0Z"/>
  <path d="M609,343.3c4.4-65.2-37.4-119.3-136.7-93.7-18.9,4.9-73.1,52.7-82.2,70.4-55.9,109.4,64.1,228.6,160,140.9l-3.6-32.7c-27.6,33.9-68.9,50.5-110.6,15.1-60.8-51.7-18.9-149.8,55.3-165.3,61.9-13,87.1,17.4,88.5,57l29.2,8.2h.1Z"/>
  <path d="M550.1,460.9c35.6-32.6,56.1-77.3,58.9-117.7l-29.2-8.2c1.1,30.7-12,67.1-33.2,93.2l3.6,32.7h0Z"/>
  <path d="M648.5,28.4c0,0-.2,0-.3,0-.1-.1-.3-.2-.4-.3.2,0,.5.1.7.2-13-11.1-45.9-15.5-77.8-17.4,1.4.2,2.8.4,4.2.6-.9,0-2.3-.2-3.7-.4-.1,0-.3,0-.4,0-.1,0-.2,0-.4,0-1.3-.1-2.6-.3-3.7-.4,1.4,0,2.7.2,4.1.2-23.1-3.3-46.7-5-70.7-5s-14.9.2-22.3.5c.5,0,1,.1,1.5.2-.3,0-.6,0-.9,0-.2,0-.4,0-.6,0-45.8,2-89.9,10.2-131.7,23.7-.2,2.4-.3,4.9-.4,7.4-.2,16.5,4.8,32.6,26.2,28v-.2c41.3-9,56.7.8,65.9,10.9,15.3,16.8,5.9,47,25.2,67.5,12.3,13,54.8,29.8,70.4,12.5,9.2-19,20.1-65.2,37.5-75.5,17.5-10.4,65.7-1.4,81.4-32.8s2.2-5.8,2.1-8.4c0-4.3-2.1-8-5.8-11.2Z"/>
</svg>