<?xml version="1.0" encoding="UTF-8"?>
<svg id="Layer_1" xmlns="http://www.w3.org/2000/svg" version="1.1" viewBox="0 0 1200 1200">
  <!-- Generator: Adobe Illustrator 29.0.0, SVG Export Plug-In . SVG Version: 2.1.0 Build 186)  -->
  <path d="M1060.8,984.3s0,0,0,.1c0,0,.2,0,.2,0,0,0,0,0-.1,0Z"/>
  <path d="M139.3,984.4s0,0,0,0c0,0,0,0,0,0,0,0,0,0,.1,0Z"/>
  <path d="M230.5,1073.7c.2-.1.4-.3.6-.4-.2-.2-.4-.3-.6-.5v.9Z"/>
  <path d="M969.1,1073c-.1.1-.3.2-.4.3.1,0,.2.2.3.3v-.6Z"/>
  <path d="M1180.5,727.9c3.1,7.3.7,3.3.7,7.5,0,2.4,1.2,3.8,2.3,4.9,3.3-13.7,6.1-27.6,8.4-41.7-2.4.3-5.4-.2-8.1.8-12.5,5.1-7.3,19.2-3.3,28.5Z"/>
  <path d="M1060.9,980.3l4-1c.8-1,1.6-1.9,2.4-2.9-1.7,0-3,.2-3.3.3-1.6.5-3.4,1.7-3,3.6Z"/>
  <path d="M1129.1,839.7c-4.8,6.2-4.8,14.7-2.5,21.9l-3.7,2.7c-1.3-1,.8-2.9.4-4.4-.4-1.6-4.1-3.4-3-6.8h-4.1c-.8-.7,7.5-12.5,3-20-.5-.8-6.3-6.3-7.4-7-20.2-11.5-57.6-10.5-50,21.7l-2.6-3.1c-2.4-1.3-1.6,3.4-.2,4.9,1.8,1.9,8.2,2.1,6.9,6.4-3.3.5-7.5-3.4-9.7-3.6-3.2-.3-16.9,1.9-18.1,1.1-1.9-1.3.2-5.4,0-8.1-.2-2-2.5-8.5-4.3-9.2-9.5-2.4-8.1,8.3-9,14.7-3.9-.3-7.5,1.2-10.7,3.1-2.2,1.3-11.2,8.9-12.8,10.8-2,2.3-1,6.2-4.2,5.6-1.6-2.9.2-8.9-.2-10.6-.3-1.1-1.9-1.8-2.3-2.9-2.5-5.7-7.2-14.4-14.5-14.4-3.7,0-4.1,5.2-8.2,6.3l-2.5-3.1-1,3.5c5.2,2.8,1.9,2.9,1.5,6.6-.6,6,1.3,13.7,1.1,17,0,1-2.7,3.4-1.7,5.7,3.4-.8,5.6-2.9,9.2-1l-9.2,5.6c4,2.5.7,5.4,7,7.4,6.8,2.3,13.5-.5,17.7-5.9-.6,3.5,1.8,10.1,4.1,12.6,1.8,2,7.2,2,8.3,4.3.9,1.9-4.2,2.1-5.1,3.6.1-2.2-6-6-7.8-4.2-4.9,5.3-3.7,11.5-2.4,17.9.3,1.6,2,3.1,1.9,4.1-.5,2.8-8.2,8-11.2,3.7-.6,1.9,1.7,2.5,1.9,3.8.2,1-1.7,2.8-2,4.9-.1,1.2,1.1,10.7,1.5,11.4,1,1.9,5.2,1.7,5.8,4.5-5.9-1.8-10.9,3.3-15.4-2,.6,3.9-5.8,1.8-6.1,2.1-.5.5-.4,4.8-3.2,5.1-1.9-3.9,1.1-6.4,1.6-10.2.5-3.9.5-12-1.2-15.4-.2-.4-4.3-6.5-4.6-6.7-3.5-3.1-10.5,1.5-13.3,4.2-2.9,2.9-2.7,8.3-9.6,6.6-.7-.2-6.2-10.8-7.9-12.6-4-4.5-13.4-9-19.3-9.8-6.4-.9-3.9,1.4-6,3.8-1.9,2.2-4.3,3.4-5.9,6.4-1.1,1.8-1.3,5.1-2.1,6.1-1.9,2.3-16.9.3-12.4,11.3l9.3,2c1.1,3.8,1.2,11.1,3.1,14.4.7,1.2,9.5,8.9,11.2,10.3,1.6,1.3,3.6,1.7,5.2,3v6.2s-3.5.9-3.5.9c-4.9-8-13.9-13.2-23.7-12.2.4-5.6-4-9.1-8.3-11.8l2.1-7.6c-3.5.9-8.5,2.6-9.2,6.7-.7,3.7,3.2,2.3,3.1,5,0,1.3-4.1-.8-3.1,2.6,6-.3,9.2,4.1,14.4,6.7-.9,1.1-2.9.9-4.1,2.1-2.9,2.9-4.3,7-5.7,10.7-.3.9-2.1,1.6-2.2,2.6-.2,1.3,2.4,6.4,2.3,9.3,0,2-1.6,3.6-1.6,5.6,4.7-.6,5.9,4,8.2,5.6,4.1,2.8,11.6,4.8,14.3,7.3,1.6,1.5.8,1.2-.5,2.5-8-2.6-17.6-4.7-22.5-12.1-5,3-10.4.9-15.7,2.6-4.3,1.4-16.6,14.8-19.3,14.6l-5.4-4.9-15.2,2-2.5-2.1-1.5,3.1c-5.8,1.2-13.8,11.3-18.8,12.1-.8.1-14.9-4.6-15.5-5.1-.2-.1.6-1.5.3-1.9l-2-1.1-4.6,1.1,2,2-10.3,4.1c5.8-5.9,11.8-17.7,9.2-25.9,0-.3-2.9-4.1-3.1-4.3-5.2-5-9.4-1.3-14.7,1.6l-15.1,14.7c-.8-2.8,4-7,4.1-7.4.3-1.3-.4-3,.2-4.2.4-.8,11.9-8.9,14.2-12,8.2-11,7-24.6,5.1-37.4-7.4-1.9-13.1.9-19.2,4.8-1.6,1-2.1,2.8-3,3.4-1.3.8-4.3.8-4.4,1-.2.2.8,2,.4,3.1-.9,2.5-5.8,7.2-7.2,10.2-6.6-.8-5.9-8.6-12.4-8.9-3.1-.2-8.8,8.5-9.8,11.3-1.1,3.1-1.3,11.8-2.3,13.1-.8,1.2-3.5.7-4.7,1.5-2.7,1.8-1.6,9.2-2.3,12.1-.5,1.8-3,3.7-3.3,5.8-.3,1.8,1.2,5,.4,6.2-.7,1-10.4,2.2-11.7,5.2l-4.6-3.1c-.2,2.4,1.1,3.7,3.1,4.6-8.5,9-7.4,21.1,3.1,27.7-2.5,2.5-12.4,5.6-13,9.2,0,.1.6,2.5.7,2.6,1.9,1.5,14.9-7.4,17.9-8.2.5.1,4.1,7.7,4.3,8.2.6,2.1-3.2,4.4.3,5.6,1.7.6,4.4-1.5,6.5-1.2,2.9.4,8.9,4.2,12.9,3.8l-2,11.2-2.6-7.1c-1.4-3.9-11.5-4.4-11.7,0h-2c-.3-4.4-4.7-6.5-8.1-8.4-.7-3.5,4-8.1-1.2-8,.3,8.4-7.2,6.9-11.3,9.8-.6.4-10.3,10.2-10.7,10.8-2.8,3.9-5.4,14.6-8.2,17.4-1.9,1.9-6.3,2.7-8.4,5l-5.8-2.8-4.8,4.5c2.9.6,9.2,8.1,11.3,6.7l.5-6.2,5.1-3c2.5,4.9,1.4,10.4,4.8,15.7,3.4,5.4,6.4,4.4,10.5,6.8.9.6.6,2,.7,2.1.4.2,4.8-3.9,8.2-1,1.1,1.5-3.7,4.8-4.5,6.2-4.7,8.1-6.4,19.4-7.8,28.6,7.3-1.7,13.6-4.9,19-10l7.7,5.9-3.1,5.1,3.5,1.1c1-1.8,1.4-2.4,3.7-2.1l-3.1-2.1c4.3-3.8-.4-11.3-4.1-13.8v-1.5c3.7.7,4.1-2,4.1-5.1h-3c1.7-9.4-3.2-9.7-7.3-15.9,6.2-2.7,13.7-13.1,14.4-19.6,0-.3-4.7-1-.5-4.6l1.5,8.8c1.7,1.1,3.9-.3,6,.1,3.1.7,5.8,5.2,8.9,2.4,3.8-3.4-3.7-8.7-3.2-10.3l2.7-6.1,7.2,2.1-.5,3.1c.9-3.1,3.7-2.8,5.1-4.1,6.3-5.6,9.3-16.3,4.1-23.6l1.1-2.1,8.6,2.2v4c1.8.2,1-2.3,2.8-2.9,2.3-.8,7.1.2,10.1-.2,1.9-.2,3.4-1.8,5.3-2,7.7-.8,7.7,6,18.6.2,2.5-1.3,5.4-5,8.1-5.3,3.7-.5,13.7,4,19.3,4,8.8,0,18.5-5.6,28-6.9,7-1,11.1,0,17.2-.1,7.2-.1,15.5-4.4,23.1-3.1,1.2,2.9-6,3.2-3.1,5.6,1.3,1.1,9.2,3.6,10.6,3.4,3.1-.6,6.8-6.9,8.9-8.5,2.3-1.7,7.1-3.2,10.2-5.2,3.5-2.3,5.7-8.3,10.8-5.6l.5-3.1,3.1,5.1-3.1,2.1h5.1s-2-8.2-2-8.2c8.4-4.5,4.7,1.4,11.3,4.1.5-2.8-.5-3.6-3-4.2l1.1-2.8h8.4c3.3,4.7,10.7,10.5,16.6,10.2,3.2-.2,5.1-3,8.7-1.1-3.3-3.2-1.1-6.3,1.6-9.2,6.6,2.6,14.3,4.6,20.9.9l-1-5c4-2,4.7,3.1,9.2,2.1l-1,2c6.2.7,11.5-.6,17.5-2,0,3.1-1.7,6.3-2.1,9.4,3.4-3,6.7-6.1,10-9.3-1.5,0-3.1-.2-4.8-.1l5.7-6.2c1.4-.2,2.7,1,3.8,1.9.7-.6,1.3-1.3,2-1.9-1.4-.6-3.8-.5-3.2-2.3.6-1.7,3.3-4.1,4.4-5.9,1.5-2.4,1.2-4.9,4.5-6.8l7.7-20.6c3.9-2.9,6.8,2.1,11,1.8l-11.3,4.6,2,1c-5.2,3.5-1.5,9-4.2,14.2l1.5,1.3c7.7-8,15.2-16.2,22.5-24.6.7-2.6,2.5-7.3,3-7.7.9-.6,2.5-.1,3.7-.2,0,0,0,0,0-.1-4.5-2.7-1.3-6-4.5-10.2l-7.7-6.1c8.7-2.1,13.2-12,21.1-15.4,2.7-1.2.3,2.7,1,4.1.5,1.1,3.5,3.3,4.7,4.6.7.9.1,2.7.9,3.1.1,0,.2.1.4.2,3.8-5,7.6-10.1,11.3-15.3-2.5.4-7.5-.9-10.5.2,5.5-4.9,6-10.9,8.3-17.4,3.5.8,8,1.6,12.8,2,21.7-32.2,40.3-66.7,55.4-103-9.2-.6-19.1,1.2-24.7,8.5ZM705.8,1012.1l-7.2,2.1,2.1-8.2c.7-.5,2.9,3,3.5,3.7.5.6,2.5-.2,1.6,2.4ZM729.3,1004.8c-3.5-1-9.9-1.6-12.3,1.6-2.3,3.2.4,4.5-7.1,3.6.5-5.9,3.1-10.6,0-16.4,2.1.1,3.9,0,5.9-.8,3.4-1.4,6.4-9,9.4-4.9-3,5.9-1.9,15.1,6.3,11.8l-2.2,5ZM956.8,963.9c-1.3,1.9-1.6,6.9-2.9,7.9-.3.2-6.2,2.9-6.7,3.1-8,2.4-4.4-3.5-7.4-5.4-4-1.6-7.7,4.1-10.3-2-1.1-2.6,5.2-1,7.2-2,.4-.2,4.4-5.2,4.6-5.7,1.5-3.7.2-6.8,0-10.2-.3-7,5.2,1.7,7.1,3.7,6.4,6.7,4.6,1.3,9.4,1.4l4.3,3.6c-.4,3.1-4,3.6-5.3,5.7ZM1086.1,899.3l-.6,3.1c-3.7.8-.9-3.1-1-5.6,0-1.6-1.1-3-1.1-4.6l5.4.9,5.9-5c-3.9-1.7-5,3-5.8,3.1-3.9.7-8.2-5.2-12.9-4-.8.2-5.5,3.1-6.5,3.9-4.1,3.2-8.3,10.7-8.7,15.4-2.8-.4-.4-6.2-4.1-5.1l-2,5.7,3.2,3.4,2.9-.9c1.8,2-4.8,12.3-5.1,8.7,2.9-11.6-13.5-7.4-18.7-3.6-1.3.9-1.4,2.9-2.8,3.6-1.5.7-3.5.3-5.1,1.1-1.8.9-5.6,5.2-7.7,6.6l-.5-7.2,6.1,1-3.1-7.2,9.2-2.1,1,3.1c-.7-3.4,7.8-7.9,10.4-8.7,3.1-1,10.8,3.2,9.7-2.6l-7.7,1c-1.9-3.3,4.1-8.2,4.1-8.7v-19c2,1.1.4,3.5,3,5.7,5.2,4.6,7.9-4.2,1.1-1.6v-3.1s3.1.6,3.1.6c.1-5.2,7.5-6.7,8.7-8.8,1.1-2,.5-7.6,1.5-10.3,4.1,1.6,7.2,5.6,11.8,6.6,7.1,1.5,11.6-1.8,17.9-3.6v4c-.1,0-8.2,2.2-8.2,2.2.6,7.9,12.9,10.2,19.4,10.4l.9,6.9c-8.3,4.1-14.1,15.4-23.9,14.6ZM1114.3,871.5l6.4-4.1,1.3-2,4.6,4.1-12.3,2.1Z"/>
  <path d="M1020.9,1027.6s0,0,0,0c0,0,0,0,0,0s0,0,0,0Z"/>
  <path d="M213.1,1037.7l-1-2c4.6,1,5.2-4.1,9.2-2.1l-1,5c6.6,3.7,14.3,1.7,20.9-.9,2.7,2.9,4.9,6,1.6,9.2,3.6-1.9,5.5,1,8.7,1.1,5.9.3,13.3-5.5,16.6-10.2h8.4c3,4.4-2.8,2.1-1.9,7l6.5-6,4.8,1.9-2,8.2h5.1s-3.1-2.1-3.1-2.1l3.1-5.1.5,3.1c5.1-2.7,7.3,3.2,10.8,5.6,3,2,7.9,3.5,10.2,5.2,2.1,1.6,5.8,7.9,8.9,8.5,1.4.3,9.3-2.3,10.6-3.4,2.9-2.4-4.2-2.7-3.1-5.6,7.6-1.3,16,3,23.1,3.1,6.1,0,10.2-.9,17.2.1,9.5,1.4,19.1,6.9,28,6.9,5.6,0,15.6-4.5,19.3-4,2.7.4,5.6,4,8.1,5.3,10.9,5.8,10.9-1,18.6-.2,1.8.2,3.4,1.7,5.3,2,3,.4,7.8-.6,10.1.2,1.8.6.9,3.1,2.7,2.9v-4c.1,0,8.7-2.2,8.7-2.2l1.1,2.1c-5.2,7.3-2.3,17.9,4.1,23.6,1.4,1.2,4.2.9,5.1,4.1l-.5-3.1,7.2-2.1,2.7,6.1c.5,1.6-7,6.9-3.2,10.3,3.2,2.8,5.8-1.7,8.9-2.4,2.1-.5,4,.9,6-.1,1.8-1.2-1.4-6.6,1.5-8.8l1.2,3.9c-3.1-.3,2.3,11,3.5,12.9,1.8,2.7,6.5,5.3,9.1,7.3-4.1,6.1-9,6.5-7.3,15.8h-3c0,3.2.4,5.9,4.1,5.2.8,2.5-2,2.3-2.8,3.4-.4.5-3.4,7.1-3.4,7.5-.2,2.3,2.4,4.1,2.1,4.5l-3.1,2.1c2.3-.3,2.8.3,3.7,2.1,6-1.4,2.9-2.6.4-6.2l7.7-5.9c5.4,5.1,11.7,8.3,19,10-1.4-9.2-3-20.5-7.8-28.6-.9-1.5-5.6-4.8-4.5-6.2,3.4-2.9,7.8,1.3,8.2,1,0,0-.2-1.5.7-2.1,4.1-2.4,7.1-1.4,10.5-6.8,3.3-5.3,2.3-10.9,4.8-15.7l5.1,3,.5,6.2c2.1,1.5,8.4-6.1,11.3-6.7l-4.8-4.5-5.8,2.8c-2.1-2.3-6.6-3.1-8.4-5-2.8-2.8-5.4-13.5-8.2-17.4-.4-.6-10.1-10.4-10.7-10.8-4-2.9-11.6-1.3-11.3-9.8-5.1,0-.5,4.5-1.2,8-3.4,1.9-7.7,4-8.1,8.4-2.9,1-1.8-2.3-3.7-2.9-2.2-.6-9.3-.2-10.1,3l-2.6,7.1-2-11.2c4.1.4,10-3.5,12.9-3.8,2.1-.3,4.8,1.8,6.5,1.2,3.6-1.3-.3-3.5.3-5.6.1-.5,3.8-8.1,4.3-8.2,3,.9,16,9.7,17.9,8.2.1,0,.7-2.5.7-2.6-.6-3.6-10.5-6.7-13-9.2,10.5-6.6,11.6-18.7,3.1-27.7,2-.9,3.2-2.2,3.1-4.6l-4.6,3.1c-1.3-3-11-4.3-11.7-5.2-.8-1.2.7-4.4.4-6.2-.4-2.1-2.9-4-3.3-5.8-.7-2.9.4-10.3-2.3-12.1-1.2-.8-3.9-.3-4.7-1.5-.9-1.4-1.1-10-2.3-13.1-1-2.8-6.7-11.5-9.8-11.3-6.5.3-5.8,8.2-12.4,8.9-1.4-3-6.3-7.7-7.2-10.2-.4-1,.7-2.8.4-3.1-.2-.2-3.1-.2-4.4-1-.9-.5-1.4-2.4-3-3.4-6.1-3.9-11.8-6.7-19.2-4.8-1.9,12.7-3.1,26.4,5.1,37.4,2.3,3.1,13.7,11.2,14.2,12,.6,1.2,0,2.9.2,4.2.1.4,4.9,4.6,4.1,7.4l-15.1-14.7c-9.5-9.1-20.1-.6-18.6,10.4,0,.7,4.5,11.4,5.1,12.4,1.3,2.2,3.9,3.4,5,5.8l-10.3-4.1,2-2-4.6-1.1c-3.2.2-1.5,2.9-1.7,3-.6.5-14.7,5.2-15.5,5.1-5-.8-12.9-10.9-18.8-12.1l-1.5-3.1-2.5,2.1-15.2-2-5.4,4.9c-2.7.3-15-13.2-19.3-14.6-5.3-1.7-10.7.3-15.7-2.6-4.9,7.4-14.5,9.5-22.5,12.1-1.3-1.3-2-1-.5-2.5,2.7-2.5,10.2-4.4,14.3-7.3,2.3-1.6,3.6-6.2,8.2-5.6,0-2-1.5-3.6-1.6-5.6-.1-2.9,2.4-8,2.3-9.3-.1-1-1.8-1.7-2.2-2.6-1.4-3.7-2.8-7.8-5.7-10.7-1.2-1.2-3.2-1-4.1-2.1,5.1-2.6,8.3-7,14.4-6.7,1.1-3.4-3.1-1.3-3.1-2.6,0-2.7,3.8-1.3,3.1-5-.8-4.1-5.8-5.8-9.2-6.7l2.1,7.6c-4.3,2.7-8.7,6.2-8.3,11.8-9.8-1-18.8,4.2-23.7,12.2l-3.5-.9c-.6-8.1.6-5.6,5.2-9.3,1.8-1.4,10.5-9.1,11.2-10.3,1.9-3.3,2-10.6,3.1-14.4l9.3-2c4.5-11-10.4-9-12.4-11.3-.9-1-1.1-4.2-2.1-6.1-1.7-2.9-4-4.2-5.9-6.4-2.1-2.4.4-4.7-6-3.8-5.9.8-15.3,5.3-19.3,9.8-1.6,1.8-7.1,12.4-7.9,12.6-6.9,1.7-6.7-3.7-9.6-6.6-2.7-2.7-9.7-7.3-13.3-4.2-.3.3-4.4,6.3-4.6,6.7-1.6,3.4-1.6,11.5-1.2,15.4.5,3.8,3.5,6.3,1.6,10.2-2.8-.2-2.7-4.6-3.2-5.1-.3-.3-6.6,1.8-6.1-2.1-4.4,5.3-9.5.3-15.4,2,.6-2.8,4.8-2.7,5.8-4.5.3-.7,1.6-10.2,1.5-11.4-.2-2.1-2.2-3.9-2-4.9.2-1.2,2.5-1.9,1.9-3.8-2.9,4.2-10.7-.9-11.2-3.7-.2-1,1.5-2.5,1.9-4.1,1.3-6.5,2.4-12.7-2.4-17.9-1.7-1.8-7.9,2-7.8,4.2-.9-1.4-6-1.6-5.1-3.6,1-2.3,6.5-2.3,8.3-4.3,2.3-2.5,4.7-9.1,4.1-12.6,4.1,5.4,10.8,8.2,17.7,5.9,6.2-2.1,3-5,7-7.4l-9.2-5.6c3.6-1.9,5.8.2,9.2,1,1-2.2-1.6-4.6-1.7-5.7,0-.9,1.5-3,1.7-5.1.4-4.6-.8-12-2.2-16.3l3.1-2.2-1-3.5-2.5,3.1c-4.1-1.1-4.5-6.3-8.2-6.3-7.3,0-12,8.7-14.5,14.4-.5,1-2.1,1.8-2.3,2.9-.4,1.7,1.4,7.7-.2,10.6-3.2.6-2.2-3.3-4.2-5.6-1.6-1.9-10.6-9.5-12.8-10.8-3.3-1.9-6.9-3.4-10.7-3.1-.9-6.4.5-17.1-9-14.7-3.7,3.8-5.5,10.2-3.4,15.3l-.9,2c-1.2.8-14.9-1.5-18.1-1.1-2.2.2-6.4,4.2-9.7,3.6-1.3-4.4,5.1-4.5,6.9-6.4,1.3-1.4,2.1-6.2-.2-4.9l-2.6,3.1c7.6-32.2-29.8-33.3-50-21.7-2.5,1.4-8.1,7.4-8.5,10-1,6.1,1.9,11.4,4.1,16.8h-4.1c1.1,3.4-2.6,5.3-3,6.9-.4,1.5,1.7,3.4.4,4.4l-3.7-2.7c6.2-22.2-8.7-31.7-27.2-30.4,15.2,36.3,33.8,70.7,55.4,103,4.8-.5,9.4-1.3,12.8-2.1,2.3,6.5,2.8,12.5,8.3,17.4-3.1-1.1-8.1.2-10.6-.2,0,0,0,0,0,0,3.7,5.2,7.5,10.3,11.3,15.3.1,0,.3-.1.4-.2.8-.4.2-2.2.9-3.1,1.2-1.4,4.2-3.5,4.7-4.6.6-1.4-1.8-5.2,1-4.1,7.9,3.4,12.3,13.3,21.1,15.4l-7.7,6.1c-3.2,4.2,0,7.5-4.6,10.2,0,0,0,0,0,0,1.2,0,2.9-.4,3.8.2.5.3,2.3,5.3,3,7.8,7.2,8.4,14.7,16.5,22.4,24.5l1.6-1.3c-2.7-5.2,1-10.7-4.2-14.2l2-1-11.3-4.1c3-.5,8.7-5.2,11.1-2.3l7.7,20.6,2.9,2.5c.1,4.2,4.9,7.2,6,10.2.7,1.8-1.9,1.7-3.3,2.3.7.6,1.3,1.3,2,1.9,1.1-.9,2.5-2.1,3.8-1.9l5.7,6.2h-5.1c3.4,3.1,6.8,6.3,10.3,9.5-.3-3.1-2.2-6.3-2.1-9.5,5.9,1.4,11.2,2.7,17.5,2ZM498.9,1005.9l2.6,8.2-7.2-2.1c-1.1-1.1,4.2-4.8,4.6-6.1ZM473.8,1000.4c.4-.3,2.4-3.2,2.6-3.7.9-3-2.7-9.6,0-10.2,2.1-.4,8.7,10.1,13.8,7.2-3.1,5.8-.5,10.5,0,16.4l-6-.2c-.4-7-8.4-6.3-13.4-5.1l-2.1-3.5c-.5-3.4,2.9.4,5.1-1ZM241.5,954.8l7.3,1.7,8.9-10c2,1.3,1.1,1.6,1.1,3.1-.1,3.4-1.5,6.6,0,10.2,1.9,4.7,6.7,7.4,11.8,6.2-1.9,8.3-6.1,2.1-9.6,3.2-2.1.7-2.5,4-2.8,5.9-1.5,1.3-10.7-2.1-12-3.2-1.2-1-1.6-6-2.9-7.9-2.3-3.4-9.5-4.3-1.8-9.1ZM73.5,869.5l3.1-3.6,2-.4.8,1.9,6.4,4.1-12.3-2.1ZM178.7,925.9c-2.1-1.4-5.9-5.8-7.7-6.6-1.6-.8-3.6-.3-5.1-1.1-1.4-.7-1.5-2.7-2.8-3.6-5.2-3.8-21.7-7.9-18.7,3.6l-2,.5-3.1-9.2,2.9.9,3.2-3.4-2-5.7c-3.7-1-1.3,4.7-4.1,5.1-.2-6.3-8.6-17.6-15.2-19.3-4.8-1.2-9,4.7-12.9,4-.8-.1-1.9-4.9-5.8-3.1l5.9,5,5.4-.9c0,1.6-1,3-1.1,4.6,0,2.5,2.8,6.4-1,5.6l-.6-3.1c-9.8.8-15.6-10.5-23.9-14.6l.9-6.9c6.5-.1,18.8-2.4,19.4-10.4l-8.1-2.2v-4c6.3,1.7,10.7,5.1,17.8,3.6,4.6-1,7.7-5.1,11.8-6.6,1.1,2.7.4,8.3,1.5,10.3,1.2,2.1,8.6,3.7,8.7,8.8l3.1-.6v3.1s-3.1-.5-3.1-.5c-2.6,1.4.2,5.7,4.2,2.2,2.6-2.3,1-4.7,3-5.7.9,5-1.2,14.7,0,19,.4,1.3,5.9,4.8,4.1,8.7l-7.7-1c-1.2,5.7,6.6,1.6,9.7,2.6,2.5.8,11.1,5.3,10.4,8.7l1-3.1,9.2,2.1-3.1,7.2,6.1-1-.5,7.2Z"/>
  <path d="M139.2,980.3c.4-2-1.5-3.2-3-3.6-.4-.1-1.7-.2-3.4-.3.8,1,1.6,1.9,2.4,2.9l4.1,1Z"/>
  <path d="M18.9,735.4c0-4.2-2.4-.2.7-7.5,2.8-6.6,7.4-18,2.2-24.3-4.6-5.5-8.4-4.1-13.7-5,2.3,14.1,5.2,28,8.4,41.7,1.1-1.1,2.4-2.5,2.3-4.9Z"/>
  <path d="M179,1027.5c0,0,.1.1.2.2,0,0,0-.1,0-.1,0,0,0,0-.2,0Z"/>
  <path d="M814.9,894.8c4.2,4.6,14.6,5.9,20.6,5.3,3.3-.3,8.9-3,11.4-2.9,2.2.1,3.6,2.8,8.1,2,2.1-.4,2.8-2.2,4.4-2.8,3.6-1.3,7.3-2.3,11.1-3.1,2,.4,3,11.5,7.6,11v-10.2c.8-.9,8.4,3.3,8.2-.5-1.6-3.2-18.3-7.9-21.6-11.2-3-3-3.3-7.9-4.4-10.1-2.7-5.5-7.5-14.9-11.5-19.1-.7-.7-1.5-1.1-2.5-1.1,4.1-4.2,1.1-6.9-3.6-8.2-2.7,1.8-.8,3.7-.5,6.2-3-.9-9.7-3-12.7-2.8-.9,0-15.9,5.3-16.6,5.8-.9.7-6.4,10.6-6.6,12-.6,4.8,2.2,9.2,3,13.3,1.4,7.2-.8,9.6,5.5,16.6Z"/>
  <path d="M392.9,862.6c-.3-.8-4.9-8.7-5.3-9.1-3.1-2.9-13.1-3.5-17.1-6.3l-12.7,2.8c.3-2.4,2.2-4.3-.5-6.2-4.8,1.4-7.6,4-3.6,8.2-1,0-1.8.4-2.5,1.1-4,4.3-8.8,13.6-11.5,19.1-1.1,2.3-1.4,7.1-4.4,10.1-3.3,3.3-20,8.1-21.6,11.2-.2,3.8,7.4-.4,8.2.5v10.2c4.6.5,5.7-10.6,7.6-11,6.4-.2,14.1,6.9,19.5,5.8,1.6-.3,2.7-1.8,4.1-1.9,2.6-.2,8.2,2.5,11.4,2.9,6,.6,16.4-.7,20.6-5.3,6.4-6.9,4.1-9.3,5.5-16.6,1-5.3,4.6-9.6,2.2-15.7Z"/>
  <path d="M613.4,1061.3c8.7.7,12.3-9.9,19.6-13.8,3.3-1.8,7.5-1.2,10.2-4.2-1.3-2-1.7-1-3-1-3.7,0-10,1.7-13-.5-2.5-1.8-4.3-11.8-8.6-13.9l3.1-.5c2.2-4.5-6.7-11.6-7.2-5.6-.2,2.6,2.3,3.3,2.1,5.6-5.8-.4-11.9,2.1-16,6.1-5-3.3-10.5-6.8-16.8-6.1,0-2.6,2.9-3.5,2-6.6-1.3-4.5-9.4,2.9-7.1,6.6l3.1.5c-4.4,2.1-6.1,12.1-8.6,13.9-3,2.2-9.3.5-13,.5-1.3,0-1.7-1.1-3,1,2.7,3,6.9,2.4,10.2,4.2,7.3,3.9,10.8,14.5,19.6,13.8.5.5-2.1,9,4.6,11.5,3,1.1,5.4-1.2,8.3-1.3,3.5-.1,6.8,2.7,9.9,1.1,4.5-2.3,4.3-6.7,3.9-11.3Z"/>
  <path d="M807.1,1089.7c5.6-5.1,3.8-15.5-2.2-20.2-10.4-8-21.6.6-21,12.3l-7.2-1c1.3-2.3,4.1-1.4,3.1-5.1-5.3.6-9.6,4-14.4,6.6-2.7,1.4-5.2-.5-5.1,5.3,0,4.4,2.6,2.6,3.9,3.8.9.9,3.2,6.9,5.5,8.4,1,.6,10.4,3.2,11.8,3.2,5.9-.1,11-6.3,7.7-11.8,2.8.4,4.6,2.8,7.7,2.6,1.3,0,9.4-3,10.4-4Z"/>
  <path d="M434.9,1082.3c-4.9-2.6-9.2-6-14.4-6.6-1,3.7,1.8,2.8,3.1,5.1l-7.2,1c.3-23.8-32.8-17.4-25.3,4.3,1.5,4.3,8.4,7.3,12.5,7.5,3.2.2,4.9-2.2,7.7-2.6-3.1,5.4,1.3,11.2,7,11.8,1.6.2,11.2-2.3,12.4-3.1,2.3-1.4,4.6-7.5,5.5-8.4,1.3-1.2,3.8.6,3.9-3.8,0-5.7-2.5-3.8-5.1-5.3Z"/>
  <path d="M234.5,1075.9c1.3,1,2.6,2,3.9,3-.6-1.4-1.9-2.5-3.9-3Z"/>
  <path d="M230.5,1069.5v3.2c.2.2.4.3.6.5,6.1-4.3,1.2-5.9.5-8.5-.9-3.1,4-4.6,4.8-7.2.6-2.1,2-10.8-.4-11.5-3.2-.9-8.4,6.6-12.3,8.1l-3-2.1c-2.8-.3-7.9,3.9-5.7,6.3.5.5,4.3-1.1,4.1,1-.9.5-1.9,1.2-2.8,2.1,3.9,3.2,7.8,6.4,11.7,9.5.8-.8,1.7-1.4,2.4-1.3Z"/>
  <path d="M961.7,1078.8c1.2-.9,2.5-1.9,3.7-2.8-1.7.3-3.1,1.2-3.7,2.8Z"/>
  <path d="M985,1058.3c2.2-2.4-2.9-6.6-5.7-6.3l-1.7,1.9-1.3.2c-3.3-.8-10.7-11.3-13.5-7.2-.6.9.4,9.3.8,10.6.7,2.4,5,4,5,6.4,0,2.4-5.9,4.7.1,9.5.1-.1.3-.2.4-.3l.4-3.5c.7,0,1.5.4,2.4,1.3,3.9-3.1,7.8-6.3,11.7-9.5-.9-.8-1.9-1.6-2.8-2.1-.2-2.1,3.6-.5,4.1-1Z"/>
  <path d="M314.4,1098c.6-1.8.6-3.4.1-5.2-1.7-4.7-9.6-2.4-10.1-2.7-.5-.3-2.9-8.7-5.1-9.8.4-1.5,6.5,1.5,6.1-1,0-.2-3-3.3-3.2-3.4-.6-.2-5.7.8-5.1,2.7l-2-.4c0-7.6-16.2-12.3-15.5-3,.2,1.9,2.1,1.4,2.2,2.1.2,1.5-1.2,3.6-1.1,5.9.2,2.7,2.7,5.7,2,8.8l-5.1-1c-2.5,8.6,4.4,4.2,7.9,5.9,2.2,1,2.7,3.6,4.3,5,3.3,2.8,13.2,4.6,17.3,2.8.5-.2,6.9-6.3,7.1-6.8Z"/>
  <path d="M917.2,1092.1c-.7-3.2,1.9-6.1,2-8.8.3-4.6-1.7-2.6.7-6.8,2-3.4-1-6.7-4.5-6.7-.4,0-7.8,2.5-8.1,2.7-1.8,1.4-.9,4.8-3,6.3-.7.4-3.9-3.8-6.5-2.9-.2,0-3.2,3.1-3.2,3.4-.3,2.5,5.7-.5,6.1,1-2.3,1-4.7,9.4-5.1,9.8-.4.3-5.9-1.8-9.2,1.5-4.1,6.2,5.9,14.1,11.8,14,2.6,0,8.6-1.4,10.7-2.7,2.6-1.5,3.3-5.3,6.2-6.2,3.4-1,9.5,2.8,7.2-5.5l-5.1,1Z"/>
  <path d="M1135.1,818.9c-1.1-1.7-1.7-6.2-3.6-9.3-2.4-4-20.7-25.2-25.3-18-1.2,6.6,1.1,15.3,7,18.3l-6,2.1v3.9c3.2,2,8.8-.5,9.2,4.2l5.6-3.1,4.6,5.6-4.1-1.5v3.1c3.2-1.8,15.9,3.8,16.5.4.8-3.5-3.2-4.7-3.9-5.8Z"/>
  <path d="M93.9,791.7c-4.6-7.3-22.9,13.9-25.3,18-1.8,3.1-2.5,7.5-3.6,9.3-.4.7-5.7,3.7-3.8,6.4,1.9,2.7,6.3-.7,7.7-.9,2.8-.4,5.8.1,8.7,0v-3.1s-4.1,1.5-4.1,1.5l4.6-5.6,5.6,3.1c.3-4.8,5.9-2.3,9.1-4.2v-3.9s-6-2.1-6-2.1c5.9-3,8.2-11.7,7-18.3Z"/>
  <path d="M1138.6,770.8c14,5.4,21-4,18.9-17.2h2.9c0-.1,0-3,0-3-1.1-.7-4.4,0-4.9-.4-2.1-1.3-.7-2.5-6-3.6-8.6-1.9-12.9.4-17.2,8.2-2.8,5,.7,14,6.3,16.1Z"/>
  <path d="M57.5,771.9c8.5-1.1,14.1-10.8,9.8-17.9-4.7-7.9-11.3-10.6-20.1-6.8-2.5,1.1-2.7,4.2-7.5,3.3v2.9s2.9.1,2.9.1c-1.2,11.3,1.6,20,14.9,18.3Z"/>
  <path d="M943.2,1051.3c-4.3-.7-7.2,5.2-10.5-2.8l3-1.7-.9-2.9-3.4,2-3.7-3,4.1,7.2c-2.3-1.6-5.7,1-6.7.8-1.4-.2-2.1-5.3-5.6-3.9-.5,3.2-1.3,5.2.6,8.2.5.8,2.1.9,2.3,1.2.2.4-1,2.2-.9,3.4,0,.4,1.9,5.4,2.1,5.7.1.1,1.5-.8,2.3-.6,3.1.7,1.7,2.4,5.8-1.4-1.1,6,3.3,10.6,8.2,13.3l.6-2.1,3.5,1.1c.4-4-6.5-5.6-.7-10,.7-.5,2.2,0,2.6-.4.1,0-.5-1.3-.3-2,1.4-4.3,5.3-10.9-2.4-12.1Z"/>
  <path d="M277.9,1056.3c.2-.3,1.8-.4,2.3-1.2,1.9-2.9,1.1-5,.6-8.2-3.5-1.4-4.2,3.7-5.6,3.9-1,.1-4.5-2.4-6.7-.8l4.1-7.2-3.7,3-3.4-2-.9,2.9c4.2.2,2.3,4.6-.1,5.8-2.1,1.1-8.7-4.3-11.8,1.5-1.4,3,1,6.3,2,9.2.2.7-.4,1.9-.3,2,1.1.7,5.1.5,5.1,4.7,0,2.6-4.4,1.8-3.1,5.6l3.5-1.1,1.1,2.2c4.5-3.4,8.9-7.2,7.7-13.3,4.1,3.9,2.7,2.1,5.8,1.4.8-.2,2.2.7,2.3.6.2-.2,2.1-5.3,2.1-5.7.2-1.2-1.1-3-.9-3.4Z"/>
  <path d="M1025.2,690.7c4.8-11.9-8.1-18.6-18-19.3-1.8,2.6-4.9,6.6-4.9,9.8,0,1.4,4.6,10.7,5.5,11.5,4.1,4.2,14.6,4.9,17.4-2Z"/>
  <path d="M193.4,671.7c-9.8.2-21.8,6-19.1,17.6,2,8.5,14.2,8.1,18.3,3.1.9-1.1,5.1-9.6,5.1-11.1,0-3.5-3.1-6.5-4.4-9.6Z"/>
  <path d="M687.7,953.6c-.8-.1-8.1,0-8.5.3-.5.3-6.9,7.9-7.2,8.7-1,3.4-1.2,12.2,3.4,12.6.7,0,9.2-.9,10.2-1.1,15-3.2,11.8-18.9,2.1-20.4Z"/>
  <path d="M527.3,973.7c1.4-1.8,1.4-8.9.7-11.2-.2-.8-6.7-8.4-7.2-8.7-.4-.2-7.7-.4-8.5-.3-7,1.1-11.6,12.2-5.2,17.5,3,2.5,18,5.3,20.1,2.6Z"/>
  <path d="M869.2,1136.3c5.6-2.8,11.2-5.7,16.8-8.8l-5.4-4.6c-5.7.9-10.3,7.5-11.4,13.4Z"/>
  <path d="M319.5,1123c-2.6,1.7-4.3,3.1-5.4,4.6,5.5,3,11.1,5.9,16.8,8.8-1.1-5.9-5.7-12.5-11.4-13.4Z"/>
  <path d="M812,1111.6c-.6.3-7.9,6.7-8.2,7.2-2.7,5.5,1,10.5,7,10.2,7-.4,8.4-3.4,12.3-7.8.8-.9,2.1-1,3.2-2.5.6-.9,3.7-7,3.7-7.7-.1-6.2-15.1-1.2-18,.5Z"/>
  <path d="M396.3,1118.8c-.2-.5-7.6-6.9-8.2-7.2-2.9-1.7-17.9-6.7-18-.5,0,.7,3.1,6.8,3.7,7.7,1,1.4,2.4,1.6,3.2,2.5,3.9,4.4,5.3,7.4,12.3,7.8,6.1.3,9.8-4.7,7-10.2Z"/>
  <path d="M1103.5,725.9c-1.2,3.9-7.6,33,4.4,23.3,4.6-3.8,10.5-13,11.4-18.9,1.3-8.2-9.5-10-13.7-3.3l-2.1-1Z"/>
  <path d="M95,726.9c-3.1-2.3-5.4-4.9-9.7-4.1-7.3,1.3-3.2,13.9-.5,18,1.6,2.5,8.8,10,11.8,9.8,7.1-.6,0-20.5,0-24.7l-1.6,1Z"/>
  <path d="M280.9,814.6c.5-6.9-2.7-5.7-5.3-10.6-2.8-1.7-11.8,7.4-12.9,9.9-7.4,16.5,17.1,16.8,18.2.7Z"/>
  <path d="M938.2,823.3c3.7-6.6-6.4-18.5-13.2-19.6-.8,2.6-3.6,3.4-4.5,4.5-7.1,8.7,8.4,25.5,17.7,15.1Z"/>
  <path d="M915.4,902.7c5.9,2.5,16.3,2.1,16.1-6.1,0-2-2.9-5.7-4.4-7.2-8.9-8.3-20.6-2.2-16.9,8.2.1.3,4.9,5,5.2,5.1Z"/>
  <path d="M287.7,887.2c-8.3-7-23.1,6.3-17.9,13.7.4.6,4.5,3.3,5.3,3.4,4.2.4,13.9-3,14.9-7.7.6-2.7-.2-7.6-2.4-9.5Z"/>
  <path d="M115.3,577.4c-7-5.8-22.4,11.4-13.6,18.2,9.7,7.4,21.3-11.8,13.6-18.2Z"/>
  <path d="M1098.4,595.6c8.8-6.8-6.5-23.9-13.6-18.2-7.7,6.3,3.9,25.6,13.6,18.2Z"/>
  <path d="M493.2,1158.2c-2.1,2.5.8,6.3,1,9.2-6.5,3.5-13.1,10.1-13.1,17.9,6.5,4.8,18.3-6.8,18-12.7,0-1.9-2.7-3.8-2.7-4.1,0-.7,2.2-1.2,2.7-1.8,3.1-3.7-.3-14.1-5.9-8.5Z"/>
  <path d="M705.9,1167.4c6.4-12-7.2-15.3-6-3.2.3,3,3.8,3.5,3.9,4.3,0,.3-2.6,2.2-2.7,4.1-.3,6,11.6,17.6,18,12.7,0-7.8-6.6-14.4-13.1-17.9Z"/>
  <path d="M994.7,712.5c4.3-.9-2.6-13.2-4.1-15.3-.8-1.1-6-6.3-6.9-6.9-3.8-2.6-9.3-2.7-8.9,3.1.7,9.2,12.3,16,19.9,19.1Z"/>
  <path d="M225.3,690.6c-7.7-8.3-22.9,15-21.4,20.2.5,1.7,1.6,1.6,3,1.2,2.4-.6,12.2-7.3,14-9.1,2.2-2.3,5.4-9.2,4.4-12.3Z"/>
  <path d="M510.2,863.4c1.3,1.9,14.6,3.1,16.7,2.3,4.1-1.6,6.9-9.2,3.1-12.3-5.8-4.7-25,2.7-19.8,10.1Z"/>
  <path d="M673.2,865.7c2.1.8,15.4-.4,16.7-2.3,5.2-7.3-14-14.8-19.8-10.1-3.8,3.1-1,10.7,3.1,12.3Z"/>
  <path d="M354,985.1c-.7-.6-.9-2.1-1.8-2.8-8.8-7.3-22.1,8.1-20.1,10.2,6.4,2.5,10.6,4.9,17,0,3.7-2.8,1.8-6,8.7-4.6l1-2.6c-1.8.8-3.2,1.1-4.8-.3Z"/>
  <path d="M849.7,981.1c-3.3,1.5-3.4,7-8.5,4.4-.1,5.1,4.6,1.6,6.1,2.5.9.5,1.9,3.4,3.6,4.7,6.4,4.9,10.5,2.4,17,0-.9-7-11.6-14.5-18.2-11.5Z"/>
  <path d="M480.7,1154.9c-1-1.2-5.6-1.8-7-.8-4,6.1-3.9,21.1,5.7,21.2,5.8,0,3.4-17.9,1.3-20.4Z"/>
  <path d="M727.2,1155.4c-1.6-2.7-6.9-2.1-8.1,0-1.8,3.4-3.9,18,.3,19.5,9.2,3.3,11.4-13.5,7.8-19.5Z"/>
  <path d="M784.8,938.2c6.9-4.1,17.4-.5,23.6-7.7.9-4.3-14-3.7-15.2-4.8-.6-.5-.1-3.2-1.7-3.9-4.1,4.9-8.2,9.4-6.7,16.4Z"/>
  <path d="M415,930.7c-.5-2.7-2-2.4-2.5-3.1-6-9.7-3.4-3.9-5.7-1.9-1.2,1.1-16.2.5-15.2,4.8,6.2,7.2,16.7,3.6,23.6,7.7,0-2.5.2-5-.2-7.5Z"/>
  <path d="M944.9,879.2c3.5-3,1.6-7.6-2-9.2-2.4-1-3.7.4-5.5.2-1.1,0-2.2-1.4-3.2-1.4-.5,0-7.8,1.8-8.8,2.2-6.2,2-.7,9.3,5,5.8.8,4.8,11.9,4.6,14.5,2.4Z"/>
  <path d="M270.1,876.6c1.3,0,3.6,1.9,5.4.9.2-.1,2.8-4.1,1.8-5-.5-.8-10.4-3.7-11.4-3.7-1,0-2.1,1.3-3.2,1.4-1.8.1-3.1-1.3-5.5-.2-5.8,2.5-4.9,10.1,1.6,10.8.7,0,7.9-.5,8.3-.7,1.8-.9,2.3-3.4,2.9-3.4Z"/>
  <path d="M377.2,768.4c-1.2-3.4-5-6.8-8.7-6.1-6.5,1.1-10.1,6-7.8,12.4,6.6,6.2,15.1,2.1,16.5-6.2Z"/>
  <path d="M838.2,775.6c5.9-4.4-2-15.1-8.7-13.4-13.7,3.5-2,21.4,8.7,13.4Z"/>
  <path d="M889.2,1079.5l6.3-10.7-2.9-6.5c-1.9-.3-.5,2-1.2,2.9-.5.6-9.2,1.9-11.1,3.8-.4.4-3.5,7-3.6,7.6-1.1,5.5,10.3,5.2,12.6,2.9Z"/>
  <path d="M308.7,1065.3c-.7-.9.8-3.2-1.2-2.9l-2.9,6.5c3,4.6,4.7,11.5,10.6,12,2.9.3,8.4.7,8.4-3.6,0-.5-3.3-7.7-3.7-8.2-2-1.9-10.6-3.2-11.1-3.8Z"/>
  <path d="M368.8,1080.1c-.5-.5-2.2-.6-3.3-1.3-1.2-.8-1.8-2.4-3.3-2.9-2.6-.8-6.2.1-9-.3-4.6,8.5,4.2,15.2,12.2,14.4,4.3-.4,6.3-7.4,3.3-10Z"/>
  <path d="M837.9,1075.9c-1.5.5-2.1,2.1-3.3,2.9-2.3,1.5-4.3.4-4.6,4.7-.7,12.5,23.6,4.9,17.4-7.7-2.9.2-6.8-.7-9.5.1Z"/>
  <path d="M1184.1,594.1c7.6-4-.2-27.1-9-17.7-2.4,2.6,2.6,21.1,9,17.7Z"/>
  <path d="M25,576.4c-8.8-9.4-16.6,13.7-9,17.7,6.4,3.4,11.4-15.1,9-17.7Z"/>
  <path d="M1068.7,816.2c2.8-7.2-10.8-14.6-16.3-13.3-.9.2-2.2,1.4-2.4,2.4-1,6.1,15.4,15.3,18.7,10.9Z"/>
  <path d="M145.1,803c-5.9.6-15.7,6.1-13.7,13.2,3.4,4.7,21-5.8,18.5-11.4-.9-2-3-2-4.8-1.8Z"/>
  <path d="M245,1076.4c-.9,1.8-1.7,3.7-2.3,5.7,2.3,1.7,4.7,3.4,7,5.1,2.4-5.9,2.3-14.7,3.4-19.7-4.2.7-6.4,5.5-8.1,8.9Z"/>
  <path d="M947,1067.5c1,5,.9,13.7,3.4,19.6,2.3-1.7,4.7-3.4,7-5.1-.6-1.9-1.4-3.8-2.3-5.6-1.6-3.4-3.8-8.2-8.1-8.9Z"/>
  <path d="M539.5,1036.7c.8-6-4.9-15.4-11.3-14-10.7,2.4-.3,14,5.9,14.8,2.1.3,3.3-2.1,5.4-.9Z"/>
  <path d="M660.6,1036.7c4.5.7,8.1.9,12-2.4,1.3-1.1,4.6-6.6,4.2-8.3-7.5-9.4-16.9,2.1-16.2,10.6Z"/>
  <path d="M463.8,1077.8h-2.2c0,0-.6-5.2-.6-5.2l-2.1,7.2c-1.3-3.7-7.3-4.8-7.7,0l-2-2c-2,3.6-2.2,8.1,0,11.8,4.4-.8,10.3,2.3,12.1-3.4.4-1.3-.8-5.2.5-6.3.2-.2,6.2-.5,2.1-2.2Z"/>
  <path d="M748.9,1079.8c0-4.6-7-3.9-7.2,0-2.9-1-2-4.7-2-7.2l-.9,4.6-3.1.6c-.9,3.4,2.3,1.1,3.1,2.7.8,1.7-.3,4.4.2,5.8,1.8,5.7,7.7,2.6,12.1,3.4,2.1-3.8,1.9-8.2,0-11.8l-2,2Z"/>
  <path d="M35.5,803.8c1.2,3.3,2.4,6.5,3.6,9.7.3-4.7.9-10.8-3.6-9.7Z"/>
  <path d="M1163.2,804c-3.6.9-2.6,5.3-2.1,9.1,1.1-3,2.2-6,3.3-9-.4-.1-.8-.2-1.2,0Z"/>
  <path d="M488.5,931.4c-6.8,5.5,1.5,14.8,9.9,11.5,7.2-2.9-2.7-17.3-9.9-11.5Z"/>
  <path d="M701.7,942.8c8.4,3.4,16.8-5.9,9.9-11.5-7.2-5.8-17.2,8.6-9.9,11.5Z"/>
  <path d="M776.6,1016.2c1.9,0,3.5,1.9,5.5,1.8,4.5-.2,15.6-10,11.7-13.9-4-4-19,9.6-17.2,12.1Z"/>
  <path d="M405.5,1007.1c1.3,6.1,11.9,13.9,18,9.1,1.1-5.7-20-19-18-9.1Z"/>
  <path d="M461,1105.5c-5.2,5.8-12.4,17.8-6.2,24.6.6-1.5,4-2.7,4.4-3.3.4-.7,3.3-15.2,3.4-16.7,0-1.9.3-3.3-1.6-4.5Z"/>
  <path d="M737.6,1110c0,1.5,2.9,16,3.4,16.7.4.6,3.8,1.8,4.4,3.3,6.2-6.8-1-18.8-6.2-24.6-1.8,1.3-1.6,2.6-1.6,4.5Z"/>
  <path d="M946,905.4v5.1s5.6,0,5.6,0c1.8-3.6-2.3-5.8-5.6-5.1Z"/>
  <path d="M940.6,918.5c9.3,1.7,4.3-2.2,10.5-4.9l-2.6-2-1.5,2.1c-.1-.8-.6-2.6-1-3.1-.3-.2-5.8-3.6-6.1-3.7-7.9-2.5-10.8,9.5.7,11.6Z"/>
  <path d="M248.5,910.5h5.6s0-5.1,0-5.1c-3.3-.6-7.5,1.6-5.6,5.1Z"/>
  <path d="M260.2,906.9c-.3.1-5.9,3.4-6.1,3.7-.9.9-.4,3.5-2,3.1l-.5-2.1-2.6,2c6.2,2.7,1.2,6.6,10.5,4.9,11.5-2.1,8.6-14.2.7-11.6Z"/>
  <path d="M458,844c-2.4.8-4.9,6.7-3.3,9.1,1.2,1.9,9.4,3.3,11.8,1.4,6.3-4.8-.8-13.2-8.5-10.6Z"/>
  <path d="M737.1,855.7c13.6.4,9.9-14-.8-11.6-7.4,1.7-6,11.4.8,11.6Z"/>
  <path d="M60.3,688.6c1-2.2,4.5-10.9,1.2-11.9-8.6-2.6-9.2,16.4-9.6,21.4,2,2,7.8-8.2,8.4-9.5Z"/>
  <path d="M1148.2,698.2c-.5-4.8-1-16.9-4.3-20.3-1.9-1.9-7.2-2.4-6.8,2,.5,5.5,5.3,16.6,11.1,18.2Z"/>
  <path d="M429,913.3c6.8,6.1,14.4-2.5,10.4-7.8-6.5-8.7-16.5,2.4-10.4,7.8Z"/>
  <path d="M771.1,913.3c6.1-5.4-3.9-16.5-10.4-7.8-4,5.3,3.6,13.9,10.4,7.8Z"/>
  <path d="M1122.8,614.1c.4-.8,2.1-2.1,2.3-2.5.5-.9,1.4-1.4.9-2.8-11.2-19.1-20.9.8-3.3,5.3Z"/>
  <path d="M76.8,613.8c6.6,2.2,12.8-10,9.1-12.6-3.7-2.6-12.6,4.7-11.9,8.9,0,.3,2.6,3.6,2.8,3.7Z"/>
  <path d="M604.1,976.8c6.7,2.2,13.9-5.4,10.2-11.7-5.4-3.2-14.2,9-10.2,11.7Z"/>
  <path d="M585.8,965c-3.6,6.2,2.9,13.2,9.5,12.1,4.2-1.4-.7-9.3-2.7-10.9-1.8-1.4-4.6-1.6-6.8-1.2Z"/>
  <path d="M1090.2,783.6l-7.7,3.4c-.2,1.1,4.5,6.1,5.7,7.1,1.7,1.5,2.3,3.2,5.5,3.2l2.1-1.2c-.6-2.5-3.2-12.5-5.6-12.6Z"/>
  <path d="M104.3,796.1c3,3.1,6.6-.7,8.8-3,.9-.9,4.7-5.4,4.5-6.2l-7.7-3.4c-2.5,0-5,10.1-5.6,12.6Z"/>
  <path d="M.8,630.8c.2,3.5.4,7,.6,10.4,1.6-2.1,2.4-5.6,2.8-8.8-1.2-1-2.3-1.5-3.4-1.7Z"/>
  <path d="M1198.6,641.1c.2-3.4.4-6.9.6-10.3-1.1.2-2.2.7-3.4,1.7.4,3.1,1.2,6.5,2.7,8.7Z"/>
  <path d="M1160.7,658.4c-3.6-8.2-16-2.6-8.1,5.5,4.7,4.8,11.1,1.4,8.1-5.5Z"/>
  <path d="M47.4,664c7.9-8.1-4.5-13.8-8.1-5.5-3,6.9,3.4,10.4,8.1,5.5Z"/>
  <path d="M900.4,903c12.2.8,3.9-11-3-9.8-8.5,1.5-3,9.4,3,9.8Z"/>
  <path d="M300,893.3c-1.6.3-5.8,3.6-6.4,5-2.8,5.9,10.1,6.5,13.4,0,1-3.5-4.3-5.5-7-5Z"/>
  <path d="M471.8,1129.1c-2.1,5-4.2,12.2.6,16.3l4.5-1.6-1.2-13.5-3.9-1.1Z"/>
  <path d="M616.5,1101.4c-1.4,1.2,5.8,7.2,6.8,8,1.2.9,10.1,7.4,10.6,3.7.7-4.6-12.8-12.6-17.4-11.8Z"/>
  <path d="M583.6,1101.4c-4.6-.8-18.1,7.1-17.4,11.8.6,3.6,9.4-2.9,10.6-3.7,1-.8,8.2-6.8,6.8-8Z"/>
  <path d="M728.3,1129.1l-4.1,1.6-.8,13.6,4.3,1.1c4.8-4,2.8-11.3.6-16.3Z"/>
  <path d="M137.1,774.1c1.3-5.8-.2-10.9-2.1-16.4-10,.8-2.8,10.8-1.1,15.8l3.2.6Z"/>
  <path d="M1067.2,769.8c.4-.7,1.5-.9,1.6-1.2,1.7-4.7,3.1-11.1-3.7-10.9-1.8,5.5-3.4,10.6-2.1,16.4,4.5.9,2.8-1.8,4.2-4.3Z"/>
  <path d="M329.7,1109c-1.9-1.1-2.8-2.6-4.7,0,2,5.1,6.1,12.3,12.3,11.8,1.2-5.5-3.4-9.4-7.6-11.8Z"/>
  <path d="M809.4,986.4c4.5.1,9.6.8,12.1-3.7l-1.1-3.2c-7.5-3.2-11.7-1.5-11,6.9Z"/>
  <path d="M390.5,981.1c-1.5-5.3-14.3-2.9-11.7,2.3,3,3.8,7.5,3.2,11.9,3.1-1-1.7.3-3.7-.2-5.4Z"/>
  <path d="M873.6,1107.5c-2.4-.4-13.8,9-10.8,13.3,2.1,2.1,8.5-4.3,9.7-6.2.7-1,3.8-6.7,1-7.1Z"/>
  <path d="M786.9,918.3c-.4-2.6-6.4-7-8.6-6.6-9.4,1.8,10.5,19,8.6,6.6Z"/>
  <path d="M421.1,911.7c-3.8.3-11.3,7.4-6.9,10.7,4.5,3.4,15.2-11.3,6.9-10.7Z"/>
  <path d="M398.5,826.3c3.2.7,6.1-.6,8.1-3,.7-2.7-1.2-6.6-4.2-6.8-6.1-.2-7.6,8.5-4,9.7Z"/>
  <path d="M801.6,826.3c3.6-1.2,2.2-10-4-9.7-2.9.1-4.8,4-4.2,6.8,2,2.4,5,3.6,8.1,3Z"/>
  <path d="M954.3,776c6.2,3.5,5.9-13.4-1.6-13.2-3.7,2.3-.7,11.8,1.6,13.2Z"/>
  <path d="M247.4,762.8c-7.6-.2-7.8,16.7-1.6,13.2,2.4-1.4,5.3-10.9,1.6-13.2Z"/>
  <path d="M646.2,1072.1c-1.4-4.7-15.7,1.4-12.3,7.7.7.8,13.7-3.1,12.3-7.7Z"/>
  <path d="M553.9,1072.1c-1.4,4.6,11.6,8.4,12.3,7.7,3.4-6.3-10.9-12.3-12.3-7.7Z"/>
  <path d="M1153.3,738.7c-.9,4.3,12.6,9,16.4,7.7-.9-3.4-5.7-5.7-8.9-7-1.6-.7-7-3.6-7.6-.6Z"/>
  <path d="M45.5,742c1.6-1.7,1.8-4.8-1-4.7-2.4.1-16.2,7.5-14.1,9,3.5.9,12.8-2,15.1-4.4Z"/>
  <path d="M659.6,1063.4c-3.1,5.4,4,11.1,9.2,11.3,1.4-6.7-3.4-10-9.2-11.3Z"/>
  <path d="M531.3,1074.7c5.2-.2,12.3-5.9,9.2-11.3-5.8,1.3-10.6,4.6-9.2,11.3Z"/>
  <path d="M542.3,1021.6c.8.7,1.7,3.5,2.9,3.8,4.6,1-.2-7.7-.4-9.8-2.4-2.7-10.3-2.1-7.8,2.7,1,1.9,3.9,2.2,5.4,3.4Z"/>
  <path d="M657.8,1021.6c1.5-1.2,4.4-1.5,5.4-3.4,2.5-4.8-5.7-5.5-7.8-2.7-.3.4-3.1,7.8-3,8.3,1,5.1,5-1.9,5.4-2.2Z"/>
  <path d="M289.9,760.3l-3-5.6c-13.5.8-4.6,17.3,3,5.6Z"/>
  <path d="M913.2,754.7l-3,5.6c7.6,11.7,16.5-4.8,3-5.6Z"/>
  <path d="M398.5,1140.7c-1.9-1.2-4.8-2.2-6.8-.9,2.3,3.8,3.7,10.4,9.6,9.7,4.5-1.5-.5-7.4-2.8-8.8Z"/>
  <path d="M797.6,1148.6c3.6,5.1,10.4-6.2,10.8-9.3-4-1.7-13.7,5.2-10.8,9.3Z"/>
  <path d="M70.4,801.3l-1.1-2.5-6.2-.6c-.6-6.4-4.9-2.8-9.1-1.5l1,4c5.6-2.9,10.7,4.9,15.4.5Z"/>
  <path d="M1145.1,800.8l1-4-7.6-2-1.5,3.6c-2.1,1.1-7.4-.8-7.3,3,.1,4.5,12.9-3.3,15.4-.5Z"/>
  <path d="M641.5,957.8c2.7,10.3,11.7,1.1,7.5-3.9-3-3.6-9-1.9-7.5,3.9Z"/>
  <path d="M468.2,1171.1c-2.8.7-4.6,13.4,0,13.4,5.5,0,3.5-14.2,0-13.4Z"/>
  <path d="M730.9,1171.1c-3.4,2.5-3.6,15,2,13.3,3.1-.9,1.9-14.2-2-13.3Z"/>
  <path d="M557.7,952.8c-3.5-4.4-12.3,5.7-4.3,10,3.9-1,6.9-6.7,4.3-10Z"/>
  <path d="M1063.3,962.9l-6.4,4.2.9,3.4,8.1,1.5c1.3-4.3,1.6-6.6-2.7-9.1Z"/>
  <path d="M143.1,967.1l-6.4-4.2c-4.2,2.5-3.9,4.8-2.7,9.1l8.1-1.5.9-3.4Z"/>
  <path d="M193.6,751c-.2,2.8,6.2-.5,7.1-1.1,1.6-1,8.3-6.6,6.2-8.7-3.2-2.4-13.3,8.9-13.3,9.7Z"/>
  <path d="M993.2,741.3c-2.2,2.2,5.2,8.1,6.8,9.1,1.4.8,8.1,3.6,5.5-.4-.7-1.1-4.4-5.5-5.6-6.2-2.1-1.4-3.9-3.2-6.8-2.5Z"/>
  <path d="M96.7,697.3c-2.7.9-4.2,8.3-1.1,10.1,5.3,1.6,8.9-12.6,1.1-10.1Z"/>
  <path d="M1104.5,707.4c3.2-1,2-12.1-4-10.2-3.9,1.3-.7,11.1,4,10.2Z"/>
  <path d="M276.7,1103.1c0,.5,0,1.3-.3,2.3,1,.6,2,1.3,3,1.9.2-2.5.3-4.4.4-4.9l-3.1.7Z"/>
  <path d="M920.3,1102.4c0,.5.1,2.4.4,4.8,1-.6,2-1.3,3-1.9-.2-1.2-.4-2.3-.3-2.9h-3Z"/>
  <path d="M958.3,895.1c5.7-1,4.4-9.1,4.1-13.3-8.7,1-4.2,7.7-4.1,13.3Z"/>
  <path d="M237.7,881.8c-.3,4.3-1.6,12.3,4.1,13.3,0-5.6,4.6-12.3-4.1-13.3Z"/>
  <path d="M680.2,1009.3l1.9,2.3c2.5,1.1,8.8-6.6,7.2-8.7-2.4-3.2-9.9,3.4-9.1,6.4Z"/>
  <path d="M979.8,835.6c1.5-6.8-15.5-9.5-10.3-2.5,2.1,2.9,7.1,2.6,10.3,2.5Z"/>
  <path d="M231.5,829.5c-1.3-1.9-13.2,1-11.3,6.1,3.2,1.6,14-2.2,11.3-6.1Z"/>
  <path d="M510.8,1002.9c-1.6,2.1,4.7,9.9,7.2,8.7,6.1-3.3-4.6-12.3-7.2-8.7Z"/>
  <path d="M1074.3,698.2c5.4-.3,5.1-3.7,5-8l-4.4-2.2c-1,1-4.3,4.9-3.6,6,.1.2,3.7.8,3,4.2Z"/>
  <path d="M120.9,690.2c-.2,4.3-.4,7.7,5,8-.6-3.4,2.9-3.9,3-4.2l-3.6-6-4.4,2.2Z"/>
  <path d="M949.6,858.2c1-3,2.6-9.8-2.1-10.3-5.5-.6-2.8,8-1.3,10.1.4.5,2.8,1.7,3.4.3Z"/>
  <path d="M253.9,858c1.5-2.1,4.2-10.7-1.3-10.1-4.7.5-3.1,7.4-2.1,10.3.6,1.4,3,.2,3.4-.3Z"/>
  <path d="M1121.5,776.2l4.1,16.7,3.1.7c-.4-1.5-4.2-20.9-7.2-17.4Z"/>
  <path d="M887.8,1107.2c-1.3-1-1-3.7-4.4-2.8l-1,11.3c2,.2,1.6-3.8,2.1-4.1.5-.3,5.1,2.6,6.7-1,.5-3.5-2.2-2.6-3.3-3.4Z"/>
  <path d="M310.4,1107.6l-1.7,2.5c1.2,4.2,6.4,1.2,6.9,1.5.5.3.1,4.3,2.1,4.1l-1-11.3-6.3,3.1Z"/>
  <path d="M78.6,776.2c-3-3.4-6.7,15.9-7.2,17.4l3.1-.7,4.1-16.7Z"/>
  <path d="M336.2,933.1c-.6,5.1,4.3,9.9,9.2,10.2,2.2-3.6-7.9-11.7-9.2-10.2Z"/>
  <path d="M863.8,933.1c-1.3-1.4-11.4,6.6-9.2,10.2,4.9-.4,9.8-5.2,9.2-10.2Z"/>
  <path d="M649.9,1044.9c3.8-.6,6.3-2.8,8.7-5.6-1.3-1.5-2.2-2.7-4.4-2.4-2.5.3-5,3.4-5.8,5.7l1.4,2.4Z"/>
  <path d="M544.3,1036.9c-1.2.3-1.9,1.6-2.8,2.4,2.4,2.8,4.9,5,8.7,5.6,4-.8-1.5-9.2-5.9-8.1Z"/>
  <path d="M758.1,878.2c-1.2-2.7-4.3-5.5-7.5-4.5-5,1.6,1.9,12,7.5,4.5Z"/>
  <path d="M444.5,1179.6c1,.3,2,.5,2.9.8,0-.4-.2-.7-.4-1.1l-2.6.3Z"/>
  <path d="M446.8,873.8c-2.5.5-3.7,2.4-4.8,4.5,4.1,4.3,9,3.3,9.1-3-1-1.9-2.5-1.8-4.3-1.5Z"/>
  <path d="M752.6,1180.4c1-.3,1.9-.5,2.9-.8l-2.5-.3c-.2.4-.3.7-.4,1.1Z"/>
  <path d="M773.6,1113c3.7,3.8,3.1,11.4,8.1,13,.7-4.6-1.5-7.4-3.6-10.7-1.5-2.3-2.8-7.4-4.4-2.3Z"/>
  <path d="M425,1110.6c-1.4,0-8.5,12.9-6.7,15.4,0,.1,2.6-1.1,2.8-1.3.3-.4,4.1-8.9,4.6-10.3.6-1.4,1.1-3.9-.7-3.8Z"/>
  <path d="M970.6,900.3c-.2,2.9-.3,5.8,2.8,7,6.1,1.7,4.5-5.5,2.1-6.8-1.3-.7-3.4,0-4.9-.2Z"/>
  <path d="M229.5,900.3c-4-2.4-9.4,4.5-6.2,6.7l5.3-1,.9-5.7Z"/>
  <path d="M966.8,895.9c4.6,3.8,8.3-.6,2.7-5.2-5.2-4.3-6.6,1.9-2.7,5.2Z"/>
  <path d="M230.6,890.6c-5.6,4.7-1.9,9.1,2.7,5.2,3.9-3.3,2.5-9.6-2.7-5.2Z"/>
  <path d="M609.3,1135.2c-1.1,3.4,7.5,8.8,9.2,7.2,0-4.7-4.7-8.1-9.2-7.2Z"/>
  <path d="M1158.4,790.5c5.9.7,6.7-3.2,6.1-8.2-5.1-1.4-6,4-6.1,8.2Z"/>
  <path d="M943.9,708.4c.6-3.5-1-5.9-4.6-6-7.5-.3-2.2,8.5,4.6,6Z"/>
  <path d="M264.4,703.3c-1.8-2.5-10.4,0-8.2,5.1,2.8,1.5,10.6-1.8,8.2-5.1Z"/>
  <path d="M581.6,1142.4c1.7,1.6,10.3-3.8,9.2-7.2-4.5-.9-9.3,2.4-9.2,7.2Z"/>
  <path d="M35.5,782.3c-.6,5.1.3,8.9,6.1,8.2.8-.7-1.5-7.6-2.2-8-1-.6-2.7,0-3.9-.2Z"/>
  <path d="M308.9,957.6c-2.1,6.4,10.1.1,7.8-5-2.8-.3-7,2.6-7.8,5Z"/>
  <path d="M968.5,914.6c0-3.2.4-7.5-3.1-9.2v10.1c0,0,11.3,2.7,11.3,2.7-2.3-3-4.4-4.2-8.2-3.6Z"/>
  <path d="M300.8,878.7l2.3-4.6c-.6-1.3-2.7-3.7-4.1-3.5-1.6.3-3.4,3.7-2.6,5.4l4.5,2.7Z"/>
  <path d="M231.5,914.6c-3.8-.5-6.5.6-8.2,4.1,1.9.6,2.5-1.6,3.9-1.9,2.3-.5,4.7,1.1,7.3-1.4l-.4-10.1c-2.8,2.4-2.7,5.8-2.6,9.2Z"/>
  <path d="M900.4,870.6l-3.4,3.5,2.3,4.6c5.5-.7,6.5-6.4,1.1-8.1Z"/>
  <path d="M891.1,957.6c-.8-2.4-5-5.3-7.8-5-2.4,5.2,9.9,11.4,7.8,5Z"/>
  <path d="M673.4,932c.7-.9,3.3-5.5,2.6-6.1-9.3-2.7-8.3,13.3-2.6,6.1Z"/>
  <path d="M703.8,1143c1.6-.3,6.5-8.4,6.1-8.8-2.7-2.5-14.2,10.4-6.1,8.8Z"/>
  <path d="M497.9,1143.4c3.4-.7-.8-5.9-1.9-6.8-.6-.5-7.3-4.6-5.8-.9.6,1.5,5.6,8.2,7.7,7.7Z"/>
  <path d="M524.1,925.9c-.6.6,1.9,5.2,2.6,6.1,5.7,7.2,6.7-8.8-2.6-6.1Z"/>
  <path d="M674.7,905.2c4-3.6-4.6-5.8-6.9-4.9l1,6.1c1.8,0,4.5,0,5.9-1.3Z"/>
  <path d="M532.3,900.3c-9.5-.9-11,6.2-1,6.1l1-6.1Z"/>
  <path d="M373.1,1148l-2,5.7h7.1c.7-1.7,1-3.4,0-4.9l-5-.7Z"/>
  <polygon points="821.6 1149.2 821.9 1153.6 828.9 1153.7 826.9 1148 821.6 1149.2"/>
  <path d="M936.2,1079.8c-9.8,7.5,3.9,9.5,3.5,4.8l-3.5-4.8Z"/>
  <path d="M263.9,1079.8l-3.5,4.8c-.4,4.7,13.3,2.7,3.5-4.8Z"/>
  <path d="M508.7,1167c1.4,6.9,8.6,15.5,5.9,2.3l-5.9-2.3Z"/>
  <path d="M509.7,794.6v-5c-2.7-4.2-14.2,6.3,0,5Z"/>
  <path d="M697.5,792.1c-2.1-2.3-3.3-4.5-6.6-2.7l-.6,5.2c1.8.2,7.8.5,7.2-2.5Z"/>
  <path d="M685.2,1176.2c2.5,1.9,5.6-8,6.2-9.2l-5.9,2.3c-1.2,2.3-1.1,4.5-.3,6.9Z"/>
  <path d="M158.2,567.9c2.6.6,5.4-5.9,4.6-8.2-2.1-2.1-9.2,5.8-4.6,8.2Z"/>
  <path d="M1041.9,567.9c4.6-2.4-2.5-10.3-4.6-8.2-.8,2.3,2,8.8,4.6,8.2Z"/>
  <path d="M371.4,951.3c-.4-.5-2.4-8.8-5.4-5.8-2.1,2.1,3.3,4.9,4.1,5.9,1.6,1.9,1.7,4.9,5.1,5.4,1.1-3.8-2.7-4-3.8-5.4Z"/>
  <path d="M1088.6,640.7l.6-5.1-4.1-2.1c-3.4.9-.5,8.7,3.6,7.2Z"/>
  <path d="M115,633.5l-4.1,2.1.6,5.1c4,1.5,6.9-6.2,3.6-7.2Z"/>
  <path d="M834.1,945.4c-2.9-2.9-4.8,4.8-5.2,5.3-1.2,1.9-5.1,2-4.1,5.9,3.4-.5,3.5-3.5,5.1-5.4.8-1,6.2-3.8,4.1-5.9Z"/>
  <path d="M160.2,679.7c-1.7,0-8.2,6.1-4.1,8.2,2.6.5,7.9-8,4.1-8.2Z"/>
  <path d="M362.9,969.5c2.1,4.3,9.7-2,8.2-3.6-4-1.3-6.8-.9-8.2,3.6Z"/>
  <path d="M828.9,965.9c-1.5,1.6,6.1,7.8,8.2,3.6-1.4-4.5-4.2-4.8-8.2-3.6Z"/>
  <path d="M1039.9,679.7c-3.8.2,1.4,8.7,4.1,8.2,4.1-2.1-2.4-8.2-4.1-8.2Z"/>
  <path d="M20.6,645.9c-4.2-1.3-3.8,4.9-3.6,7.2,4.5,1.4,7.1-6.1,3.6-7.2Z"/>
  <path d="M1179.5,645.9c-3.5,1.1-.9,8.6,3.6,7.2.3-2.3.6-8.5-3.6-7.2Z"/>
  <path d="M1075.8,804.9c-2.9-1.1-1,8-1.5,9.2,5,0,5.5-7.7,1.5-9.2Z"/>
  <path d="M125.8,804.9c-5,0-5.5,7.7-1.5,9.2,2.9,1.1,1-8,1.5-9.2Z"/>
  <path d="M346,849l-.6-3.1c-1.9-1.4-7.6,2.1-7.2,5.1,2.9,0,5.9.6,7.7-2Z"/>
  <path d="M861.8,851c.5-3-5.3-6.5-7.2-5.1l-.6,3.1c1.8,2.6,4.8,2.1,7.7,2Z"/>
  <path d="M508.3,879.8h3.4s-1.1-7.2-1.1-7.2l-3.1.6c-1,1.4-1,6.2.7,6.6Z"/>
  <path d="M692.3,872.6l-3.1.5-.9,6.6,3.9-.2c1.2-1.3,1.1-6.3,0-7Z"/>
  <path d="M472.8,1103.4c3.5-1.6,1.1-6.4,3.1-9.2l-5.8-3-3.4,2.4,6.7,1.5-.5,8.3Z"/>
  <path d="M726.8,1095.1c2.1-2.2,4.1-1.7,6.7-1l-2.7-3-6.5,3,2.6,9.2v-8.3Z"/>
  <path d="M563.1,887.4c.8-2.7-3.5-6.2-5.2-4-1,1.9-.7,3.6.1,5.5l5.1-1.5Z"/>
  <path d="M642,888.9c1-2.2.8-3.9,0-6.1l-4.6,2c-1.8,3.6,1.6,4.7,4.6,4Z"/>
  <path d="M343,1062.5l-2.3,2.9,3.2,4.1c2.1-1.5,3.2-3.4,2.5-6l-3.4-1Z"/>
  <path d="M853.7,1063.5c-.7,2.6.4,4.5,2.5,6l3.2-4.1-2.3-2.9-3.4,1Z"/>
  <path d="M508.2,983.4c-2.8.5,0,8.2,1,8.2,4.1-1.5,2.5-8.9-1-8.2Z"/>
  <path d="M690.9,983.4c-3.5,2.6-3.5,5.7,0,8.2,1.1,0,4.4-8.5,0-8.2Z"/>
  <path d="M263.9,1095.2c-.4.4-.8.7-1.1,1.1,1.8,1.3,3.7,2.5,5.6,3.7l.2-.7-4.6-4.1Z"/>
  <path d="M936.2,1095.2l-2.8,3.7c1.3-.9,2.6-1.8,3.9-2.6-.4-.4-.8-.8-1.2-1Z"/>
  <path d="M1174.8,765.9c-1.5,0-3.2-.3-4.6,0-6.9,1.3,3.7,10.1,4.6,0Z"/>
  <path d="M29.8,765.9c-1.4-.3-3.1,0-4.6,0,.9,10.1,11.5,1.3,4.6,0Z"/>
  <path d="M383.6,920.9c-1.1,2.5-2.2,5.6,1.4,6,4.3-3.2,5.4-6.7-1.4-6Z"/>
  <path d="M816.5,920.9l-5,1.4,3.6,4.6c3.6-.5,2.5-3.5,1.4-6Z"/>
  <path d="M587.7,934.1l-.2-4.4c-3.5-4.5-6.5.3-3.8,4.3l3.9.2Z"/>
  <path d="M613.9,928l-1.5,6.1,3.9-.2c1.6-2.9,2-6.3-2.4-6Z"/>
  <path d="M1025,659.2l-2.1-3.6,1.9-.6-.9-2.5-4.1-.5c-.7,4.2.7,7,5.1,7.2Z"/>
  <path d="M486.1,1121.9c.6-3-3.4-5-3.9-6.9-.6-2.2,2.2-5.7-.1-6.4-3.6,6.7-1.8,9.3,4.1,13.3Z"/>
  <path d="M718.1,1108.5c-2.3.8.5,4.2-.1,6.4-.5,1.9-4.5,4-3.9,6.9,5.9-4,7.7-6.6,4.1-13.3Z"/>
  <path d="M990.6,1042.9c-3.9,3,3.2,5.1,1.5,9.2,3.9-1.2,2-9.9-1.5-9.2Z"/>
  <path d="M180.2,652l-5.1,1.6,2.1,2-2.1,3.6c4.5-.2,5.8-3,5.1-7.2Z"/>
  <path d="M209.5,1042.9c-3.5-.6-5.5,8.1-1.5,9.2-1.7-4.1,5.4-6.2,1.5-9.2Z"/>
  <path d="M1080.4,881.8c-2.2-.2-3.2,2.2-3.1,4.1,9.8,1.4,7.1-2.3,9.2-9.2l-8.2,1,2,4.1Z"/>
  <path d="M1064.7,887.2c-1.1-.8-4.7-2-6.2-2.5-1.5-.5-1.2-1.3-2.7.7l1.2,4.4,3.9.2-2,2,7.2-.5c1.7-.7-1-4.1-1.3-4.3Z"/>
  <path d="M1073.3,873.5l2.9,1,3.2-7.1c-4.3-.8-6.3,2-6.1,6.1Z"/>
  <path d="M119.7,881.8l2-4.1-8.2-1,2,8.8,7.2.5c.1-2-.9-4.3-3.1-4.1Z"/>
  <path d="M142.8,883.9c-7.6,2.7-15.8,9.1-1.6,8.2l-2-2,3.9-.2c1-2.2,2.1-4.4-.4-6Z"/>
  <path d="M120.7,867.5l3.2,7.1,2.9-1c.2-4.1-1.8-6.9-6.1-6.1Z"/>
</svg>