<?xml version="1.0" encoding="UTF-8"?>
<svg id="Layer_1" xmlns="http://www.w3.org/2000/svg" version="1.1" viewBox="0 0 1200 1200">
  <!-- Generator: Adobe Illustrator 29.0.0, SVG Export Plug-In . SVG Version: 2.1.0 Build 186)  -->
  <path d="M1035.7,1012.5c-.3.3-.6.6-.9,1,.4-.2.7-.5.9-1Z"/>
  <path d="M1182.9,743.5v-.2c-.1,0-.2.1-.2.2,0,0,.1,0,.2,0Z"/>
  <path d="M1164.7,758c-.4-1.6,3.9-3.9,4.5-5.4,1.1-2.5-.1-5.4.4-7.7.2-.7,3.2-.4.9-3.6-.8-1-2.1-.4-2.3-.6-3.3-3.1-5.5-5-8.9-8-2.9-2.5-3.1-6-7.4-5.8-7.4.4-1.4,14.5.5,18.4,2.3,4.5,5.2,8.6,9.7,11l-10.2,2.2c-9.5,3.5-8.9,15.2-5.6,23-17.3-3.5-14.5,8.7-3.6,16.4,6.7,4.7,9.1,3.4,14.8,5.4.9.3,1.8,3.4,4.8,2.8.8-1.1,1.4-1.9,2-2.5,4.3-11.8,8.1-23.7,11.7-35.8-3.1-4.5-5.7-7.8-11.5-10Z"/>
  <path d="M1144.2,853.1c.4-.8.7-1.5,1-2.3-.4,0-.8-.2-1.3-.4.4,1,.4,1.9.2,2.7Z"/>
  <path d="M1130.7,862.5c-2.8,1.8-6.2,6.1-8.9,7.6-4.1,2.3-9.8,2.8-13.3,6.7l-10.2-2.4,7.6-3.3,1.5-2.4c-3.7-1.2-8,2.1-11.1,1.6-1.2-.2-9-2.8-10.6-3.4-1.1-.4-1-2.6-4.4-2.5-2.6,0-3,2.1-4.2,2.4-1.5.3-10.9-3-14.9-2.7-.9,0-7.4,1.7-8.3,2.1-1.6.8-7.2,7.4-7.7,8.9-.6,2.1.2,4.4-.2,6.4-.6,2.9-2.6,6.3-2.8,9.4-.1,2.6,3.3,9.8,5.4,11.2.7.5,12.1,4.5,12.8,4.5,2.2,0,10.4-2,12.5-3.2,5.7-3.2,5.3-5.6,7.9-10.1.5-.9,1.7-1,2.3-2.1,2.5-4.7,3.4-13.9,10-14.8,1.2-.2,8.4,4.1,10,5l-5.8,1.6,4.1,2.9c-2.8.5-11.8-4.6-13.2-1.2-.7,1.7,0,1.7,1,2.3,2.1,1.3,9.6,2.9,10.2,3.9.5,7.5-8.5,5.6-13.8,7.1-6.9,2-6.1,5.2-9.9,9.1-3.4,3.5-9.8,9.3-13.6,12.9-3.5,3.2-9.4,5.9-12.6,9.4-2.7,2.9-3.1,6.7-5.3,9.2-.8.9-9.9,7.9-10.8,8.2-3.1,1-6.3,0-9.8,1-3.2.9-6.1,4.4-8,5.2-2.5,1.1.3-4.4-2.9-3.3-.9,4.2-.3,6.9-5.4,7.5-1.3-5.7-5.1-9.8-11.2-7.5-.3-1.6-.9-4.1-2.9-4.1-2.1.4-1.9,12.6-1,15.1.3,1,4.7,5.5,1,6.4-2.3.6-3.3-2.9-4.4-3.8-2.8-2.1-7.3-4.1-10.6-5.1-1.3-.4-3.2.2-4.2-.4-.5-.3-1-2.8-2.2-3-3.1-.4-1.2,6-5,4.8-1.7-.5-1.3-4.3-1.3-5.8h5.8c-1.1-2.5.5-4.7-.6-7.2-.8-1.8-3-2.9-3.9-4.4-1.2-2.2-.2-4.8-3.4-5.7l.4,4.1c-4.3,1.3-5.5-2.3-9.1-2.5-2.3,4.6,4,9.5,4.1,12,.1,3-2.8,4.6-.7,9.9,1,2.5,3.4,3,3.3,3.4,0,2.5-3.3,5.6-3.3,5.9-.4,1.6.2,3.5,0,5.2-1.3.3-.8-1.5-1.6-2.1-4-2.7-8.8,4.1-3,3.8,1.5,0,3.1-1.9,3.8-1.3,1.8,2,1.4,6.1,2.5,8.1.6,1.1,2.8,1.1,2.5,2.7-.7,3.4-7.9-1.7-9.9.4l-.4-3.3c-1.4-.1-5.9,2-7,2.9-2.4,2-10.8,9-12.5,11-5.5,6.9-9.9,10.8-15.8,17.1-1.9,2.1-5.5,8.2-7.5,9.1-4.1,1.8-10.2,1.2-15.9,4-5.2,2.6-9.9,8.8-15.6,8.5,3.2-2.9,10.7-6.9,5.8-11.6-8.8-1-9.6,7.4-15.4,11.2l2.1,4.2c-1.9.4-2.4-1.8-3.9-2.3-4-1.2-7.3.6-7.7,4.8l3.3.8-6.2,1.7c-.4-1.8,1.4-4.4,1-6.1,0-.5-6-7.3-6.4-7.5-2.1-1.2-13.3-2.3-16.1-2.1-13.4,1.1-18.9,9-17,22-.3,2.5-5.3-4.3-4.2-6.2h-3.3c-.3-1.9,1.7-2.3,2.3-4,.8-2.3,2.5-9.5,1.1-11.5-.2-.3-4.8-4.7-5-4.9-2.8-1.9-7.5-2.6-10.5-4.3-1.3-.7-1.4-2.4-2.4-2.7-1.2-.4-11.9,1.2-14,1.6l-.8-1.6,1.2-2.8-2.4-1.9c-5.6,1.6-4.5,4.4-6.2,7.9-.7,1.4-3.6,3.4-4.9,5.1-5.2,7.2-1.7,12.5,1.2,19.8-4.4-.7-7.6-3.5-12.4-2.5l5.8-6.6c-5.3-1.2-8.4-.8-12,3.3-.9,1-1,2.9-2.1,3.7-1,.6-2.7.5-3.9,1.1-5,2.3-1.4,8.1,1.4,10.9-2.4.2-4,2.7-4.1,5,2.7.7,1.2-2.1,2.4-2.9,1.5-1,6.7-.5,8.3.9-1.6,1.7-5.1,1.5-5,4.6,3.3.1,7.3,0,5.8-4.1l7.9,3.3c1.7-4.2,5.1-6,9.5-6.6-1.2-3-.6-5.2,0-8.3,7.1,5.5,14.3,8.3,22.8,3.3l1.3,2.5-6.5,1.8v4.1c-6.6-.8-12,3.5-18.3,1.6,1.1,5-5,8.8-9.5,6.6l-1.1,1.2.7,2.9c-7.1-1-13.5-4.9-20.5-6.4-5.1-1.1-8.8-.4-13.8-1.1-2.9-.4-6.7.6-8.3-.8-4-3.3-.7-4.1-.5-4.8,2.3-6.1-2.3-3.6-1.2-7.7,1-3.7,3.5-5.2,7.1-5.8l-3.3-.8c0-5.1,1.2-10.2.9-15.4-.2-3.3-2.1-8.3-2.2-10.7,0-2.3,2.5-4.5,2.1-7l-3.7,1.7c-4.8-7.3-10.4-11.2-18.9-6.7-1.3.7.5,3.2-2.2,2.5,1.3-4.5-1.6-25.4-6.3-26.3-4.8-.9-6.1,6.9-6.7,10.4-.2,1.2-1.1,9.2-1,9.6.4,1.3,2.3,1,3,1.6,2.1,1.7,2.7,7.5,9.2,6.6,1.7,1.2-1.3,6.5-1.4,8.7-.2,2.9,1.3,4.9.4,7.8-.7,2.4-2.1,1.1-3,2.1-2.3,2.7-1.9,10.6-1,14l-3.6,1.3-2-1.7c-2.3,7.6-2.7,12.5,1.6,19.6l-1.6,1.6,1.7.9-.9,4.5-2.5-2.5c.8,3.2,1,4.6-1,7.4l-3.2-.7c-.8,2.2,1.5,1.3,1.7,2.2.8,4.1,0,8.1,3.3,12.2-.3,1.4-14.8,6.1-16.9,12.1-2.5,7,8.6,3.6,12,2,1.2-.6,6-4.3,6.6-3.7-.9,2.4,2.5,3.3,2.6,3.9.2,1.4-1.4,6.1,0,8.4.3.4,8.2,4.1,8.7,4.1,3.1.4,9.5-2,11.4-2,1.1,0,2.5,1.8,4.1,1.3,1.4-.4.9-2.6,1.9-3.4.9-.7,11.3-3.7,12.7-3.7,1.6,0,3.8,3,5.8,3.3-.3.5-5,3.3-6.1,3.9-11,5.6-21.2,3.2-33.3,3.1-1.6,0-4,.9-4.8.7-1.1-.2-2-2.2-2.6-2.2-.4,0-6.7,3.4-7,3.7-1.2.9-4,5.8-4,7.3,0,1.2,1.2,2.3,1,4-.2,2.3-2.8,4.1-1.7,6.5.2.3,4.6,5.7,4.9,5.9,1.8,1.1,6.4,1.6,9,2.5.6.2.6,1.6,1.1,1.6,3.3,0,4.4.6,6.5.7,1.7,0,9.9-1.1,11.4-1.8.3-.2,5.9-3.9,6.2-4.2,2.6-2.5,4.8-9.1,6.4-10.6,1.2-1,4-1.2,5-3.3,1.9,1.4,1.6,4.1,4.6,3.3,1.1-6.5-5.4-8.7-1.2-14.9,1.6-2.4,7.8-3.4,7.7-8,6.5.2,13,1.4,19.4.4,2.7-.4,9.8-2.3,12.3-3.3.7-.3,4.7-4.7,4.8-5.7h1.6c0,0,.5,1.7.5,1.7l2.1-1.3c-1.9-2.6-1.8-5.3.4-7.8,3.1,1.2,5,4.1,7.9,3.7l.8.8-.8,3.3,5,.4-8.7,5.9-3.4.6c-2.7,14,13.5,2.2,17.4,2.5.4,0,2.5,5.2,6.3,3.4-1.1-1.6-2-2.2-.8-4.1l-3.3-.4c4.1-2.1,7-5,10.5-7.7,2.9-2.2,4-3,6.9-5.5,8.7-7.7,4.8-.9,6.7.5,2.2-.6,4.3-1.6,6.4-2.3,4.5-1.4,8.2-1.8,12.9-2.9,2.1-.5,4.1-2,6-2.2,2.3-.3,6.7,1,7,.8.2-.2-.5-1.9.5-2.6.3-.2,6.2-2.5,6.5-2.5.5,0,.5,1.4,1,1.7,4.9,2.6,16.2,5.5,13.5-3.3l4.1-1.7c-1.7,5.8,1.3,9.2,7.2,9.6.7,0,5.5-1.5,4.4.7-1.8,2.2-5.8,3.1-7.5,4.9-2.3,2.6-.3,6-4.5,6.2v1.7c7.6,2.4,16.6,5.6,24.2,1,3.3-2,3-5.3,1.3-8.3-.8-1.3-1.7-1.4-2.4-2.2-.4-.5,0-1.8-.3-2-.6-.6-6,.3-6.5-2.6l12.4.8-1.7-4.1c8.6-2,16.5-7.9,18.2-16.9-2.5-1.7-3.5-4.9-6.1-6.5-4.4-2.8-10.5-3.4-15.5-4.7.2-2.3,4.4-3.1,4.8-3.5.5-.6,0-2.2.6-3.1,5-8.3,10.5-7.6,18.1-10.9,8.6-3.7,17.3-8.3,25.7-12.4,3.9-1.9,6.3-5.8,10.5-5.7-2.7,3.3-6.6,4.5-8.1,8.9-.8,2.5-1.9,9.3.8,10.8,1,.6,8.3,1.1,10,.8,3.8-.6,7.6-3.9,11-5.6l5.4,13.6c-12.3,2.5-.8,11.9.8.4,2.8,3.6,7.2-1.5,8.7-1.4.6,0,2.6,1.5,4.7,2.3,1.2-1.1,2.5-2.2,3.7-3.3v-1.7c-.1,0-4.7-2.1-4.7-2.1.7-2.7,2.6-4.6,3.5-7.3,1-3.1,1-15.5,4.4-14.6,2.2,2.4,2.6,5.3,6.6,4.9,1.9-.2,6.6-3.5,7.5-5,.3-.6,2.9-11.1,2.9-12.1.1-3.5-1.8-8.4-2.4-11.9,6.7-2.4,2.3,10.9,5.4,11.6,3.7.8,1-6.3,1.2-6.6,2.6,2.5,4.3,1.3,7.4.8l4.2,9.1c0,0,.2,0,.3-.1.3-.3.6-.6.9-1,1.6-3.1.3-11.6-.6-12.8-4.5-2.2-9.8-4.4-14.2-1.1l-1.3-4.1c4.6.9,4.6-2.2,6.6-3.7,2.5-1.8,6.1-1.7,8.7-4.5,3.4-3.6,7.2-17.1,9.8-19.2,1.4-1.2,7.2-2,9.9-3.4,3.8-2,8.9-8.8,11.2-9.7,9.9-4,13.8,1.7,23.4-8.8,2.6-2.9,5.5-6.4,8.3-9.8,17.2-25.5,32.5-52.4,45.7-80.4-2.6,3.5-9.4,5.4-12.5,7.4Z"/>
  <path d="M1143.4,833c-1,3.7,5.2,2.5,7.9,4.1,1.2-2.7,2.3-5.5,3.5-8.3-5.3-.2-10.5.8-11.4,4.2Z"/>
  <path d="M57.4,833c-1-3.6-6.7-4.4-12.2-4.2,1.2,2.9,2.4,5.8,3.7,8.7,2.1-2.3,9.6-.5,8.5-4.5Z"/>
  <path d="M219.3,1050.8c0,5.7,7.4,8.7,5.9,1.3l-5.1-1.8,5.4-13.6c3.3,1.7,7.2,5,11,5.6,1.6.3,8.9-.3,10-.8,2.7-1.5,1.6-8.3.8-10.8-1.5-4.4-5.4-5.6-8.1-8.9,4.2-.2,6.6,3.8,10.5,5.7,8.4,4.1,17.1,8.7,25.7,12.4,7.6,3.3,13.1,2.6,18.1,10.9.5.9.2,2.5.6,3.1.3.4,4.6,1.1,4.8,3.5-5,1.3-11.1,2-15.5,4.7-2.6,1.6-3.6,4.9-6.1,6.5,1.8,9,9.6,14.9,18.2,16.9l-1.7,4.1,12.4-.8c-.6,2.9-5.9,2.1-6.5,2.6-.3.2,0,1.6-.3,2-.6.7-1.7.8-2.1,1.6-1.6,2.7-2.7,6.4.4,8.5,7.2,4.9,17.2,1.7,24.8-.7v-1.7c-4.3-.2-2.2-3.6-4.5-6.2-1.7-1.9-5.7-2.8-7.5-4.9-1.1-2.2,3.7-.7,4.4-.7,5.9-.4,8.9-3.8,7.2-9.6l4.1,1.7c-2.7,8.8,8.7,5.8,13.5,3.3.6-.3.5-1.7,1-1.7.3,0,6.2,2.2,6.5,2.5.9.7.3,2.4.5,2.6.2.3,4.7-1.1,7-.8,5.2.8,14,3.6,18.9,5.1,2.1.7,4.2,1.7,6.4,2.3.5-6.9,3.3-3.4,6.7-.5,2.9,2.6,4,3.3,6.9,5.5,3.5,2.7,6.4,5.7,10.5,7.7l-3.3.4c1.2,2,.2,2.5-.8,4.1,3.8,1.9,5.9-3.3,6.3-3.4,3.8-.3,20.1,11.5,17.4-2.5l-3.4-.6-8.7-5.9,5-.4-.8-3.3.8-.8c2.9.4,4.8-2.5,7.9-3.7,2.2,2.5,2.3,5.2.4,7.8l2.1,1.3.5-1.6h1.6c.1.9,4.2,5.4,4.8,5.6,2.5,1,9.6,2.9,12.3,3.3,6.5,1,13-.2,19.4-.4,0,4.5,6.1,5.6,7.7,8,4.2,6.2-2.3,8.4-1.2,14.9,3,.8,2.6-1.9,4.6-3.3,1,2,3.8,2.2,5,3.3,1.6,1.4,3.8,8,6.4,10.6.2.2,5.3,3.8,5.6,3.9,1.6.9,11,2.2,12.6,2,2.8-.4,2.4-.6,5.9-.7.5,0,.5-1.4,1.1-1.6,2.7-1,7.5-1.4,9.4-2.9.6-.5,4.9-6.1,4.9-6.7,0-1.5-1.9-3.5-2.1-5.3-.2-1.8,1.3-3,.9-5.1-.2-1-3-5.5-3.9-6.1-.3-.2-6.6-3.7-7-3.7-.6,0-1.5,2-2.6,2.2-.8.2-3.2-.7-4.8-.7-12.1,0-22.4,2.5-33.3-3.1-1-.5-5.8-3.3-6.1-3.9,2.1-.4,4.2-3.3,5.8-3.3,1.3,0,11.8,3,12.7,3.7,1,.7.5,3,1.9,3.4,1.5.5,3-1.3,4.1-1.3,2,0,8.3,2.4,11.4,2,.5,0,8.5-3.7,8.7-4.1,1.5-2.3-.1-7,0-8.4,0-.6,3.5-1.4,2.6-3.9.6-.6,5.4,3.2,6.6,3.7,3.4,1.5,14.5,5,12-2-2.2-6-16.6-10.7-16.9-12.1,3.3-4.1,2.5-8.1,3.3-12.2.2-.8,2.5,0,1.7-2.2l-3.2.7c-1.9-2.8-1.7-4.2-1-7.4l-2.5,2.5-.9-4.5,1.7-1.3-1.7-.4c.7-2.7,3.4-6.9,3.7-9.4.5-3.7-2-7.2-2-10.9l-1.3,1.7-4.1-.8c.5-3.7,1.4-11.5-1.1-14.4-.7-.8-2.1-.3-2.6-1-1.8-2.4.1-5.6,0-8.2,0-2.6-2.9-7.6-1.8-9.1,1.8-1,3.9-.7,5.8-1.8,2.5-1.5,2.6-4.3,3.6-5.1.7-.6,2.6-.2,3-1.6.1-.5-.8-8.4-1-9.6-.6-3.4-1.9-11.3-6.7-10.4-4.7.9-7.7,21.8-6.3,26.3-2.7.7-.9-1.8-2.2-2.5-8.6-4.6-14.2-.7-18.9,6.7l-3.7-1.7c-.4,2.5,2.1,4.8,2.1,7,0,2.4-1.9,7.4-2.2,10.7-.4,5.2.8,10.2.9,15.4l-3.3.8c3.7.5,6.2,2,7.1,5.8,1.1,4.1-3.6,1.6-1.2,7.7.2.6,3.5,1.5-.5,4.8-1.6,1.3-5.4.3-8.3.8-5,.7-8.7,0-13.8,1.1-7.1,1.5-13.5,5.4-20.5,6.4l.7-2.9c-1.3-2.5-3.7,0-5.9-.5-1.9-.5-6.3-4.8-4.7-7.3-6.3,1.8-11.7-2.5-18.2-1.6v-4.1c0,0-6.6-1.8-6.6-1.8l1.3-2.5c8.5,5,15.6,2.2,22.8-3.3.7,3,1.2,5.3,0,8.3,4.5.6,7.8,2.4,9.5,6.6l7.9-3.3.5,3.4,5.3.8c.2-3.1-3.4-2.9-5-4.6,1.6-1.3,6.8-1.9,8.3-.9,1.2.8-.2,3.6,2.4,2.9,0-2.3-1.7-4.7-4.1-5,2.8-2.8,6.4-8.6,1.4-10.9-1.2-.6-2.9-.4-3.9-1.1-1.2-.8-1.3-2.7-2.1-3.7-3.6-4.1-6.7-4.5-12-3.3l5.8,6.6c-4.8-1-8,1.7-12.4,2.5,2.9-7.3,6.4-12.6,1.2-19.8-1.2-1.7-4.2-3.7-4.9-5.1-1.7-3.5-.6-6.3-6.2-7.9l-2.4,1.9,1.2,2.8c.9,2.4-2.4.8-3.3.8-2.1,0-11-.9-11.5-.7-1,.3-1.1,2-2.4,2.7-3,1.7-7.8,2.4-10.5,4.3-.3.2-4.8,4.6-5,4.9-1.4,1.9.3,9.2,1.1,11.5.6,1.6,2.5,2,2.3,3.9h-3.3s-2.5,6.6-2.5,6.6l-1.6-.4c1.9-13-3.6-20.9-17-22-2.8-.2-14,.9-16.1,2.1-.4.2-6.3,7.1-6.4,7.5-.3,1.7,1.5,4.3,1,6.1l-6.2-1.7,3.3-.8c-.4-4.2-3.7-6-7.7-4.8-1.5.5-2,2.7-3.9,2.3l2.1-4.2c-5.8-3.8-6.6-12.2-15.4-11.2-4.9,4.7,2.6,8.8,5.8,11.6-5.7.3-10.3-5.9-15.6-8.5-5.7-2.8-11.8-2.2-15.9-4-2-.9-5.6-7-7.5-9.1-5.8-6.4-10.2-10.2-15.8-17.1-1.6-2-10-9-12.5-11-1.1-.9-5.6-3.1-7-2.9l-.4,3.3c-2-2.2-9.2,3-9.9-.4-.3-1.6,1.8-1.5,2.5-2.7,1-1.8.9-6.9,2.5-8.1,11,4.4,5.6-5.7.8-2.5-.8.5-.3,2.3-1.6,2.1,1.9-4.5-3.3-7.7-3.4-11.1,0-.3,2.4-.9,3.3-3.4,2.1-5.3-.9-6.9-.7-9.9.1-2.5,6.3-7.3,4.1-12-3.6.2-4.8,3.8-9.1,2.5l.4-4.1c-3.2,1-2.2,3.6-3.4,5.7-.9,1.6-3.1,2.6-3.9,4.4-1.1,2.5.5,4.7-.6,7.2h5.8c0,1.5.5,5.3-1.3,5.8-3.4,1.1-2.5-3.1-3-4-2-2.9-3.9,2-4.2,2.1-1,.5-2.9,0-4.2.4-3.4,1-7.8,3-10.6,5.1-1.1.8-2.1,4.3-4.4,3.8-3.7-.9.6-5.4,1-6.4.9-2.5,1-14.7-1-15.1-2,0-2.6,2.6-2.9,4.1-6.1-2.3-9.8,1.8-11.2,7.5-5.1-.6-4.4-3.3-5.4-7.5-3.1-1.1-.4,4.4-2.9,3.3-1.9-.8-4.8-4.3-8-5.2-3.4-1-6.7,0-9.8-1-.9-.3-10-7.3-10.8-8.2-2.2-2.5-2.6-6.3-5.3-9.2-3.2-3.4-9.1-6.1-12.6-9.4-3.9-3.6-10.2-9.4-13.6-12.9-3.8-3.9-3-7.2-9.9-9.1-5.3-1.5-14.2.4-13.8-7.1.6-.9,8.2-2.6,10.2-3.9,1-.6,1.8-.5,1-2.3-1.4-3.4-10.4,1.7-13.2,1.2l4.1-2.9-5.8-1.6c1.7-1,8.8-5.2,10-5,6.7.9,7.6,10,10,14.8.5,1,1.7,1.2,2.3,2.1,2.6,4.6,2.2,6.9,7.9,10.1,2.1,1.2,10.3,3.2,12.5,3.2.7,0,12.1-4.1,12.8-4.5,2.1-1.5,5.5-8.6,5.4-11.2-.2-3.2-2.2-6.5-2.8-9.4-.4-2,.4-4.3-.2-6.4-.4-1.5-6-8.1-7.7-8.9-.9-.4-7.4-2-8.3-2.1-3.9-.2-13.3,3.1-14.9,2.7-1.2-.3-1.6-2.3-4.2-2.4-3.4,0-3.3,2-4.4,2.5-1.6.6-9.4,3.2-10.6,3.4-3.1.4-7.4-2.9-11.1-1.6l1.5,2.4,7.6,3.3-10.2,2.4c-3.5-3.9-9.2-4.4-13.3-6.7-2.7-1.5-6.1-5.8-8.9-7.6-4.3-2.8-15.6-5.4-13.2-12.1-.9.5-1.5.5-2.1.4,12.9,27.9,27.8,54.7,44.6,80.1,4.1,4.6,8.3,10.1,12.2,14.4,9.6,10.5,13.5,4.8,23.4,8.8,2.2.9,7.3,7.7,11.2,9.7,2.6,1.4,8.4,2.2,9.9,3.4,2.6,2.1,6.5,15.5,9.8,19.2,2.7,2.8,6.2,2.7,8.7,4.5,2.1,1.5,2.1,4.6,6.6,3.7l-1.3,4.1c-4.5-3.3-9.8-1.1-14.2,1.1-1.1,1.3-2.6,13.1.6,13.8.3-3.7,4.5-5.2,4.2-9.1,3.1.4,4.8,1.7,7.4-.8.2.3-2.5,7.4,1.2,6.6,2.1-.4,1-9,2-11.1l3.4-.5c-.6,3.6-2.5,8.4-2.4,11.9,0,.9,2.6,11.5,2.9,12.1.8,1.5,5.6,4.8,7.5,5,4,.4,4.4-2.5,6.6-4.9,3.4-.8,3.4,11.5,4.4,14.6.9,2.7,2.7,4.6,3.5,7.3l-4.6,2.1-.2,2.4c1,.9,2.1,1.8,3.2,2.8,2.4-.6,4.7-2.4,5.3-2.4,1.5,0,5.9,5,8.7,1.4Z"/>
  <path d="M41.3,805.6c4.3-2.4,3.5-1.4,8.1-2.9,6.7-2.2,21.3-11.9,16-20.3-3.6-2.1-7.1-2-11-.8,3.4-7.8,4-19.5-5.6-23l-10.2-2.2c4.5-2.4,7.5-6.5,9.7-11,1.7-3.3,6.1-14.7,3.3-17.4-5.9-3.5-7.2,2.2-11,5.6-2.7,2.4-7.1,5.4-9.5,7.2-4.1,3-.1,3.7,0,4.2.5,2.1-.5,4.9.2,7.1.6,2,5.9,4.5,4.4,6.4-6.1,1.7-8.4,5.8-11.7,10.5,3.3,11.4,7,22.6,10.9,33.6,1.7,1,1.9,5.5,6.2,3.1Z"/>
  <path d="M566,972.9c3.5-2.8,6.7-1.7,9.5-2.9,1.7-.7,3-4,4.7-5.3,4.4-3.3,7.5-3.4,11.8-8.9.6-.8.8-2.7,1-2.8.5-.4,7.1,2.9,6.6-.8h1.2c.5,3.7,6.4.3,7,.8.1.1.3,2,1,2.8,4.3,5.5,7.4,5.6,11.8,8.9,1.6,1.2,2.9,4.5,4.7,5.3,2.8,1.2,6,.1,9.5,2.9,2.1,1.6,2.8,4.7,5.4,5.8-1.1-6.1-7-11.3-8.9-17.2-3.4-10.7-.9-22.6-8.6-32.8-3.6-4.7-7.9-6.5-13.5-7.9-.3,0-4.3,5-4.5,5.4-.4,1.5-.4,14-.2,16.4.2,2.1.9,4.2,1.7,6.2-4.6,1.5-7,1.5-11.6,0,1.6-3.8,2.7-20,1.2-23.2-.1-.3-3.9-4.8-4.2-4.9-14,2.7-17.5,13.7-20,26.2-.9,4.7-.7,10-2.2,14.4-1.9,5.9-7.8,11.1-8.9,17.2,2.6-1.1,3.3-4.2,5.4-5.8Z"/>
  <path d="M12.2,668.4c1.1-1.9,6-12,6.7-12.5.3-.2,1.3.6,1.8.4,2.9-1,4.7-6.2,3.5-8.8-.5-1.1-2.2-1.8-3-3.7-2-5-.6-4.3-4-9.4-.7-1-2.2-4.7-2.7-5-.6-.4-6.3,0-7.4.3-2.6.8-4.4,3-6.1,5.3,1,16.7,2.6,33.3,4.9,49.6.3-4.9.8-9.4,3.9-14.3.6-.9,1.9-1.2,2.4-2Z"/>
  <path d="M1186.4,629.4c-.5.3-2,4-2.7,5-3.5,5.1-2.1,4.4-4,9.4-1.5,3.8-5.8,3.9-2.1,10.2,2.1,3.5,4,1.7,4.4,1.9,1,.6,10.9,17.8,11.3,18.9.7,2.1,1.1,4.1,1.3,6.2,2.1-15.5,3.6-31.3,4.5-47.2-.5-.7-1.1-1.4-1.5-1.8-2-1.8-8.9-3.9-11.2-2.6Z"/>
  <path d="M796.9,975.9c-1.6,3.4-1,6.2-1.8,8.8-.3,1.1-6,2.9-4.1,7.2h-4.1c-.7,2.7,3.9,5.8,3.9,7.9,0,2.5-6,5.4-5.5,8.7,3.9-.8,5.7-4.9,7.8-6.6,10.4-8.6,17.2-6.7,28.6-11.2,5.9-2.3,12-7.1,14.2-13.2.4-1.2,1-10.3.5-11-.2-.3-4.6-3.5-5-3.7-3.1-1.4-4.3.2-6.8.2-12.2.2-21.9.5-27.7,12.9Z"/>
  <path d="M414,992h-4.1c1.9-4.4-3.8-6.1-4.1-7.2-.8-2.6-.2-5.5-1.8-8.8-.3-.7-4.7-7.4-5.1-7.7-1.1-1.1-9.4-4.7-11.2-5-1.7-.3-15.9-1.1-17-.9-.9.2-6.3,4.2-6.4,4.6-1.3,4.5,1.5,13.2,4.5,16.8,8.7,10.5,24.4,7.7,34.1,14.3,2.3,1.6,5.6,5.7,7.8,7.5.6.5,4.7,3.2,4.9,2.9.5-3.3-5.5-6.2-5.5-8.7,0-2.1,4.6-5.1,3.9-7.9Z"/>
  <path d="M825.8,1152.3c-3,3.7-9.6,5.9-12.4,8.3-.2.2-.4.4-.6.6,5.5-2.1,10.9-4.2,16.3-6.5l1.7-9.5c-3.2,1.1-3.1,4.9-4.9,7.1Z"/>
  <path d="M375.5,1152.7c-2.2-2.3-2.1-6.1-5.4-7.5l1.7,9.9c5.5,2.2,11,4.4,16.5,6.5-.1-.2-.3-.4-.4-.6-1.3-1.6-9.6-5.3-12.4-8.3Z"/>
  <path d="M270.4,892.8c-2.2-1.4-18.4-1.3-20.1.6-4,4.6,5.1,9.2,8.7,9.6-1.1,2-1,5.5-1.7,7.2-.5,1.1-2.3,1.1-2.9,3.1-1.4,4.2-1.2,11.4-3.1,16-.8,1.9-3.4,4-3.9,6.4,1.8,1.4,7.1-5.9,8.7-6.6l2.5,2.5.8-1.7c13.3,13.4,19.8-8.8,19.5-19.4-.2-9.2-4-10.6-8.5-17.6Z"/>
  <path d="M953.4,935.7c-.5-2.4-3.1-4.5-3.9-6.4-1.9-4.6-1.7-11.8-3.1-16-.7-1.9-2.4-2-2.9-3.1-.8-1.7-.8-5.6-1.7-7.6,4.3.9,13.3-6.2,8.3-9.5-2.1-1.4-18.1-1.6-20,.2-.6.5-7,9.4-7.2,10-3,10.9,2.4,41.8,18.5,26.7l.8,1.7,2.5-2.5c1.6.8,6.9,8,8.7,6.6Z"/>
  <path d="M664.6,934c-.6.8-.3,2.4-.9,3.2-1,1.5-2.3,2.3-3.3,4.2-4.8,9-1.2,17.9,7.5,8.3l1.7,1.7c5.5-2.7,13.6-1.1,17.5-7,1.9-2.8,3-6.1-.2-8.7-5.8-4.7-10.2-1.4-15.6,1.5-1.2-.3-3.3-8.2-6.7-3.3Z"/>
  <path d="M530.5,951.4l1.3-1.4,1.1-.2c6.1,7.1,11.4,4.9,9-4.8-1-3.9-3-4.9-4.8-7.7-1.2-1.8,0-4.9-4.6-4.6l-2.9,4.6c-5.4-2.2-5.9-5.2-12.2-3.1-10.4,3.5-3.7,13.1,3.7,15,3.4.9,6.6,0,9.5,2.1Z"/>
  <path d="M834.1,1110.4c-.2-2-.5-3.8-2.5-4.5l2.5-6.2-6.6,3.3c.7-1.1-3.1-5.4-3.5-5.6-1.3-.7-4.1-.4-5.2.6-1.2,1.2-.3,2.9-.8,4.1-.5,1-1.8,1.8-2.5,3.4-2.5,6.5-2.3,17.1,5.9,19.1,7.4-1.8,10.2-8.7,8.6-15.7l4.1,1.7Z"/>
  <path d="M383,1102.1c-.4-1,.1-2.1-.2-3-2.1-4.9-9.4-.2-9.3,3.9l-6.6-3.3,2.5,6.2c-2,.7-2.3,2.5-2.5,4.5l4.1-1.7c-1.6,7.1,1.3,14,8.6,15.7,8.2-2,8.4-12.7,5.9-19.1-.6-1.6-2-2.3-2.5-3.4Z"/>
  <path d="M154.2,1001.5c.4.5.9,1,1.3,1.4-.1-.6-.6-1.1-1.3-1.4Z"/>
  <path d="M148.9,715.9c-2.2,7.3,1.5,14.5,9.4,15.3,7.7.7,13.9-10.6,11-15.6-.4-.7-8.3-5.7-9.5-5.8-4.7,2.1-9.3.9-10.9,6.1Z"/>
  <path d="M1050.1,712.3c-5.6,0-6.6-4.2-12.1-1.3-.6.3-6.3,4.3-6.5,4.6-.7,1.2,0,4.2.2,5.7,3.6,19.7,29.3,6.5,18.5-9Z"/>
  <path d="M998.1,918.3c.1-6.1,0-13.2-3.7-18.3l-1-.5c-4,1-7.3-.3-10.2,3.1l-1.7-2.5,4.1,12.4.8-3.3h2.8c0,.1,1.2,1.4,1.2,1.4-.5,8.9,2.1,17.3,3.4,26h2.5c.8-5.1,2.3-8.7.9-14l3.2-.9v-5.8s-2.5,2.5-2.5,2.5Z"/>
  <path d="M215.1,912.5l4.1-12.4-1.7,2.5c-2.9-3.4-6.3-2.2-10.2-3.1-4,.7-5.2,15.5-4.7,18.9l-2.5-2.1v5.3s3.4,1.4,3.4,1.4c-1.9,5.1.2,8.6.8,13.6h2.5c1.3-8.7,4-17.1,3.4-26l1.2-1.3h2.8c0-.1.8,3.2.8,3.2Z"/>
  <path d="M540.8,1069.9c-.4,2.3-2,4.8.4,6.6l.4-3.3c12.6,3.7,20.9-15.6,5-15.7,2.3-3.6-2.2-5.9-5.3-4.9-2,.7-2.2,5,.3,5.3-1.3,2.1-4.3,1.6-5.8,2.5-3.8,2.5,0,11.5,4.9,9.5Z"/>
  <path d="M659.2,1057.8c-.3-.7,1.2-.2,1.4-.6,2.9-4.6-4.6-6.8-7.1-2.7l.7,2.8c-16,0-7.5,19.5,5,15.7l-.8,3.3c4.5.3,1.3-6.4,1.7-6.6,4.8,1.9,8.5-6.2,5.4-9.1-1.5-1.4-4.8-.7-6.2-2.9Z"/>
  <path d="M258.2,818.5c4.1-3.8,4.3-7.3-.3-10.8-6.1-4.7-12.9-2.4-16.1,4.4,1.9,9.3,8.7,13.5,16.4,6.4Z"/>
  <path d="M948.9,822.2c5.6.8,11.9-7.3,9.3-11.9-3.4-6.1-13-7-16.9-1.1-2.6,3.8-2.5,5.5.9,8.8.9.9,5.6,4,6.7,4.2Z"/>
  <path d="M594,1107.8c-.6-.5-.9-4.5-2.1-5.4-1.8-1.5-8.3-2.9-10.5-1.1-.6-3.3-5.3-4.9-8.2-4.4-9.6,1.5-3.9,8.4,2.9,9.3,1.2.1,3.3-.9,3.5-.7.2.1.3,2.6,1.3,4.1,4.7,7.2,8.3.5,12.5,0,1.9-.2.4,2.5,2.8,1.7.8-4.6-1.4-2.7-2.3-3.5Z"/>
  <path d="M624.7,1106.1c2.7-.3,7.5-2.3,8-5.4.8-5.3-12.6-5.1-13.2.6-2.2-1.8-8.7-.3-10.5,1.1-1.8,1.4-.6,6.5-4.2,5.7v3.2c2.3.8.8-1.9,2.7-1.7,3.4.4,4.9,4.2,8.8,3,4.5-1.4,4.6-6.8,4.9-7.1.2-.2,2.4.8,3.5.7Z"/>
  <path d="M1054.8,695.6c2,1.1,11.7,3.8,13.5,2.2,2.9-2.4-4.7-12.1-6.9-13.8-5.8-4.4-15.9-2.8-12.3,5.7.2.4,5.3,5.6,5.7,5.9Z"/>
  <path d="M151.7,689.7c3.6-8.5-6.5-10.1-12.3-5.7-2.3,1.7-9.8,11.4-6.9,13.8,1.8,1.5,11.5-1.1,13.5-2.2.4-.3,5.6-5.5,5.7-5.9Z"/>
  <path d="M515.2,1158.2c-4.7,8.1,12.6,14.6,18.9,11l.8-7.2c-4.7-3.5-15.1-11.6-19.7-3.7Z"/>
  <path d="M684.1,1156.4c-6.7-4.8-12.8,2.4-18.1,5.5l.8,7.2c7,4.8,26.8-5.9,17.3-12.7Z"/>
  <path d="M587.2,1075.2c0-5.3-7-20.1-11.9-11.8-4.9,8.4,2.4,12.6,3.5,20.5l2.4-.9-.8-1.6,4.9.8c.6-2.3,1.8-4.5,1.8-7Z"/>
  <path d="M621.9,1083.9c1-7.4,8.9-13.4,3.3-21-5.3-7.1-11.6,7.5-11.6,12.3,0,2.5,1.2,4.6,1.8,7l4.9-.8-.8,1.6,2.4.9Z"/>
  <path d="M180.3,1017.7l-3.3.8v-4.1c-.6-.6-3.8,1.4-7.1,4,3,3.1,6.1,6.2,9.2,9.3,1-3.6,1.4-7.9,1.1-10Z"/>
  <path d="M1023.8,1018.5l-3.3-.8c-.4,1.5,0,5.7,1,9.3,3.1-3,6.1-6.1,9.1-9.1-2.3-1.8-4.5-3.2-5.5-3.5-2.4-.7-.7,3.5-1.2,4.1Z"/>
  <path d="M339,1024.3c-.7.1-.2-.8-.7-1.3-8.7-8-17.6-1.3-9.6,5.8,1.3,1.1,9.4,3.8,10.3,3.6,1.1-.2,1.6-4.8,6.2-2.3,3.4-5.9-2.2-12.2-6.2-5.8Z"/>
  <path d="M861.8,1032.4c.4,0,6.5-1.5,7.3-1.7,4.2-1.4,9.1-8.6,3.9-10.9-3.4-1.5-9.7,1-10.8,4.5-4.8-6.1-9.9-.4-6.6,5.8,4.5-2.5,5.1,2.1,6.2,2.3Z"/>
  <path d="M985.2,794.1c5.6-.9,5.3-21.9-3.2-21.5-4.1,4.2-5.3,22.9,3.2,21.5Z"/>
  <path d="M215.6,794.1c3.1.5,5.7-2.6,6.1-5.5.4-2.6,0-16.3-3.5-16-8.2.7-7.9,20.7-2.6,21.5Z"/>
  <path d="M803,878.5c-.5-1.6-2.4-3.6-4.2-3.7-2.4-.2-8.6,3.4-9.9,5.5-8,13.3,18,10.6,14.1-1.8Z"/>
  <path d="M411.9,880.3c-1.3-2.1-7.5-5.7-9.9-5.5-1.7.1-3.6,2.1-4.2,3.7-3.9,12.3,22.1,15,14.1,1.8Z"/>
  <path d="M549.5,948.9c-.2.8,1.6,9.1,2.2,9.8,3.4,3.6,13.3-4.8,9.6-12.4-1.4-2.9-6.2-4.7-8.7-2.9-.3.2-2.9,5.3-3,5.6Z"/>
  <path d="M649.4,958.3c.3-.5,2-7.7,2-8.5,0-.4-2.8-6.3-3.1-6.5-1.5-1.1-5.3-.6-6.9.6-8.7,6.6,4.6,19.7,8,14.4Z"/>
  <path d="M238.1,1071c-2.3-2.4-6.3-1.5-8.9.8,3.7,2.9,7.5,5.8,11.3,8.7.2-.6.2-1.1.2-1.8,0-1.6-1.5-6.5-2.6-7.7Z"/>
  <path d="M963.5,1070.4c-.2,0-2.3,2.9-2.3,3-1,2.7-1.1,4.7-.8,6.3,3.7-2.8,7.3-5.6,10.9-8.4-2.1-1.7-5.2-2.1-7.8-.9Z"/>
  <path d="M1138.2,679.1c-1.7,3.8,5.7,21.3,10.5,16.3,4-4.2-1.3-10.8-1.8-13.8-.2-1,1.2-5.8-1.3-4.7-.4.2-.9,1.3-1.6,1.6-1,.4-4.2-.4-5.7.6Z"/>
  <path d="M56.9,678.5c-.7-.3-1.2-1.4-1.6-1.6-2.4-1.1-1.1,3.7-1.3,4.7-.6,3.7-6,8.9-1.5,14,5.6,3.8,11.9-14.4,10.1-16.5-1.5-1-4.7-.2-5.7-.6Z"/>
  <path d="M539.9,1120c3.9,3.4,5.2,2.5,9.6,2.5,1.8,0,2,2.1,4.9-2.1l1.2,1.6c-.2-9.3-9.3-19.2-9.9-4.1l-4.1-1.7,3.3-4.1c-5.1.5-10.3,3.2-5,7.9Z"/>
  <path d="M645.2,1122l1.2-1.6c2.9,4.2,3.1,2.1,4.9,2.1,4.4,0,5.7,1,9.6-2.5,5.3-4.7.2-7.4-5-7.9l3.3,4.1-4.1,1.7c-.6-15.1-9.8-5.2-9.9,4.1Z"/>
  <path d="M672.5,1140.2c-1-1-12.7,2.3-14.7,3.1-2.7,1.2-8.3,5-6.5,8.5,1.7,2.3,11.1-1.5,13.2-2.7,1.4-.8,9.6-7.5,8-9Z"/>
  <path d="M543,1143.4c-1.9-.9-13.7-4.1-14.7-3.1-1.6,1.5,6.5,8.1,8,9,2.1,1.2,11.5,4.9,13.2,2.7,1.7-3.5-3.8-7.3-6.5-8.5Z"/>
  <path d="M10.1,710.1c.9,4.8,1.8,9.5,2.8,14.2,3.8-5.6,5-17.5-2.8-14.2Z"/>
  <path d="M1187.3,723.4c.9-4.5,1.8-9,2.7-13.5-6.5-2-5.8,7.9-2.7,13.5Z"/>
  <path d="M360.1,1119.5c-17-2-12.5,16.4,1.5,12.3,2.7-5.5-3.3-7.2-1.5-12.3Z"/>
  <path d="M840.7,1119.5c1.8,5.1-4.2,6.8-1.5,12.3,14,4.1,18.5-14.3,1.5-12.3Z"/>
  <path d="M140.2,962.1c-10.9-.6-7.3,13.1,1.7,12.6,2.6-.1,2-1.1,3.2-2.3.8-.8,2-.7,2.2-2.4.4-3.6-3.5-7.8-7.1-8Z"/>
  <path d="M1053.7,970.8c.1.3,3.9,3.8,4.5,3.9,6.2,1.1,11.8-7.2,8.5-10.6-5-5-14.9.8-13,6.7Z"/>
  <path d="M284.4,766.7c-.7-1.1-2.1-1-3.2-.7-6,1.7-5.9,21.9,1.5,16.5,2.5-1.8,3.2-13.5,1.6-15.8Z"/>
  <path d="M918.1,782.5c8.3,6,7.4-19.2-.7-16.6-2.7.9-2.1,14.5.7,16.6Z"/>
  <path d="M548.9,987.6c-.7-2.3-3.4-3.6-5.4-2-1.4,1.1-5,10-5,12-.3,11.2,12.6-2.7,10.4-10Z"/>
  <path d="M651.9,987.6c-2.2,7.3,10.7,21.1,10.4,10,0-2-3.6-10.9-5-12-2-1.6-4.7-.3-5.4,2Z"/>
  <path d="M515.1,1179.2c3.1-7.3-2-8.3-8.2-7.3-2.6,5.9.7,8,6.5,7.3-4.8,4.1,4.7,11.8,5.8,6.2.7-3.6-.4-5.8-4.2-6.2Z"/>
  <path d="M685.8,1179.2c-4.6.3-5.3,4.3-3.4,7.9,2.9,2.1,9-4.9,5-7.9,5.8.6,9.1-1.5,6.5-7.3-6.2-1-11.2,0-8.2,7.3Z"/>
  <path d="M171.8,836.5c-4-3.4-20.3,1.7-18,4.8,3.8,2.3,19.5,4,18.9-2.7-.2-.7-.4-1.6-.9-2.1Z"/>
  <path d="M1047,841.3c2.7-3.7-19.6-9.8-19-2,.5,5.9,15.6,4.1,19,2Z"/>
  <path d="M876.8,888.2c1-1.5,3.4-5.6,2.5-7.2-7.9-4.2-12.8,4.3-12.8,11.5,3.2,2,8.5-1.8,10.4-4.4Z"/>
  <path d="M334.4,892.6c0-7.2-4.9-15.7-12.8-11.5-2.2,3.5,8,15,12.8,11.5Z"/>
  <path d="M201.4,786.6c1.6-3.3,4-21.4,0-22.3-2.2-.5-3.5,5.6-3.6,7.1-.7,5.7.4,11.3.7,16.9,1.3.2,2.4-.7,2.9-1.7Z"/>
  <path d="M1002.3,788.3c.3-5.6,1.4-11.2.7-16.9-.2-1.5-1.4-7.6-3.6-7.1-3.9.9-1.6,19,0,22.3.5,1,1.6,1.9,2.9,1.7Z"/>
  <path d="M322.3,1132c2.2,1.2,4.5,2.3,6.7,3.5,1.1-.3,2.1-.8,2.7-1.3,10.4-8.2-7.5-16.1-9.4-2.2Z"/>
  <path d="M869.1,1134.2c.6.5,1.3.9,1.9,1.2,2.6-1.3,5.1-2.6,7.7-4-.2-1.5-1-3.2-2.6-5.1-6.1-6.8-14.3,2-7,7.8Z"/>
  <path d="M558.9,1027.9c0-.6-1.3-3-1.8-3.4-3.8-3.1-15.1,1.7-11.3,7.5,3.7,5.6,10.6-.4,13.1-4.2Z"/>
  <path d="M641.9,1027.9c2.5,3.7,9.4,9.8,13.1,4.2,3.8-5.8-7.5-10.6-11.3-7.5-.5.4-1.9,2.8-1.8,3.4Z"/>
  <path d="M230.9,831c-5.7,3.9.5,12.5,5.5,9.2,8.6-5.6,2.1-14.4-5.5-9.2Z"/>
  <path d="M964.4,840.2c5,3.3,11.2-5.3,5.5-9.2-7.6-5.2-14.1,3.6-5.5,9.2Z"/>
  <path d="M1114.1,849.6c-.7,4,4.7,6.9,8,7.2.7,0,5.8-.5,6-.7.3-.2.8-3.9,2.6-4.4l-1.4-2c-4,.6-6.1.6-9.9-1l-1.6,1.7-3.8-.7Z"/>
  <path d="M79.3,856.7c3.2-.4,8.1-3.3,7.4-7.1l-3.8.7c-.4,0-.3-1.2-.5-1.3-2.2-1.2-4,1.2-6,1.3-1.4,0-3.2-1.3-4.9-.6-2.9,1.7-.5,2.4.6,4.2.4.6.3,2,.6,2.2.3.2,5.7.7,6.6.6Z"/>
  <path d="M1138.6,609.5c3.9,0,2.3-7.7,1.7-10-.4-1.4-2.4-2.4-1.2-4.1-10.3-1.6-6.4,14.2-.4,14.2Z"/>
  <path d="M61.9,595.3c.1,3-4.9,11.5-.7,13.9,5.4,3.1,12.4-15.6.7-13.9Z"/>
  <path d="M730.1,1048.3c3.8-.5,13.4-14.3,11.2-16.6-5.9-1.2-10.6,9.5-12,14.1-.3,1.1-.3,2.2.8,2.4Z"/>
  <path d="M80.9,802.3l-1.4-2.3h-6.9c0-.1.8-4.3.8-4.3-4.1,0-10.1-.2-11.6,4.5,3.6,4.4,6.3,2.2,10.3,2.2,2.7,0,5.6,1.7,8.8,0Z"/>
  <path d="M1128.7,802.4c3.5,0,4.5,2.1,8.4-.7,5.7-4.1-6.1-6.9-9.7-6l.8,4.1c-.8.8-8.7-1.8-8.3,2.5,3.2,1.8,6.1.1,8.8,0Z"/>
  <path d="M885,987.9c2.6,3.7,12.5-1.2,12.6-4.6,0-.4-1.3-3.5-1.5-3.6-3.6-2.3-14.1,3.9-11.1,8.2Z"/>
  <path d="M459.6,1031.8c-1.9,2,5.1,12.1,6.9,13.8,6.6,6.2,5.5.7,3.2-4.4-1.8-4-5-10.3-10.1-9.4Z"/>
  <path d="M304.5,980.1c-1.3,2.7-1.8,3.5.4,5.8,2.2,2.3,6.9,4.5,9.9,2.7,5.7-3.5-6-11.8-10.3-8.5Z"/>
  <path d="M660.8,872.2c1-1.8,1.8-8.2-.3-8.6-3.4-.7-11.1,10.3-8.7,14.1,1.5,1,8.2-4,9-5.5Z"/>
  <path d="M549,877.7c2.4-3.8-5.3-14.7-8.7-14.1-2.1.4-1.4,6.8-.3,8.6.9,1.5,7.5,6.5,9,5.5Z"/>
  <path d="M712.3,1171.7c7.5,3.3,11.1-5.6,12.4-11.6-4.1-2.9-14.2,9.1-12.4,11.6Z"/>
  <path d="M476.1,1160.1c1.3,5.9,4.9,14.8,12.4,11.6,1.8-2.5-8.3-14.5-12.4-11.6Z"/>
  <path d="M522.6,1053.4c-1.1,1.4.2,6-5.1,4.9l.8,4.1,3.3-3.3.8,4.6c4.5,1.9,9.5-3.4,8.3-7.4-.6-1.8-7.8-3.4-8.1-2.9Z"/>
  <path d="M678.2,1053.4c-.4-.5-7.6,1.1-8.1,2.9-1.3,4,3.8,9.3,8.3,7.4l.8-4.6,3.3,3.3.8-4.1c-5.3,1.1-3.9-3.5-5.1-4.9Z"/>
  <path d="M188.3,852.1c-9.9.4-4.4,14.7,3.4,9.7,3.6-2.3.6-9.8-3.4-9.7Z"/>
  <path d="M1009.1,861.7c7.8,5,13.3-9.3,3.4-9.7-4-.2-7,7.4-3.4,9.7Z"/>
  <path d="M415.4,945.9c-1.3-1.1-4.7-1.2-5.5-.2-1.2,1.8,4.9,14.5,9,13.2.5-3.6-.7-10.6-3.5-13Z"/>
  <path d="M790.9,945.7c-7.4-3.5-9.6,7.7-9,13.2,4.2,1.3,10.3-11.4,9-13.2Z"/>
  <path d="M979.6,953.7c.9,2,5,1.4,6.9,2.7,1.2-1.7-5.3-17.4-7-17.4-.4,0-1.9,1.7-1.9,2.7,0,2,2.9,6.2,3,7.8,0,1.4-2,1.9-1,4.2Z"/>
  <path d="M221.4,939c-1.7,0-8.2,15.7-7,17.4l6.4-1.9c2.2-2.1-.5-3.7-.5-5,0-1.5,3-5.7,3-7.8,0-1-1.5-2.7-1.9-2.7Z"/>
  <path d="M310.9,833.8c5.4-2.4,9.1-12,3.3-15.7-1.8,0-7.2,13.7-3.3,15.7Z"/>
  <path d="M890,833.8c3.9-2-1.5-15.7-3.3-15.7-5.8,3.7-2.1,13.3,3.3,15.7Z"/>
  <path d="M605.4,1014.8l-1.7-.8c4-4.5.4-10-2.5-3.7h-1.6c-2.9-6.3-6.5-.8-2.5,3.7l-1.7.8c1.6,3.1,9,2.9,9.9,0Z"/>
  <path d="M184.1,890.1c5,1.2,2.6-14.6.4-17.4-5.7,0-2.1,17-.4,17.4Z"/>
  <path d="M1016.4,872.8c-2.3,2.8-4.6,18.5.4,17.4,1.8-.4,5.3-17.3-.4-17.4Z"/>
  <path d="M576.2,875.8c5-4.9,2.6-16.9-3-9.2-3.5,4.8-2.7,14.8,3,9.2Z"/>
  <path d="M627.6,866.7c-5.6-7.7-7.9,4.2-3,9.2,5.6,5.6,6.4-4.4,3-9.2Z"/>
  <path d="M543.2,1026.8c-2.2-2.3-13.8,10.7-13.2,14.1,1.3,1.3,16.1-9.4,13.2-14.1Z"/>
  <path d="M670.8,1040.9c1.3-1.3-9.2-15.5-13.2-14.1-2.8,4.7,12,15.3,13.2,14.1Z"/>
  <path d="M396.4,901.5c4.1-3.6-3.4-12.2-7.6-7.2-4.8,5.7,5.3,9.3,7.6,7.2Z"/>
  <path d="M804.4,901.5c2.3,2.1,12.5-1.5,7.6-7.2-4.2-4.9-11.7,3.6-7.6,7.2Z"/>
  <path d="M257.4,868.6c4-1.1,3.4-5.7,9.1-4.1l-3.7-11.6c-2.8,1-6,15.1-5.4,15.7Z"/>
  <path d="M943.4,868.6c.6-.6-2.5-15.2-5.8-15.7l-3.3,11.6c5.7-1.6,5.1,3.1,9.1,4.1Z"/>
  <path d="M1013,1029.3c0,2.1,0,4,.3,5.6,1.7-1.6,3.3-3.2,5-4.8-1.5-.9-3.3-1.3-5.3-.9Z"/>
  <path d="M187.8,1029.3c-2.2-.5-4.2,0-5.8,1.2,1.8,1.7,3.5,3.4,5.3,5.1.5-1.7.5-3.9.5-6.3Z"/>
  <path d="M632.3,1175c2.6,5.2,12.3-1.2,9.4-5.7-1.8-2.8-12.1.5-9.4,5.7Z"/>
  <path d="M564.8,1168.8c-6.5-2-7.7,3.8-3.9,6.9,6.2,5,12.2-4.3,3.9-6.9Z"/>
  <path d="M588.8,962.2c-1.6,7.7,5,9.5,10.8,11.6,2-2.7-7.1-12.1-10.8-11.6Z"/>
  <path d="M601.3,973.8c5.8-2.1,12.4-3.9,10.8-11.6-3.6-.5-12.7,8.9-10.8,11.6Z"/>
  <path d="M296.6,972.7c4.6,4.2,6.5-10.4,3.4-11.3-4.5-1.3-6.9,8.1-3.4,11.3Z"/>
  <path d="M904.3,962.4c-5.5-5.7-6.9,9-1.9,11.2,4.6-.7,4.1-8.9,1.9-11.2Z"/>
  <path d="M1112.5,866.5c4.2,5.8,11,3,11.6-3.7l-6-.7-5.6,4.4Z"/>
  <path d="M76.8,862.8c.3,7.1,9.4,9.9,11.6,2.5-4.4-2.5-6.2-4.4-11.6-2.5Z"/>
  <path d="M1.1,573.9c-.2.1-.4.3-.6.4-.1,3.5-.3,7-.4,10.4.2.2.5.4.8.6,4.1-2.5,6-10.7.2-11.5Z"/>
  <path d="M1199.8,585.3c0-3.7-.2-7.5-.4-11.2-.4-.1-.7-.2-1.1-.3-4,3.5-2.3,8.7,1.5,11.5Z"/>
  <path d="M392.5,939.4c5.5-1.2,1.6-9.9-6.2-7.9-1.5.9-1.2,4.5-.3,5.6.6.7,5.4,2.5,6.5,2.3Z"/>
  <path d="M805.9,935.3c-1.1,7.6,13.1,3.3,9-3.7-2.9-.5-8.5.2-9,3.7Z"/>
  <path d="M862.7,918.3c-3.9.4-6.2,4.6-5.4,8.2,6.5,3.4,13.7-9.1,5.4-8.2Z"/>
  <path d="M343.5,926.5c.8-3.7-1.5-7.8-5.4-8.2-8.3-.9-1.1,11.6,5.4,8.2Z"/>
  <path d="M445.5,1127v-2.4c-4.8-1-8.4,1.3-11.6,4.5,3.7,5.5,8-.7,10.5-1.1,1.4-.2,3.7,2.4,6.1.7-1.1-2.7-2.6-2.1-5-1.6Z"/>
  <path d="M755.4,1124.6v2.4c-2.4-.5-4-1.1-5,1.6,2.4,1.7,4.7-.9,6.1-.7,2.5.4,6.8,6.6,10.5,1.1-3.2-3.2-6.8-5.5-11.5-4.5Z"/>
  <path d="M653.9,932.4l-3.2-1.5c-10.7,10.9,4.7,15.7,3.2,1.5Z"/>
  <path d="M551.8,941.4c4.4-.8.7-10.8-2.2-10.5-6.1.5-2.2,11.3,2.2,10.5Z"/>
  <path d="M566.7,986.9c2.2-.7,6.2-4.4,5.5-6.8-2.7-3.5-6.6,1.7-10.3-.4l-1.2,1.9,2.8,3.8,2.9-4.1-1.6,4.6,1.9,1.1Z"/>
  <path d="M637.3,985.4l2.8-3.8c-.2-3.1-2.7-1-4.3-1.3-2.4-.4-5.3-3.1-7.2-.2-.7,2.4,3.3,6.2,5.5,6.8l1.9-1.1-1.6-4.2,1.6-.4,1.2,4.1Z"/>
  <path d="M982.4,930.7c-.3,4.6-.4,10.9,5.9,8.8,2.3-5.5.7-9.9-5.9-8.8Z"/>
  <path d="M218.5,930.7c-6.5-1.2-8.2,3.3-5.9,8.8,6.3,2.1,6.1-4.1,5.9-8.8Z"/>
  <path d="M1048.6,800.2c3.6,3.3,6.6,2.7,9.8-.5,2.1-4.7-10.2-7.3-9.8.5Z"/>
  <path d="M142.8,799.9c2.1,3.3,6.4,2.9,9.3.7,1.2-8.4-12.3-5.5-9.3-.7Z"/>
  <path d="M103.7,687.4c-2.7,1-4.8,3.7-6.1,6.2-3.9,7.5,1.1,5,4.8,1.5,1.4-1.3,3.7-3.6,3.2-5.6l-1.9-2.1Z"/>
  <path d="M1098.4,695.1c3.8,3.5,8.7,6,4.8-1.5-1.3-2.5-3.4-5.2-6.1-6.2l-1.9,2.1c-.5,2,1.8,4.3,3.2,5.6Z"/>
  <path d="M662.1,1008.5c-2.4,3.8,2.1,9.3,5,11.6,1.8-1.3,1.7-2,1.4-3.9l1.5-.2v-1.6c-3.3,1.8-5.4-9.8-7.9-5.8Z"/>
  <path d="M622.5,891c5.4,7.3,10.4-5.5,7.7-7.4-2.5-1.8-6.5,3.1-6.2,5.8h-2.1c-.4,1.2.1,1.1.5,1.6Z"/>
  <path d="M533.7,1020.1c3.4-3,7.9-7.9,4.1-12.4-2.7-.6-3.3,7.9-7,6.6v1.6s1.5.2,1.5.2c-.3,2-.4,2.7,1.4,3.9Z"/>
  <path d="M578.4,891c.4-.5.9-.3.5-1.7h-2.1c.4-4.6-7-9-6.8-3.1.2,5,4.6,9.8,8.3,4.7Z"/>
  <path d="M845.7,1109.1c-4.9-1.5-8.1,4.6-5.8,8.7,5.3-.2,8.6-3.5,5.8-8.7Z"/>
  <path d="M291.9,988.8c-.8,0-3.1.4-3,1.6,2.1,1.4,14.2,5.3,14.9,2.1-1.4-4.6-8-4.1-11.9-3.6Z"/>
  <path d="M360.9,1117.9c2.2-4.1-.9-10.3-5.8-8.7-2.7,5.3.5,8.5,5.8,8.7Z"/>
  <path d="M897,992.4c.6,2.6,9.4.3,11.2-.4.9-.3,3.5-1.4,3.7-2.5-4.6-1.1-12.8-2.6-14.9,2.9Z"/>
  <path d="M22.2,723.3l2.3,7c-1-3.7,2-3.6,3.2-5.5,4.2-7.1-4.7-11.7-5.5-1.5Z"/>
  <path d="M1173.1,724.8c.8,1.3,2.3,1.5,2.7,2.2.8,1.3-.3,3.4,1.2,3.3.7-4.4,2.8-7.7,0-11.9-2.4-3.5-7,1.3-3.9,6.4Z"/>
  <path d="M1038.4,930c1.5-1.2,2-4.9,1.1-6.6-12.2-2-7.6,11.9-1.1,6.6Z"/>
  <path d="M161.4,923.3c-2.2,4.2,2.6,9.9,6.6,7,.6-.4,1.5-4,1.2-4.6-.9-1.6-6.2-3.3-7.8-2.4Z"/>
  <path d="M281.9,808.1h2.7c1.7-3.8.8-7.6,0-11.5-4.8-1.3-5.4,10.6-2.8,11.5Z"/>
  <path d="M916.1,797.1c-1,3.7-1.4,7.3,0,11,8.2,2.5,2.7-15.8,0-11Z"/>
  <path d="M805.1,1116.6c-.3,2-8.9,9-7.4,10.4.6.5,2.8,0,3.7-.8.4-.3,5.8-7.7,5.9-8.2.1-1.7-2.4-1.9,1.2-5l-7.5,1.7,4.1,2.1Z"/>
  <path d="M399.9,1114.6l-7.5-1.7c3.6,3.1,1,3.3,1.2,5,0,.5,5.5,7.9,5.9,8.2.9.7,3.1,1.3,3.7.8,1.5-1.4-7.1-8.3-7.4-10.4l4.1-2.1Z"/>
  <path d="M317.8,914.2c-1.9-1.2-10.3,1.4-9.8,4.4,2.4,6,13.3-2.2,9.8-4.4Z"/>
  <path d="M892.8,918.6c.5-2.9-7.9-5.6-9.8-4.4-3.5,2.2,7.4,10.4,9.8,4.4Z"/>
  <path d="M316.6,960.5l-.2,5.7c1.7.8,5.8,1.8,7,.2,1.4-4.2-2.7-8.7-6.7-5.9Z"/>
  <path d="M877.5,966.4c1.2,1.6,5.3.7,7-.2,2.3-10-8.5-7.9-7,.2Z"/>
  <path d="M937.6,1050.4c-1.3,2.4,6.3,1.2,7,1.1,1.4,0,2.7.8,3.4.8.4,0,.3-1,.7-1.2,1-.6,2.2-.7,3-1.6,1.2-3.9-12.9-1.5-14.1.9Z"/>
  <path d="M249.1,1048.7c.2.7,3.4,3.6,3.7,3.6.6,0,1.6-.8,2.5-.7,2.6.1,5.2.6,7.9,0,2.4-2.5-13.4-6.2-14.1-2.9Z"/>
  <path d="M300.1,873.5c2.3-2.2,4.1-8,1.9-10.5-2.9-3.2-4.4,4.5-4.6,6.2-.2,2.4.6,3.5,2.7,4.3Z"/>
  <path d="M902.6,872.5c1.9-2.1-.7-10.4-1.9-10.5-4.8,1.9-2.8,7.8-.4,11.2.5.5,2-.4,2.3-.7Z"/>
  <path d="M863.1,1122.9c2.5-.5,7.2-1.7,7.5-4.6.6-6-11.4-.9-7.5,4.6Z"/>
  <path d="M330.3,1118.3c.3,2.8,5,4.1,7.5,4.6,3.9-5.5-8.1-10.6-7.5-4.6Z"/>
  <path d="M924.3,859.2l3.2-.6c0-3.3,1.3-7.6-1.9-9.8-4.1,2.7-3.1,6.5-1.3,10.4Z"/>
  <path d="M273.3,858.5l3.2.6c1.8-3.9,2.8-7.7-1.3-10.4-3.2,2.2-2,6.5-1.9,9.8Z"/>
  <path d="M466.2,1029.3c.5-4-1.6-7.5-4.6-9.9-3.6,3.4-.6,10.9,4.6,9.9Z"/>
  <path d="M739.2,1019.4c-2.9,2.5-5.1,6-4.6,9.9,5.1,1,8.2-6.5,4.6-9.9Z"/>
  <path d="M550.7,1134.4l6.2,2.2,2.8-3.4c-1.7-4.6-11.5-2.6-9,1.1Z"/>
  <path d="M641,1133.3l2.8,3.4,6.2-2.2c.3-5.4-6.6-4.7-9-1.1Z"/>
  <path d="M364.3,1132.8c-2.3,4.7,1.1,8.1,5.8,8.3.8-4.4-1.4-7.6-5.8-8.3Z"/>
  <path d="M830.8,1141.1c4.7-.2,8.1-3.6,5.8-8.3-4.4.7-6.6,3.8-5.8,8.3Z"/>
  <path d="M434.7,1169.7c1,4.7,4.1,5,8.3,4.5.7-4.8-4.7-7.9-8.3-4.5Z"/>
  <path d="M757.8,1174.2c4.2.5,7.3.1,8.3-4.5-3.6-3.4-9-.2-8.3,4.5Z"/>
  <path d="M747.1,956.4c-5-.9-7.8,1.6-7.4,6.6,1.6,2.2,9-3.2,7.4-6.6Z"/>
  <path d="M461.2,963c.3-5-2.4-7.5-7.4-6.6-1.6,3.4,5.8,8.8,7.4,6.6Z"/>
  <path d="M670.4,992c3.2-.9-.4-10.2-4.5-8.3-.8,2.5,1,9.3,4.5,8.3Z"/>
  <path d="M535,983.7c-4.1-2-7.7,7.3-4.5,8.3,3.5,1,5.3-5.8,4.5-8.3Z"/>
  <path d="M669.1,900.8c.8-1.1-.7-6.7-1.6-7.4-.8-.7-3,1.9-3.3,2.3-.9,1.6-1.9,3.3-1.7,5.2h6.6Z"/>
  <path d="M538.3,900.9l-3.3-7.4c-2.1-1.4-4.1,5.7-3.2,7.4h6.6Z"/>
  <path d="M333.1,958.8c-2.2,2.9,5.8,6,7.9,5,1.3-4-5.4-8.3-7.9-5Z"/>
  <path d="M859.8,963.8c.8.8,6.2-.9,7.2-1.9,5-5.1-8.7-6.1-7.2,1.9Z"/>
  <path d="M1173.3,609.4l2-1.4-.9-5.9c-7.3-4.3-5.2,7.3-1.1,7.3Z"/>
  <path d="M29.9,601.2c-1-.3-2.5.5-3.5.9-3.3,16.5,9.4.7,3.5-.9Z"/>
  <path d="M136.5,650.4c.7-1.7,2.3-5.8.7-7-.9-.6-4.8.5-5.3,1.5l.6,4.9,4.1.6Z"/>
  <path d="M639.8,1036.7c-1.1-1.4-3.6-.4-4.5-.9-.7-.5-.2-3.3-1.8-3.2-.3,1.2.9,2.9.9,3.6,0,.7-4,1.1-2.1,3.8,1.2,1.8,5.1,0,6.9-.2l.7-3.2Z"/>
  <path d="M1068.4,649.8l.6-4.9c-6.3-4.2-7.2.2-4.6,5.5l4.1-.6Z"/>
  <path d="M568.9,1038l-2.4-1.4v-4c-.5,4.4-1.5,2.6-3.7,3.3-8.1,2.5,8.2,8.3,6.1,2.1Z"/>
  <path d="M556.1,982.9c-3.3-.9-5.5,6.6-5.4,9.1,3.6,1.4,8.5-8.3,5.4-9.1Z"/>
  <path d="M650.1,992c0-2.5-2-10-5.4-9.1-3.1.8,1.8,10.5,5.4,9.1Z"/>
  <path d="M452.9,1165.1c-.6,3.2,1.1,6.7,4.5,6.7,7.7,0-3.1-8.2-4.5-6.7Z"/>
  <path d="M743.3,1171.8c3.4,0,5.2-3.5,4.5-6.7-1.4-1.5-12.2,6.8-4.5,6.7Z"/>
  <path d="M951.3,958l2.7-6.4.2-2.7h-4.9c-.5.8.6,8,2,9.1Z"/>
  <path d="M246.6,949c-.3,3.3,2.6,5.5,1.7,9.1,3,1,3.7-8.5,3.3-9.1h-4.9Z"/>
  <path d="M998.1,885.2c3,1.1,8.6-.2,6.2-4.1-2.3-3.7-7.3.5-6.2,4.1Z"/>
  <path d="M196.5,881c-2.4,3.9,3.2,5.3,6.2,4.1,1.1-3.6-3.9-7.9-6.2-4.1Z"/>
  <path d="M1118.2,654.9c.5-.7-1.2-5-1.9-5.5-.5-.4-3.8-1.2-3.9-1.1-.3,4.5.4,9.1,5.8,6.6Z"/>
  <path d="M88.4,648.3c-4.1,0-5.6,2.7-5.8,6.6,5.4,2.6,6.1-2,5.8-6.6Z"/>
  <path d="M934.8,771.7c.3-.6-.2-1.9-.7-2.3-1.6-1.5-7.8-1.7-7.2,1,2.1,2.9,5.2,4.4,7.9,1.3Z"/>
  <path d="M274,770.5c.6-2.7-5.6-2.5-7.2-1-.4.4-.9,1.7-.7,2.3,2.7,3.2,5.8,1.6,7.9-1.3Z"/>
  <path d="M615.3,1122c-4.4-.3-7.5.8-6.6,5.8,3.8.4,6.8-1.7,6.6-5.8Z"/>
  <path d="M585.5,1122c-.2,4,2.8,6.2,6.6,5.8.9-5-2.2-6.1-6.6-5.8Z"/>
  <path d="M181.1,750.8c.6,1.7-.4,3.8,2.1,5.2,2.1-2.6.1-5.9.3-9l-3.2-1c-2.2,4.1.5,3.9.8,4.7Z"/>
  <path d="M525,1111.2l-3.3-5.4c-3.6-1.8-5.6,9.4,3.3,5.4Z"/>
  <path d="M681.4,1106.5c-.4-.4-1.7-1-2.3-.7l-3.3,5.4c4,2.5,8.9-1.2,5.6-4.7Z"/>
  <path d="M1019.9,750.4c.1-.3,2.7-.6.5-4.4-4.7-.3-4,6.5-3.3,9.9,2.9-.9,2-3.5,2.7-5.6Z"/>
  <path d="M607,897.6c.8-3.1.2-8.7-4.1-8.3-1.1,3.2.5,7.8,4.1,8.3Z"/>
  <path d="M597.9,889.3c-4.4-.5-4.9,5.2-4.1,8.3,3.6-.5,5.2-5.1,4.1-8.3Z"/>
  <path d="M1014.3,804.8c-.6-1.4-2.1,0-2.1.4v12c2.5-1.6,3.2-10.4,2.1-12.4Z"/>
  <path d="M783.5,1124.5c3.6,0,4.5-3.5,6.3-5.7,1.3-1.6,4.4-1.8,3.6-5-1.9.3-10.9,9.9-9.9,10.8Z"/>
  <path d="M407.4,1113.7c-.7,3.2,2.3,3.4,3.6,5,1.8,2.2,2.6,5.8,6.3,5.7.9-.9-8.1-10.5-9.9-10.8Z"/>
  <path d="M201.9,797.7c5.5,7.9,9.6-3.2,3-2.6-1,0-3.3,1.4-3,2.6Z"/>
  <path d="M188.6,817.3v-12c0-.4-1.4-1.8-2.1-.4-1.1,2.1-.4,10.8,2.1,12.4Z"/>
  <path d="M995.2,800.7l3.7-3.7-3.6-1.9c-4,.9-4.1,4.4-.1,5.6Z"/>
  <path d="M1043.7,748.5v-3.2c-.1,0-4.6-2.5-4.6-2.5-5,3.8.2,6.2,4.6,5.7Z"/>
  <path d="M653.4,1197.7c.4,0,.8,0,1.1-.1l-1.1-.2c0,0,0,.2,0,.3Z"/>
  <path d="M157.3,745.3v3.2c4.1.5,9.4-1.9,4.4-5.7l-4.4,2.5Z"/>
  <path d="M546,1197.6c.5,0,1,0,1.5.1,0-.1,0-.2,0-.3l-1.4.2Z"/>
  <path d="M910.1,916.9c-.5-.5-2.7-1.4-3.1-1-2.3,12.5,7.6,5.9,3.1,1Z"/>
  <path d="M294.1,920.6c.4-1.6-.4-3.2-.3-4.8-8.5.7-1.5,12.2.3,4.8Z"/>
  <path d="M958.4,842.1c-1.2,11.1,6.8,10.9,2.4,0h-2.4Z"/>
  <path d="M239.2,850.4c4.4-.3,3.3-5.3,3.3-8.3-3.6-1.8-4.4,7.4-3.3,8.3Z"/>
  <path d="M1175.4,737.8c-.3,3.7,3.9,6.1,7.3,5.8,0,0,0-.1,0-.2l-3.3-5.5h-4.1Z"/>
  <path d="M21,739.9c-.8,1-2.9,1.6-3.1,3.6,3.5.4,7.7-2,7.5-5.8-5.4-.8-3.3.8-4.4,2.2Z"/>
  <path d="M846.5,1141.5c.9,1.6,2.2,1.1,3.5.2.4-.2,3.8-3.1,3.1-3.9-1.8-1.9-7.5-.3-6.6,3.7Z"/>
  <path d="M345.6,1093c-2.8,1.9.6,2.8.4,5l-6.6,2.1,6.2,2.1-2.1-2.5h4.1s-2.1-6.6-2.1-6.6Z"/>
  <path d="M855.2,1093l-2.1,6.6,4.1.4-2.5,2.1,6.6-2.1-6.6-2.1c-.2-2.1,3.2-3,.4-5Z"/>
  <path d="M1053.6,848.7c2.9-2.4,4.3-5.5,3.3-9.1-4.4-.9-3.6,6.2-3.3,9.1Z"/>
  <path d="M143.9,839.6c-1,3.6.4,6.7,3.3,9.1.6-3.3.2-6-.9-9.1h-2.4Z"/>
  <path d="M353.3,1138c-1.3-1.3-3.6-1-5.1-.2l-.5,1.7c2.1,1,6.9,6,6.4.6,0-.6-.5-1.6-.9-2Z"/>
  <path d="M40.7,712.1c-.9,0-4.9,5.8-4.6,7.4.4.4,4.3-1.4,4.8-1.9,1.2-1.3,1.5-5.6-.2-5.6Z"/>
  <path d="M1113.3,815.6c-3.7,1-6.9,2.3-5.8,6.6,3.1-.8,6.6-3,5.8-6.6Z"/>
  <path d="M87.5,815.6c-.9,2.6,2.4,5.8,4.6,6.6,1.9.7,1.5-3.2,1.1-4-.2-.3-5.2-3.1-5.6-2.6Z"/>
  <path d="M1164.7,719.5c1-1-5.9-11.8-5.8-4.6,0,3.1,3.1,4.1,5.8,4.6Z"/>
  <path d="M562.3,1042.5c-1.2-1-7.1,4.3-8.2,5.5-.9.9-2.1,1.2-1.7,2.8.7.8,10.1-6.1,9.9-8.3Z"/>
  <path d="M648.5,1050.8c.4-1.6-.9-2-1.7-2.8-1.1-1.1-7-6.4-8.2-5.5-.2,2.2,9.2,9,9.9,8.3Z"/>
  <path d="M523.8,1000.3c-2.4,1.2-1.1,8.9.8,9.1,1.2.1,1.1-5.7,1-6.4-.2-1.5-.7-1.8-1.8-2.7Z"/>
  <path d="M676.2,1009.4c1.9-.2,3.2-7.9.8-9.1-1.1.9-1.6,1.2-1.8,2.7,0,.7-.3,6.5,1,6.4Z"/>
  <path d="M659.2,1175c2.3,0,4.8.5,6.2-1.6l-.5-2.4c-3.1-.6-6.1.5-5.7,4.1Z"/>
  <path d="M540.4,1171.6c-5.4-4.1-8.3,5,1.2,3.4.2-1.3,0-2.5-1.2-3.4Z"/>
  <path d="M63.4,817.2l.9-6.5-4.9,3.4c-.8,2.9,1.5,3.7,4,3.1Z"/>
  <path d="M1138.1,810.6l-1.6.4.7,5.7c1,1.5,4.8.5,4.3-2.4-.1-.5-3.8-1.5-3.4-3.7Z"/>
  <path d="M634.4,1132c-1.2-1.7-7.1.5-6.6,2.9.5,2.5,8.6,0,6.6-2.9Z"/>
  <path d="M566.4,1132c-2,2.9,6.1,5.3,6.6,2.9.5-2.4-5.5-4.6-6.6-2.9Z"/>
  <path d="M862.2,1105.5l3.5,3.1c1.1.7,5.6-1,5.6-1.9-2.5-2.2-6.2-1.8-9.1-1.2Z"/>
  <path d="M329.5,1106.7c3.7,3.4,6.1,1.7,9.1-1.2-2.9-.6-6.6-.9-9.1,1.2Z"/>
  <path d="M766.9,860.3c-3.7,0-5.3,2.5-4.1,5.8,3.5.3,5.4-2.9,4.1-5.8Z"/>
  <path d="M840.7,927.4c-3.8-.5-6.3.8-5.8,5,3,.3,5.7-1.9,5.8-5Z"/>
  <path d="M438,866.1c1.2-3.3-.4-5.9-4.1-5.8-1.3,2.9.7,6.1,4.1,5.8Z"/>
  <path d="M360.1,927.4c0,3.1,2.8,5.2,5.8,5,.5-4.2-2-5.5-5.8-5Z"/>
  <path d="M314.6,1118.3c-.4,2.3,3.5,3.7,5.6,1.9,3.7-3.3-5.1-4.4-5.6-1.9Z"/>
  <path d="M880.7,1120.2c2.1,1.9,6,.4,5.6-1.9-.5-2.5-9.3-1.4-5.6,1.9Z"/>
  <path d="M926.8,869c-2.1-4.7-8-2.4-5.7,1.2.9,1.3,5,.9,5.7-1.2Z"/>
  <path d="M274,869c.7,2.1,4.8,2.5,5.7,1.2,2.3-3.6-3.6-5.9-5.7-1.2Z"/>
  <path d="M615.8,1143.6c-3,1.8-1.3,3.8-1.3,6.6l3.2-1c.5-1.3.4-6.2-1.9-5.7Z"/>
  <path d="M584.3,1143.6c-1.7,1.2-1.3,3.4-1.3,5.2l3.3,1.4c.1-2.9,1.9-5.7-2.1-6.6Z"/>
  <path d="M526.1,1068.3l-5.3.7c-.8,3,6.1,3.3,6.6,2.5.5-.7,0-2.9-1.4-3.2Z"/>
  <path d="M678.5,1071.3c1.1-.6,1.7-.9,1.5-2.3-9-3.6-8.3,5.7-1.5,2.3Z"/>
  <path d="M694,1167.6l-.8-3.3c.5,1.3-1.7,6.4.4,6.6,1.2,0,6.7-3.7,5.4-4.9l-5,1.7Z"/>
  <path d="M508.4,1169.6l-.8-5.4-.8,3.3-5-1.7c0,2.7,2.9,3.9,4.9,4.6l1.7-.9Z"/>
  <path d="M576.4,910l-1.7,4.1,5,2.5c.2-2.4,0-6.5-3.3-6.6Z"/>
  <path d="M626.1,914.1l-1.7-4.1c-3.3,0-3.5,4.2-3.3,6.6l5-2.5Z"/>
  <path d="M521.3,975.4c3-.8-.8-5.8-2.5-5.8-2.3,0-1,6.7,2.5,5.8Z"/>
  <path d="M291.4,874.9l-4.1-2.1c-2.2,5.3,3,8.6,4.1,2.1Z"/>
  <path d="M914.2,876.4c.2-1-.8-2.4-.6-3.6-9.1,2.1-.3,8.8.6,3.6Z"/>
  <path d="M682,969.7c-1.7,0-5.5,5-2.5,5.8,3.5.9,4.7-5.7,2.5-5.8Z"/>
  <path d="M332.6,838.2c-2.5-1.3-4.9-.7-3.8,2.5,1.5,4.3,6.1,1.3,3.8-2.5Z"/>
  <path d="M872.2,838c-.3-.4-3.3-.7-3.9.2-2.6,8.2,6.4,3.4,3.9-.2Z"/>
  <path d="M90,727.4c-.4,1-1.1,1.6-.8,2.9,4.9.3,4.9-2.7,4.1-6.6-1.7-.6-2.9,2.7-3.3,3.7Z"/>
  <path d="M1111.6,730.3l-2.5-6.6c-1.8-1.8-2.5,3.7-1.7,5.2l4.2,1.5Z"/>
  <path d="M627.8,1076.9c1.6,2.4,7.4,1,7.4-2.1-.9-.2-8.5-.2-7.4,2.1Z"/>
  <path d="M573.1,1075.7l-7.4-.8c-1.9,1.6,7.8,6,7.4.8Z"/>
  <path d="M498.9,940.7l-2.1,2.9,2.9,2.9c2.2-1.1,1.6-6.3-.8-5.8Z"/>
  <path d="M701.9,946.5l2.1-2.9-2.9-2.9c-2.2,1.1-1.6,6.3.8,5.8Z"/>
  <path d="M177.4,922.5c3.5,2.3,4.6,0,4.6-3.4h-5s.4,3.4.4,3.4Z"/>
  <path d="M1023,922.9l.8-3.8h-5c0,3.2.6,5.3,4.2,3.8Z"/>
  <path d="M586.3,1192.4c-.6,3.5,3,4.3,5.8,4.1-.2-3.6-2.4-4.7-5.8-4.1Z"/>
  <path d="M608.7,1196.6c2.8.2,6.4-.6,5.8-4.1-3.4-.6-5.6.5-5.8,4.1Z"/>
  <path d="M851.5,1105.5l-.8-3.8-3.4-6.2c-.5,4,0,8.1,4.1,9.9Z"/>
  <path d="M765.3,1018.5c-3.4.1-5,2.9-5.8,5.8,3.5.4,5.7-2.4,5.8-5.8Z"/>
  <path d="M353.2,1101.9c.4-1.1,1.1-5.9-.5-6.4l-3.3,9.9c1,.2,3.8-3.3,3.9-3.6Z"/>
  <path d="M435.5,1018.5c0,3.4,2.3,6.2,5.8,5.8-.8-2.9-2.4-5.7-5.8-5.8Z"/>
  <path d="M419,1125.3c-.4,2.4.7,1.3,1.8,1.9,2.5,1.2,3.7,1.8,6.5.6-1.8-2.5-5.5-3.3-8.3-2.5Z"/>
  <path d="M528.3,971.3c-4,.3-2.6,5.7-2.5,8.3,3.1-1.6,2.5-5.4,2.5-8.3Z"/>
  <path d="M900.4,940.7c1.3-.8,2.7.1,3.7,0,5.5-.8-2.6-8.6-3.7,0Z"/>
  <path d="M672.5,971.3c0,2.8-.6,6.7,2.5,8.3.1-2.5,1.5-8-2.5-8.3Z"/>
  <path d="M71.8,770.9c2.1-2.5-3.9-4.9-5.8-1.2-.6,3,5.5,1.5,5.8,1.2Z"/>
  <path d="M1134.8,769.7c-1.9-3.7-7.9-1.3-5.8,1.2.3.3,6.4,1.8,5.8-1.2Z"/>
  <path d="M621.1,1110.4c2.9,1.4,4.4-.2,6.6-2.1-2.1-2.6-6.6-1.3-6.6,2.1Z"/>
  <path d="M573.1,1108.4c2.2,1.9,3.7,3.4,6.6,2.1,0-3.3-4.5-4.7-6.6-2.1Z"/>
  <path d="M773.6,1127.8c2.8,1.2,3.9.6,6.5-.6,1.1-.5,2.3.5,1.8-1.9-2.8-.8-6.5,0-8.3,2.5Z"/>
  <path d="M296.8,940.6c1,.2,2.4-.8,3.7,0-1.1-8.6-9.2-.9-3.7,0Z"/>
  <path d="M766.9,913.3c-2.3-.5-5.5,1-5,3.7.6,2.8,6.3-1.4,5-3.7Z"/>
  <path d="M438.8,917c.6-2.7-2.6-4.2-5-3.7-1.3,2.3,4.4,6.5,5,3.7Z"/>
  <path d="M766.9,994.9c-1.9-3.7-6.8,2-5.8,2.9,2.3.3,5.4,0,5.8-2.9Z"/>
  <path d="M439.7,997.8c1-.9-3.9-6.6-5.8-2.9.4,2.9,3.5,3.2,5.8,2.9Z"/>
</svg>