<?xml version="1.0" encoding="UTF-8"?>
<svg id="Layer_1" xmlns="http://www.w3.org/2000/svg" version="1.1" viewBox="0 0 1200 1200">
  <!-- Generator: Adobe Illustrator 29.0.0, SVG Export Plug-In . SVG Version: 2.1.0 Build 186)  -->
  <defs>
    <style>
      .st0 {
        fill: none;
      }
    </style>
  </defs>
  <path class="st0" d="M117.5,939.5l-1.5,3.9-4.7-.8c1.9-2.9-.9-4.3-1-7.2,3.2-.2,5.9-1.6,8.2,1.5l-5.1,2.6h4.1Z"/>
  <path class="st0" d="M760.8,1166.5h-3.1c.5-3-1.4-14.2,1.5-15.4,4.1,4.8.9,9.7,1.5,15.4ZM768.5,1146.9c-1.4,0-4.3-11-4.5-12.9-.1-1.2-.8-10.6,1.9-7.6.7,6.3,7.1,14.3,2.6,20.5ZM791.7,1131.5c-4.7-2.7-5.3-9.5-6.2-14.4,2.4-2.7,7.9,12.3,6.2,14.4ZM860,1119.3c-4.8-1.3-4.3-7.9.2-9.1,7.4-2.1,4.1,9.1-.2,9.1ZM872.9,1087.4l.4-4.2,5.7-1,1.1-3c.8,4.4-3.1,7.7-7.2,8.2ZM882.1,1127.4c-1.5-6.1-3.9-11.4-1-17.5.2-.1,2.3,1,2.7,1.4,3.8,3.6,6.4,16.8-1.7,16.1ZM934,1053.5c1.5-3,6.8-3.4,9.8-3.1.9,7.6-13.8,11.2-9.8,3.1ZM931.4,1024.7c4.7-.8,9.6-1.1,13.3,2.6-3.2,5.8-13.4,4.2-13.3-2.6ZM952,1077.1l1-5.7,5.2.6c.5,4-2.5,5.6-6.1,5.1ZM964.1,1030.1c-.5,2.3-7.7,13-9.5,15.2-.9,1.1-2,2.3-3.6,2,1.9-8.7,2.4-20.4,13.4-22.6,0,1.8.2,3.6-.2,5.4ZM1044.3,993.8l-5.5,2.2c-6.6-8.1,8.5-7.7,5.5-2.2Z"/>
  <path class="st0" d="M1090.7,935.3c0,2.9-2.9,4.3-1,7.2l-5.2.6-1-3.6h4.1s-5.1-2.6-5.1-2.6c2.3-3.1,5-1.7,8.2-1.5Z"/>
  <path class="st0" d="M156.7,993.8c-.6-1.7-.2-3.3,1.5-3.8,8.1-2.5,7.5,10.6-1.5,3.8ZM242.9,1072l5.2-.6,1,5.7c-3.6.5-6.6-1.1-6.1-5.1ZM247,1045.8c-1.7-1.8-9.2-12.8-9.8-14.9-.6-2.1-.6-4.1-.5-6.2.5-.5,5,1.7,5.8,2.4,6.3,5.3,5.4,13.4,7.5,20.2-1.6.4-2.1-.5-3.1-1.5ZM267.5,1057.5c-2.9,3.3-11.1-2.9-10.2-7.1,3.7-2,13.4,3.5,10.2,7.1ZM256.3,1027.3c3.7-3.6,8.7-3.4,13.3-2.6,0,6.8-10.2,8.4-13.3,2.6ZM318.9,1127.4c-9,.2-5.4-15.6,1-17.5,2.9,6,.4,11.4-1,17.5ZM321.2,1082.5c-.3-.8-1-3.7.8-3.4v3c0,0,5.2.5,5.2.5l1,4.7c-2.6,0-6.1-2.6-7-4.8ZM341.9,1119.1c-3.9,1.2-7.9-7.8-3.9-9.1,2.8-.9,5.2,1.5,6.4,3.7l-2.6,5.4ZM409.4,1131.5c-1.8-2.1,3.7-17.1,6.2-14.4.6.7-2.7,14.1-6.2,14.4ZM432.5,1146.9c-4.6,0,1.4-16.3,2.3-18.3.7-1.4-.6-2.8,2.3-2.2.4,6.9-.8,14.5-4.6,20.5ZM443.3,1166.5h-3.1c.5-5.8-2.1-10.1,1-15.4,4.1,3.1,1.2,10.8,2,15.4Z"/>
  <path class="st0" d="M985.4,887.6c.5-.2,3.6-.2,4.1.5.4,1.9,1.8,4.9,1.6,6.7-.6,5.3-9-.2-9.2-1.1-.4-1.7,1.7-5.4,3.5-6.1ZM954,904c-3.5-.8-2.8-6.8-.4-8.6,1.4-1.1,11.6,1.3,12.5,2.2.7.7,1.7,4.1,1.2,4.8l-4.1,2.6,5.1,3.6h-6c0-.1-1.7-4.1-1.7-4.1l-9.7,2,3.1-2.6ZM956.7,915.9l-5.7,2c-5-10.9,9.8-8,5.7-2ZM1173.9,641.5c.2-.3-1.4-2.8-.9-4l5.1,1c-.3,4.5-3,5.8-7.2,5.1,0-1.6,2.7-1.7,3-2.2ZM1133.7,795.5c-1.3.8-4.9.3-6-1.4,4-7.3,9.9-1,6,1.4ZM1153.4,759.1c5.6,5.7,1.1,11.2-6.2,9.8-.1-5.1.3-9.4,6.2-9.8ZM1141.1,790.5c5.9,0,8,12.5,5.1,14.3-5,3.2-5.9-11.5-5.1-14.3ZM1123.3,759.9c4.5-1,12.5,1.9,15.7,5.4-2.3,4.5-19.5-1.5-19.5-3.1,1-1.2,2.3-2,3.8-2.4ZM1106.3,643.8c13.2-2.7,4.4,13.7-2.1,5.3l2.1-5.3ZM1094.5,788.6c1.9-.6,13.4-1.1,12.7,2.4-.6,2.8-12.6,1.9-14.4-1,.5-.5.9-1.2,1.7-1.4ZM1085.5,708.4c2.1,1.8-1.8,16.6-7.1,15.4,0-5.3-.5-16.7,7.1-15.4ZM1058.4,653.9c4.8-.2,8.6,7.7,8.7,11.9,0,2.8-5.3,17.5-7.3,18.7-5.9,3.5-9.1-12.2-9.1-15.7,0-4.3,2.1-14.7,7.7-14.9ZM1048.8,747.5l6-2.2c.6.6-2,5.1-2.6,6.2-.4.8-.2,2.9-2,2-1.8-.9-1.9-4.3-1.4-6ZM1027.6,809.1c-.9,3.3-5.5,5.6-8.8,5.1-1.5-4.1,3.5-5.9,4.1-8.2-1.3-.2-2.8.1-4.1,0v-7.2c4.4-1.1,4.9,4,4.1,7.2,2.3.3,5.8-.7,4.7,3.1ZM1011.6,735c-2.6-5.4,6.8-21,12.4-17,4.2,3-5.9,19.8-12.4,17ZM1042.1,807.3c.6.9,1.9,4.8.8,5.8l-7.7-6.7c1.3-2.8,5.7-.8,6.8.8ZM1040.4,773.1c.9.6,1.2,19-4.6,18.5l-4.4-8.7c4.4-3.6,1.5-10.4,9-9.7ZM1040.4,815.2c-.4,2.6-.8,6.3-3.3,7.5l-3.8.3-2.1-3.6c6,2.1,5.5-.7,9.2-4.1ZM1006.8,661.4c5.2-5.6,9.8-4.6,16.4-1.1,5.2,2.8,7.3,14,4.3,18.3-.8,1.1-2.2,1.6-3.2,2.4-3.8,3.3-3.8,4.1-9.9,3.5-12.5-1.4-16-14.1-7.6-23ZM999.3,772c.5-.2,8.2,2.5,9.3,3.1-4.5-7.2,9.3-16.3,9.3-7.7,0,5-4.8,7.6-9.3,7.7,1.2.7,8.7,6.9,9.3,7.9,1.3,2.2.8,4.1-.2,6.4-6.7.9-18.4-5-19.3-12-.3-2.1,2-3.3.9-5.4ZM986.5,682.8h3.5c0,1.7,1,9.9-2.5,9.1-3-1.4-4-8.1-.9-9.1ZM983.3,785.4c.8-1.7,3.6-3.6,5.6-3.1,1.4,6-8.6,9.7-5.6,3.1ZM968.4,735c4.6,1.4,9.7,2.5,7.2,8.2-4.7-.2-8.3-3.2-7.2-8.2ZM753.1,913.8c4.3-5.2,8.6.4,9.8,5.1-4.2.4-9.5-.1-9.8-5.1ZM757.2,892.2c-5.9-.1-2.9-10.7-.5-8.2-.6,3,3.9,5.9.5,8.2ZM794.4,1009c-.6.6-4.3,3-4.8,2.4l-.9-6c.7-.3,1.9-.6,2.3-1.2,1-1.5,2.5-6.9,4.2-6.1,3.1,2.4,1.3,8.6-.8,11ZM801.9,986.7c-2.9.4-4.8,1.7-7.6,0-1.1-.7-1.4-2.4-1.8-2.7-1.4-1-9.2-2.2-13.8-5.8-5-4-14.5-16.4-6.5-21.6,2.6-1.7,15.9-1.2,19.8-1.4.6.2,4.8,5.4,5.5,6.4.3.5,2.5,4,2.4,4.2l-4.1,4.2v1.9c.9,2,3.6,1.8,4.5,2.6,1.3,1.2-.6,3.6,3.7,3.7l-4.1,2.1,2,6.6ZM800.3,941.5c-1.5.3-3.4-.9-4.6-.5-2,.8-2.3,4.7-6.1,2.5l4-3.7-2-5.6c4.8,2.7,4.5-1.9,5.8-2.1,1.9-.4,5.2,1.6,7.5,1.1l-1,5.1,5.1-2c-1.2,2.7-6.1,4.5-8.8,5.1ZM788.1,802.8l4.1-3.8c4.6,1.6,9.8,5.1,4.6,9.5-4.9,2-8.8-.4-8.7-5.7ZM810.2,913.3c-11.2,3.7-12.9-17-6.5-18.9,8-2.4,13.4,16.6,6.5,18.9ZM830.6,948.5l-12.2,3.2c-1,1.2,2.6,7.1,3.1,8.7.7,2.6-2.3.8-2.8.2-.8-1-3.9-9.4-3.4-10,1.9-.3,4.9-.4,6.5-1.3,1.5-.8,1.5-2.4,2-2.7.7-.4,2.2,1,3.4,0,1.5-1.2,2.2-4.4,2.5-6.3,4.9,0,1.5,5.1.9,8.1ZM849,974.2h-3.8c-2.2-3.7.5-8.5,5-8,.8,3.1.4,5.2-1.2,8ZM848.9,956.8c-2.3-.8-1.4-5.8-4.7-4.9-.3,3.7-4.8,2.2-7.3,2l5.1-2.1c.3-2-3-4.5-3-4.8-2.5-11.1,6.5-22.3,15.9-12.6,5.9,6.1,3.5,12.5,4.5,19.9-.7,2.7-9,3.2-10.5,2.6ZM864.6,929.2c-2.8,1.3-3.2-2.1-3.7-2.1-1.4-.1-3.1,1.1-4.9,1-2.6-.2-13.5-2.3-13.7-5.5,1.4-10.9,15.3-17.1,21.4-6.7l4-2-3.1,15.4ZM845.1,838.3c1.3-1.5,4.5-1.7,5.9-.2.7.7,1.1,2.1,1.1,3.2-1,4.9-12,2.7-7-2.9ZM872.9,925.1c1.4-2.9,1.9-7.5,5.6-8.2,4.1.9-1.3,11.4-5.6,8.2ZM887.2,913.7c-6.8,3.8-24.9-2.9-19.5-11.6,3.9-6.2,12.4-1.7,16.9,1.3,2.1-2.8,3.6-5.5,7.8-5.1-6,5.8-6.2,7-5.2,15.3ZM889.2,889c-4,2.2-11.2,1.5-12-3.7-1.5-9.7,15-4.3,12,3.7ZM886.2,847c.9,4.6-2.5,9.3-7.2,9.2-1-5.6,1.4-9.2,7.2-9.2ZM887.7,867.6l.6-5.1h6.1c.3,3.3.2,6.1-3.6,6.8l-3.1-1.6ZM901.1,916.9c-2,.3-3.2,3.4-3.8,3.8-.4.3-3.8,0-4.8.3l-1.1-6.1c3.1.2,10.8-3.5,9.8,2.1ZM902.2,788.5c3.1-.9,8.3,3.2,8.6,6.6-.9,4.4-14.3-2.8-8.6-6.6ZM915.8,905.3l-7.3-.8-3.7,3.1c-1.5-3.5,1.9-4.3,2-4.8.5-2.5-1.3-9.5,3.4-9.4.8,0,5,1.6,5.6,2.1,2.7,2.5,2.6,7.2,0,9.8ZM918.1,889.1l7.6-.9c5.6,6.7-5.1,4.6-7.6.9ZM934.5,856.2c-6.3.6-7.2-2.6-7.2-8.2,3.8,1,8.1,3.8,7.2,8.2ZM928.4,878.3c-2.8,4.5-7.1,3.6-11.6,2.3-9.7-2.8-10.1-8.3-6.9-17,10.4-.3-1.5-6.1-3.1-7.9-4.3-5.1-.9-11,6-7,4,2.3,4.3,11.4,11.4,8.7-3.4,7.7,8.4,14.2,4.2,21ZM956.9,791.7c1.6,3,4.9,4.4,4.3,8.5-.3,2.3-5.4,6.4-7.6,6.5-5.3.2-1.7-5.9-1.2-8.5.5-2.7-2.3-6.2,4.4-6.5ZM951.9,761c-.7,2.8-9.6,8.8-11.8,3.8-1.1-3.6,1.7-8.3,5.4-9.1,3-.6,7.1,2.3,6.3,5.3ZM940.8,731.4c6.5,1.4,6,16.8-2.9,9.5-3.9-3.2-3.1-10.8,2.9-9.5ZM930.1,739.4c3.5.3,6.7,3.9,6.5,7.4-.3,5.8-12.1,14.7-17.3,9.7-2.2-8.4,4.3-13.6,10.8-17.1ZM920.1,787.4c.9,2.6,1.2,4.6-1,6.7-3.9,0-1.1-4.9-1.3-7.1-.3-2.8-5.1-7.1-3.4-9.9,4.8-7.6,18.6,10.9,5.7,10.3ZM916.6,755.6c-3,4.2-13.9-1.4-14.8-4.9-.3-1.2.3-4.9,1-5.3,3.9-2.5,17.2,5.5,13.8,10.2ZM906.5,670.6c3.4,3.4-.2,8.3-4.5,5-4.2-3.4.5-8.9,4.5-5ZM888.3,579.9h5c0,.1,1,7.5,1,7.5-4.7,5.3-6.8-3.5-6-7.5ZM881.3,736.7c2.7-1.1,6.1.2,9-.7-2.9,4.1,7.5,21.7.5,21.6-4.1,0-15.8-18.4-9.5-21ZM856.9,621.5c9.3.5,15.3,13,9.7,20.5-1.5,1.9-7.9,2.9-10.4,2.5-12.4-2.3-9.7-23.6.8-23ZM858.5,732.5c-.6,11.6-18.2,5-11.4-5.2,1.2-1.8,8.5-1.7,10.1-.1,1,1,1.4,3.9,1.3,5.4ZM845.8,658.2c6.6-.6,9.7,13.4,2.8,16-2.9-.6-8.1-.9-8.6-4.4-.6-3.6,1.4-11.2,5.9-11.6ZM827.8,800.5c0-.6,4.9-9.1,5.5-9.9,2.6-3.3,10.3-4.5,14.5-6,7.1-2.5,6.9-5.2,16.2-3.2,7.4,1.6,13.3,9,16,15.8.9,2.3,2.7,11.3,3.2,11.7,1,.8,4-1.4,5.4,3.2,1.1,3.7.9,8.7,1.7,12.7.5,2.5,2.6,4.2,1.6,7.6l9.6,10c-7.9,1.6-15-9.9-22.3-11.6-6.3-1.4-18.7,2.4-26.5,1.9-2.6-.2-12-2.5-13.8-3.7-1.6-1.1-4.8-9.7-8-11.5.8-5.2-3.8-12.5-3.1-17ZM835.8,830.5c-5.5,2.5-15.9,3.6-18.9-3-4.9-10.7,23.4-3.2,18.9,3ZM814.3,734.1l6.9.2c3.1,9.7-7.5,8.6-6.9-.2ZM815.1,848.8c0,10.2-11.3,19.3-21.5,16.3-.7-.5-2.1-8.1-1.8-9.1.2-.9,9.7-10.4,10.8-10.8,3.4-1,11.3-.4,12.5,3.6ZM795.8,650.9c3.2-1,7.3-1.6,6.7,3l-1.6,2.6c-3.7.8-6-2.3-5.1-5.7ZM789.1,745.2c-6.4,1.4-10.9-8.6-7.5-12,8.1-7.9,17.1,9.9,7.5,12ZM777.9,562.6c3.8-1.2,6.2,2.7,3.5,4.6-4,2.8-7.5-3.3-3.5-4.6ZM770.9,632.6c2,1.9-.2,3.8-.9,5.8l-3.8-1c-1.3-3.9,1.1-8.2,4.7-4.7ZM757.8,674c7.6-5.7,12.4,2.5,14.8,8.7,4.8,12.2-6.8,11.2-12.5,4.8-2.7-3.1-6.5-10.3-2.3-13.5ZM751.1,839.8c4.7-1.4,7.8,9.9,7.7,13.3,2.3-.1,3.5-2,6.2-1.6,4.3.6,8.6,2.8,8.2,7.8l4.1-1-8.2,9.7c5,2.2,6.4,15.5,1.7,17.3-8.9,1.4-16.5-7.7-10-15.3.9-1.1,3.1-1.3,3.1-2,0-2.6-2.7-1.9-4.2-3.3-3.8-3.7-1.2-7.9-1-11.6-6.1.4-12.4-11.9-7.7-13.3ZM651.4,1018.5l-1.6-6.2c-4.7.2-18.9.9-18.3-6.4.7-8.6,24.2,0,21.1,5.2-.2.3-2.4,0-1.7,1.7l3.1,3.1-2.6,2.5ZM670.3,966.7c-1.8-.4-2.8-3-5-2.6-1.7,4.3.7,7.1,1,11.3-3.3,1.6-4.7-4-5.6-4.1-.9,0-4.1,3.9-10.5,1.2-1.6-.6-6.9-6.8-7.1-7.9-1.6-11.4,18.4-14.3,22.7-3.6,4.7-3.6,6.3-3.8,11.7-.9,1.6,4.3-3.6,7.4-7.2,6.5ZM663.2,908.1c4.9-2.3,7.6,3.5,4.9,5.4-4.4,3.1-12-2.1-4.9-5.4ZM683.7,1015.6l2.2,5c-8,3.2-12.2-5.1-2.2-5ZM696.1,1001.1c-.4.5-10.3,2.7-11.3-.5,2.4-5.8,14.8-3.8,11.3.5ZM702.3,1004.2l-1-8.7c6.5-3.4,4.5,11.3,1,8.7ZM704.3,941.5c2.2-2.7,7,10.7,6.2,12.3-4.2-2.5-6.7-7.5-6.2-12.3ZM708.4,1018.5c1.5,1.7,3.9,3.9,4.1,6.2-1.3,1.3-8.1-6.6-8.8-8.1-.7-1.6-1-2.5,1.1-2.1,1.3,1.3,2.4,2.7,3.6,4.1l.6-3.2c1.3-.5,3.6-.6,4.6-1.4,1.4-1.3.1-3.8,2-3.6l.6,5.2c-3.9.2-3.1,4.2-7.7,3ZM712.5,951.3c-.5-16.4,12.5,9.1,9.3,14.9-5.7,1.9-9.2-10.5-9.3-14.9ZM724.9,945.6l2.9.2,2.2,10.1c-4.9-.6-5.5-6.4-5.1-10.3ZM729,989.8c-4.1-1.8-10.7-14.6-4.1-15.4,1.3,5.2,5.1,9.7,4.1,15.4ZM729,905.6c-2.8,2.9-8.9-8.7-8.2-11.3l-5.1,1-.5-3.1c3.4-.6,6.2-9,7.2-9.2,3.9-.9,7.6,19.3,6.7,22.6ZM732.1,1015.5c-5.6-4.7-12.6-10.4-12.3-18.5,2-2.3,10.7,12.1,11.3,13.8.6,1.5,1.2,3,1,4.7ZM737.2,991.8c.3,3.8-3.6,5.3-6.5,6.3-4.7,1.7-1.3-3.9,1-5.2,1.8-1,3.5-1.3,5.5-1.1ZM730.9,786l-2.1,5.3h-4.8c-3.2-5.9,2.5-11.6,6.9-5.3ZM720.2,835.7c2.5,2.2,4.1,6.7,1,9.2-1.3,0-4.3-7.9-1-9.2ZM713.2,725.9c3.4-.9,5.9,5,2.8,6-4.5,1.4-7.3-4.8-2.8-6ZM698.9,826.7c10.9-3.3,19.1,9.9,18.4,19.4-2.6,3.7-13.4-1.3-16.1-3.6-3.9-3.2-9.5-13.6-2.3-15.8ZM680.6,794.7c1.5,4.8,6,11.5,2.6,16.4-3.7.1-11.2-17.8-2.6-16.4ZM670,861.6c4.5-2.2,7.6-5.5,12.9-4.1.4.1,7.4,3.8,7.7,4.1,1.7,1.7,1.6,7.9,1.1,10.3-.9,4-6.7,6.5-6.9,9.4-.2,2.8,3.1,13,3.8,16.8.8,4.3.8,9.4,1.8,13.6,2,8.3,7.8,15.3,9.8,23.6-2.7-1.6-3.4-5-5.7-7.2-2.8-2.7-7.1-3.3-9.3-5.1-1.7-1.4-2.3-4.4-4-6.3-5.9-6.1-10.8-8.5-14.2-17.8-1.5-4.2-3.3-24.4-2.9-28.9.1-1.4,2.6-7.9,3.3-8.5.2-.2,1.7.5,2.6,0ZM661.7,822.4c1.5,0,4.2,8.3,3.6,10.2-1.6,1.9-8-8.2-3.6-10.2ZM651.9,910.7c1.7-2,9,8.9,9.7,9.8.5.7,3.1,1.6,2.2,3.5-3.2,6.8-14.3-8.8-11.9-13.4ZM640.6,876.8c5.3-1.7,7.4,10.7,5.1,12.3-5.2-1.4-5.4-7.8-5.1-12.3ZM638.6,1000.1c-1.9-5-10-9-1.8-13.5,13.1-7.2,13.7,10.8,1.8,13.5ZM630.8,812.1c5.1,1.5,5.6,7.8,5.6,12.3-4.6.6-9.5-11.5-5.6-12.3ZM28.1,637.5c.4,1.2-1.1,3.7-.9,4,.3.4,3,.6,3,2.2-6.4,1.2-11.2-5.9-2.1-6.1ZM46.1,760.8c1.6-2.5,4.8-1.7,6.3.2.8.9,1.8,7.5,1.3,7.9-5.6,1.3-11.3-2.6-7.6-8.1ZM57.7,804.7c-3.8,2.2-4.3-4.5-3.9-7.4.5-3.5,3-5.5,6.1-6.8,0,3.1.6,12.6-2.2,14.2ZM67.3,795.5c-3.9-2.4,2-8.6,6-1.4-1,1.7-4.7,2.2-6,1.4ZM80.5,763.3c-2.5,1.7-18.5,6.1-18.5,2,2.3-2.7,7.6-4.9,11-5.4,2.6-.4,11,1,7.5,3.4ZM94.7,643.8l2.1,5.3c-6.5,8.4-15.3-8.1-2.1-5.3ZM95.6,788.6c1.7-.5,12.7-.7,12.7,1.4-3,5.6-20.5,1.1-12.7-1.4ZM115.5,708.4c7.6-1.3,7.1,10,7.1,15.4-5.3,1.3-9.3-13.5-7.1-15.4ZM141.3,684.5c-2-1.2-7.3-15.9-7.3-18.7,0-4.2,3.9-12,8.7-11.9,5.6.2,7.7,10.5,7.7,14.9,0,3.5-3.1,19.2-9.1,15.7ZM149.4,753.5l-3.1-8.2,6,2.2c.6,2.4.5,6.3-2.9,6ZM160.7,773.1c.6-.4,4.2.5,4.9,1.3.9,1,1.2,4.2,1.9,5.9.4,1,2.2,1.9,2.3,2.6,0,.5-3.8,9.1-5.4,8.7-4.3-.9-4.5-14.7-3.6-18.5ZM157.6,813.1c0-1.7.4-4.5,1.3-5.8,1.8-2.5,8.2-3.5,5.8.2-1.4,2.2-4.8,4.6-7.2,5.7ZM164,822.6c-2.6-1.2-2.9-4.8-3.3-7.5,3.7,3.4,3.2,6.2,9.2,4.1,0,3.2-3.1,5-5.9,3.4ZM172.1,675.7c-.2-1.2.7-8.4,1.1-9.8,1.8-6.5,9.3-6.9,14.7-8.9.9,0,5.5,3.6,6.3,4.4,9.9,10.6,2.5,24.5-11.3,23.2-3.4-.3-10.2-5.7-10.8-8.9ZM189.4,735c-6.4,2.8-16.5-14-12.4-17,5.6-4,15,11.6,12.4,17ZM182.2,814.1c-3.4.6-7.9-1.7-8.8-5.1-1-3.8,2.4-2.8,4.7-3.1-.8-3.2-.3-8.3,4.1-7.2v7.2c-1.3.1-2.8-.2-4.1,0,.6,2.3,5.6,4.1,4.1,8.2ZM202.7,777.4c-.9,7.1-12.5,12.9-19.3,12-.9-2.3-1.5-4.1-.2-6.4.6-1,8.1-7.2,9.3-7.9-4.5-.2-9.3-2.7-9.3-7.7,0-8.6,13.8.5,9.3,7.7,1-.6,8.8-3.3,9.3-3.1-1.1,2.1,1.2,3.3.9,5.4ZM211,682.7h3.5c3,1.1,2.1,7.8-.9,9.2-3.6.8-2.5-7.5-2.5-9.2ZM212,782.3c2.1-.5,4.9,1.4,5.6,3.1,3,6.6-7,3-5.6-3.1ZM225.4,743.3c-2.5-5.7,2.6-6.8,7.2-8.2,1.1,5-2.5,8-7.2,8.2ZM211.6,897.3c-2.8-.8-1-9.2,1-9.9,9.1.3,8.3,9.1-1,9.9ZM238.6,908.5h-6c0,.1,5.1-3.5,5.1-3.5l-4.1-2.6c-.2-1.9.3-4.6,2.2-5.4,1.1-.5,9.9-2.4,10.8-2,2.6,1.3,3.5,6.1,2.1,8.3-.3.5-1.9-.2-1.7.7l3.1,2.6c-5.3,1.7-10.8-5.8-11.4,1.9ZM250,917.9l-5.7-2c-4.1-6,10.7-8.9,5.7,2ZM434.9,637.3l-3.8,1c-5.3-7,5.7-10.9,3.8-1ZM434.3,673.1c4.8-2.4,12.1.6,10.9,6.7-.1.6-3.8,7-4.3,7.6-2.7,3-11.2,7.2-13.6,2.4-1.4-2.9,4.7-15.6,7-16.7ZM420.3,562.6c3.8-1.2,6.2,2.7,3.5,4.6-4,2.8-7.5-3.3-3.5-4.6ZM419.4,733.2c3.4,3.3-1.1,13.4-7.5,12-9.6-2.1-.7-19.9,7.5-12ZM412.9,802.8c0,5.3-3.8,7.6-8.7,5.7-5.1-4.4,0-7.9,4.6-9.5l4.1,3.8ZM405.2,650.9c.9,3.4-1.4,6.5-5.1,5.7l-1.6-2.6c-.5-4.6,3.5-4,6.7-3ZM379.8,734.2l6.9-.2c.5,8.9-10,9.8-6.9.2ZM361.1,669.8c-.6,3.5-5.7,3.8-8.6,4.4-6.5-2.6-4.2-15.4,2.1-16,4.9-.4,7.2,7.8,6.6,11.6ZM342.5,732.5c0-1.4.3-4.4,1.3-5.4,1.6-1.6,8.9-1.7,10.1.1,6.8,10.2-10.8,16.8-11.4,5.2ZM344.1,621.5c10.5-.6,13.2,20.7.8,23-17.7,3.2-15.4-22.1-.8-23ZM320.7,737.4c4,3.9-7.2,21.6-11.5,20.3-5.1-1.5,4.4-17.3,1.5-21.6,2.9,1,7.8-.8,10,1.3ZM307.5,580.5l5.3-.6c.6,2.7-.4,10.6-4.6,9.2-2.8-2.2-1.5-5.9-.6-8.6ZM294.5,670.6c3.9-4,8.7,1.6,4.5,5-4.2,3.4-7.8-1.6-4.5-5ZM298.2,745.5c.7.4,1.3,4.1,1,5.3-.9,3.5-11.8,9.1-14.8,4.9-3.3-4.7,10-12.6,13.8-10.2ZM286.6,777.2c1.8,2.8-3.1,7.1-3.4,9.9-.2,2.1,2.6,7-1.3,7.1-2.2-2.1-1.9-4.1-1-6.7l-4.2-.5c-4.5-5.3,6.1-15.8,9.9-9.8ZM249.9,805.8c-1.8,2.9-9.2-2.2-10-4.7-1.3-4.4,2.4-6.6,4.5-9.6,6.4,1.2,3.4,4.1,4,6.8.4,2,2.7,5.5,1.4,7.5ZM259.3,766.4c-5.3,2.6-15.4-8.2-6.4-10.7,6.1-1.6,11.3,8.3,6.4,10.7ZM263.1,740.9c-8.9,7.3-9.4-8.1-2.9-9.5,6-1.3,6.8,6.3,2.9,9.5ZM264.5,746.8c-.2-3.3,2.3-6,5.1-7.2l1.4-.2c1.7,1.3,3.8,2,5.5,3.3,4.2,3.1,6.8,8.5,5.3,13.8-5.2,5-16.9-3.8-17.3-9.7ZM266.5,856.2c-1-4.5,3.4-7.2,7.2-8.2,0,5.6-.9,8.8-7.2,8.2ZM276.8,857.3c6.9,2.7,7.4-6,10.7-8.3,3.8-2.6,9.5-2.6,8.3,3.1-1.2,6-8.6,4.9-8.8,11.3h4c3.3,8.9,2.9,14.3-6.9,17.2-4.7,1.4-9.5,2.2-12-2.8-3.2-6.5,7.8-12.9,4.6-20.5ZM273.7,891.7c-1.3-5.6,6.3-1.9,9.2-2.5-.6,2-8.6,5.1-9.2,2.5ZM296.3,907.6l-3.7-3.1-7.3.8c-4.2-4.7-1.1-11,4.9-11.7,6.1-.7,3.1,6.6,4.5,9.6.1.3,3.1.8,1.7,4.4ZM290.3,794.3c.1-1.9,4-5.1,5.8-5.6,10.4-2.7-2.2,13.9-5.8,5.6ZM308.7,832.9c1.5-2.6,2.3-16.4,3.3-20.1,1.4-5.4,4.7-3.2,5.8-4,.6-.5,2.9-12.1,4.7-15.3,4.5-8.2,12.9-14,22.5-13,2.1.2,5.8,3.2,8.1,4,4.2,1.5,11.9,2.8,14.5,6,1.4,1.8,5.5,9.4,5.5,11.5,0,1.4-2.6,13.9-3.1,15.5-.6,1.8-3.2,3.2-4.3,4.9-1.2,1.8-2.3,5.6-3.7,6.6-1.8,1.2-11.3,3.6-13.8,3.7-7.8.5-20.2-3.3-26.5-1.9-4.6,1-18.9,14.7-22.3,12.1-1.5-1.2,9-9.4,9.3-10ZM356.8,842.8c-.9,1.5-7.2,1.8-7.9-1.6,0-7.6,10.9-3.2,7.9,1.6ZM323.9,885.3c-.8,5.2-8.1,5.9-12,3.7-3-8,13.5-13.4,12-3.7ZM310.2,869.2c-3.8-.6-3.9-3.4-3.6-6.8h6.1c0,0,.6,5.2.6,5.2l-3.1,1.6ZM314.8,847c5.8,0,8.1,3.6,7.2,9.2-4.7,0-8.1-4.7-7.2-9.2ZM308,921c-4.7.5-5-2.3-8.6-4.7,1.1-5,6.9-1.2,10.3-1.5l-1.7,6.2ZM322.5,916.9c3.8.7,4.3,5.3,5.6,8.2-4.3,3.2-9.7-7.3-5.6-8.2ZM324.1,914.4c-3.9.8-6.5-.3-10.3-.7,1-8.4.8-9.6-5.2-15.3,4.1-.4,5.6,2.3,7.8,5.1,1.6.4,10.5-9.1,16.6-1.8,4.6,5.5-3.8,11.5-8.9,12.6ZM339.7,927.4c-.4.2-.2,2.9-3.3,1.8l-3.1-15.4,4,2c6.2-10.4,20-4,21.4,6.7-.2,3.2-11,5.3-13.7,5.5-1.9.2-3.8-1.4-5.3-.7ZM355.8,974.2h-3.8c-1.6-2.8-2-4.9-1.2-8.1,4.5-.4,7.2,4.4,5,8.1ZM356.9,951.9h-1.5c-2,6.4-7.6,5.8-12.9,3.5-.6-.6-1-8.7-.9-10.2.9-8.2,8.7-19.7,17.1-12.7,5.2,4.4,4,14.4.3,19.2l5.1,2.1c-2.5.2-7,1.7-7.3-2ZM384.2,827.5c-3.1,6.6-13.5,5.6-18.9,3-4.4-6.3,23.9-13.7,18.9-3ZM380.1,962l2.6-10.3-12.2-3.2-2-6.6,2.8-1.5c.4,1.9,1,5.1,2.5,6.3,1.2,1,2.8-.4,3.4,0,.5.3.5,1.9,2,2.7,1.6.8,4.6.9,6.5,1.3.6.7-2.8,11.2-5.7,11.3ZM390.6,845.2c2.3-.5,6.4-.7,8.5.3.6.3,8.8,8.4,9.4,9.2,1.5,2.3,0,7.6-1,10.4-10.2,6.2-31-16.7-16.8-19.9ZM393.6,894.4c10.1-3.1,9.7,19.3-.2,19.4-10.8.1-4-18.2.2-19.4ZM397,938.4l-1-5.1c2.2.5,6.4-1.9,8-.8,1.2.8.2,4.3,5.3,1.9l-2,5.6,4,3.7c-3.8,2.4-4.6-2.4-6.6-2.7-1.1-.2-2.8.8-4.9.4-2.3-.4-6.3-2.6-8-4.4l5.1,1.5ZM411.4,1011.3c-5.8,0-11-12-4.1-13.3.7,2.9,1.8,6.5,5,7.3l-.9,6ZM423.2,976.9c-5.8,5.2-12.1,5.3-14.6,7-.5.3-.8,2-1.8,2.7-2.8,1.8-4.6.5-7.6,0l2-6.6-4.1-1.6c-.3-2,2-.4,2.9-1.2.5-.4-.2-2.1.8-3,1.4-1.2,5.1-.4,4.5-4.5,0-.3-3.4-3.9-4-3.8v-1.9c2.6-.4,5-7.2,6.5-8.4,3-2.5,9.9-.2,13.5.1,3.6.4,6.8-2.1,9.6,2.7,3.8,6.3-3.2,14.3-7.7,18.3ZM438.1,918.9c1.2-4.8,5.5-10.3,9.8-5.1-.3,5-5.6,5.5-9.8,5.1ZM443.1,888.4c.4-1.5.9-5.2,3.3-4.4,1.3,3.4,2,7.2-2.5,8.2-2.4-1.7-1.2-1.9-.7-3.8ZM442.2,853.2c.2,3.7,2.8,7.9-1,11.6-1.1,1.1-2.9.9-3.7,1.7-2.2,2.2,1.5,2.2,2.6,3.6,6.5,7.6-1.1,16.8-10,15.3-4.6-1.9-3.2-15.1,1.7-17.3l-8.2-9.7,4.1,1c-.4-5,3.9-7.2,8.2-7.8,2.7-.4,3.9,1.5,6.2,1.6-.2-3.4,3-14.8,7.7-13.3,4.8,1.4-1.6,13.7-7.7,13.3ZM560.4,876.8c.3,4.6,0,10.9-5.1,12.3-2.3-1.6-.2-14.1,5.1-12.3ZM564.2,986.5c8.2,4.5.2,8.6-1.8,13.5-12-2.8-11.4-20.8,1.8-13.5ZM549.1,910.7c2,4.2-6.3,16.6-10.2,14.9-.6-.6-1.7-1.3-1.9-2.1-.1-.9,10.6-14.6,12.1-12.8ZM532.9,913.6c-2.8-2,0-7.7,4.9-5.4,7.1,3.3-.5,8.6-4.9,5.4ZM539.4,822.4c4.4,2-2,12.1-3.6,10.2-.6-1.9,2-10.2,3.6-10.2ZM520.1,795.9c.7-1.2.6-2.3,2.8-1.3,3.9,1.7-.9,16.2-5.6,16.4-1.3-5.1,0-10.7,2.8-15.1ZM498.7,843.3c-.7.5-9.3,4.3-9.9,4.4-11,1.7-2.1-19.2,6.6-21,14.1-2.9,11.8,11,3.3,16.6ZM490.6,953.8c-.9-1.6,3.9-15,6.2-12.3.5,4.8-1.9,9.8-6.2,12.3ZM472.1,905.6c-.9-3.4,2.8-23.5,6.7-22.6,1.8.4,2,4.7,2.9,5.9.7,1,3.6,1.7,4.3,3.4l-.5,3.1-5.1-1c.7,2.6-5.5,14.2-8.2,11.3ZM475.3,977.1c.5-1.1.6-3.5,2.4-2.7,3.9,1.8-1.9,14.4-5.6,15.4-.6-4.5,1.4-8.7,3.3-12.7ZM471,955.9c-1-1.2.8-12.4,5.1-10.3.4,3.9-.2,9.7-5.1,10.3ZM486.1,725.9c3.9-1.1,5.7,4.6,1.8,6-5.6,1.9-4.9-5.1-1.8-6ZM480.8,835.7c3.2,1.3.3,9.2-1,9.2-3.1-2.5-1.4-7,1-9.2ZM475.9,783.6c2.8,1.1,2.2,5.4,1.2,7.8h-4.8c0,0-1.8-6-1.8-6,1.4-1.9,3.2-2.6,5.5-1.8ZM465.1,995.7c-.6-.6-1.8-3.4-1.3-3.8,2.9-1.2,9.3,3.1,9.2,5.7,0,2.7-7.3-1.2-7.9-1.8ZM469,1015.5c-.2-1.7.4-3.2,1-4.7.7-1.7,9.3-16.1,11.3-13.8.3,8.1-6.7,13.7-12.3,18.5ZM483.1,965.9c-1.1.6-2.6.1-3.9.2-1.3-3.6,3.6-21.4,7.7-20.5,4.5,2.5-1.6,19.1-3.8,20.3ZM497.3,1016.6c-.7,1.6-7.5,9.4-8.8,8.1.2-2.3,2.6-4.4,4.1-6.2-4.6,1.2-3.8-2.8-7.7-3l.6-5.2c1.9-.2.6,2.3,2,3.6.9.8,3.3.9,4.6,1.4l.6,3.2c1.2-1.4,2.4-2.8,3.6-4.1,2.1-.4,1.8.6,1.1,2.1ZM497.2,1004.2c-2.8-1.4-2.7-10.9,2.5-9.2.3,1.1.2,10.6-2.5,9.2ZM500.8,935.3c2-8.3,7.8-15.3,9.8-23.6,1-4.2,1-9.3,1.8-13.6.7-3.8,3.9-14,3.8-16.8-.2-2.8-5.6-5.3-6.7-8.6-.8-2.6-.9-7.6.2-10.1.6-1.3,8.5-5.3,10.1-5.5,4.2-.4,7.4,2.6,11.1,4.4.9.5,2.4-.2,2.6,0,1,1,3.3,7.7,3.3,9.6.2,5.3-1.3,23.2-2.9,27.9-3.3,9.3-8.2,11.7-14.2,17.8-1.7,1.7-2.1,4.4-3.5,5.8-2,2-7,2.9-9.8,5.6-2.2,2.2-2.9,5.6-5.7,7.2ZM505.6,1001.1c-2.7-6.5,8.8-4.9,10.6,0-4,2.6-6.4.8-10.6,0ZM515.2,1020.6l2.6-5.2c9.9.9,4.6,8.3-2.6,5.2ZM540.4,971.3c-1,0-2.3,5.7-5.6,4.1.3-4.2,2.7-6.9,1-11.3-2.2-.4-3.2,2.1-5,2.6-3.6.8-8.8-2.3-7.2-6.5,5.4-2.9,6.9-2.7,11.7.9,4.3-10.7,24.3-7.7,22.7,3.6-.3,1.9-6.2,7.9-8.5,8.5-5.6,1.3-8.6-1.8-9-1.8ZM551.2,1012.4l-.5,5.2c-2.1,3.4-5.8-2.1-.6-4.7l-2.1-3.1c.6-4.7,16.7-10,20.3-6.4,7.4,7.2-12.7,10.8-17.2,9ZM564.5,824.4c0-4.5.5-10.8,5.6-12.3,3.9.8-1,12.9-5.6,12.3ZM482.8,1114c-5.6-4.3-5.7-9.3-2.4-15.2l4,.3c3,4.7,2.8,11.2-1.6,14.9ZM494.7,1186c-4-.8-9.1-1.1-8.1-6.4.5-2.8,1.9-4.4,4.7-3.1,5.1,2.4,3.7,4.7,3.4,9.5ZM496.7,1122.3c-1.8,1.7-2.1-1.4-2.5-2-1.9-2.8-4.2-5.7-3.6-9.2.5-.6,4.3,1.7,4.8,2.3,1.3,1.6,2.9,7.5,1.3,8.9ZM509,1124.8l2.8-3.5c11.1,2.4-2.8,9.6-2.8,3.5ZM520.3,1115.1c-2.9,2-6.6-4.3-5.1-7.2,4.9-1.9,7.9,5.2,5.1,7.2ZM557.5,1157.9c.3-1,3.8-3.3,4.8-3.5,4.8-1.2,11.7,3.4,12.2,8.5-4.5,10.8-16.6,5.2-16.9-5ZM612.3,867.6c4.2-1.3,6.4,9.5,4.6,12.3-4.9.4-8.7-11-4.6-12.3ZM600.1,783.4c3-.6,11.6,14.7,9.7,18.4-4.4.4-6.2-4.6-8.7-7.2-2.3-.5-5.8,9-9.7,7.2-.5-7.2,4-13.5,8.8-18.4ZM603.5,873.9c2,6.1,5.3,12,4.1,18.7l-2.4,1.8-5-3.1c-11.7,10.1-5.5-11.3-2.8-16.9l6.1-.5ZM597.4,822.4l2.1,3.1,2.1-.6,1.9-2.4c.9,9.3-7,9.4-6.1,0ZM588.7,867.6c4.1,1.3.3,12.8-4.6,12.3-1.8-2.8.4-13.6,4.6-12.3ZM580.6,1104.9c1.5-.5,6.4,1.2,7.3,2.3,7.2,8.9-15,9.1-7.3-2.3ZM591.3,1055c-1.7,1-4.3.4-6.2.5-.8-11.2,12.6-4.4,6.2-.5ZM594.6,1030.7c-7.3,2.1-12.9-10.2-3.6-12,6.4-1.3,10.7,9.9,3.6,12ZM593.3,957.9c1.5-2.1-1-5.2-.6-6.2,1.6-3.6,5.2-1.1,7.4-1.1,3.2,0,6.3-2.7,8.3,1.6l-.8,5.6c-6.2-4.5-8.2-4.5-14.4,0ZM607.4,1018.7c8.6-2.3,10.1,11,1.8,12.2-8.3,1.2-8-10.5-1.8-12.2ZM615.9,1055.5c-1.9-.1-4.5.5-6.2-.5-6.4-3.9,7-10.7,6.2.5ZM613.1,1107.2c.9-1.1,5.8-2.7,7.3-2.3,7.7,11.4-14.5,11.2-7.3,2.3ZM626.8,1163.4c-1.1-3.8,5.1-8.4,8.4-9.1,3.6-.7,6.1,1,8.4,3.6.9,9.3-13.7,15.8-16.8,5.5ZM685.8,1107.9c0,1.9.4,4-.9,5.7-4.6,6.1-8.9-7,.9-5.7ZM687.6,1121.4l2.4.4c7.6,8.9-11,5.6-2.4-.4ZM710.5,1111l-.8,4.8-5.4,6.4c-1.8-4.9.7-10.6,6.1-11.3ZM706.4,1186c-.3-4.8-1.7-7.1,3.4-9.5,2.8-1.3,4.1.3,4.7,3.1,1,5.3-4.1,5.6-8.1,6.4ZM720.6,1098.8c3.4,2,2.6,13.4-2.4,15.2-5.8-2.7-4-19.1,2.4-15.2Z"/>
  <path d="M566.1,1069.9c-2.8-3.2-6.4-14.4-8-18.7-.6-1.7-2.6-2.5-2.8-4.4-.3-2.4,2.1-5.3,2.1-8.2,0-1.2-1.8-8.4-2.1-8.7-5.3-3.7-8.2,10.2-10.9,11.1-3.1.7-5.6-.8-8.8-.7-5.1.2-12.5,4.9-15.8,4.8-2,0-3-2-5.7-1.6-2.5.4-6.4,4.9-9.3,6.2-7.2,3.2-12,1.7-18.9,2.7-.8-2.8,3.3-4.9,4.1-8.2.9-3.3.9-8.4-2.6-9.8v-2s2-1,2-1c-1.3-3-.3-4.6-4.4-3.5-3.4,1.1-.1,5.6-.6,6-5.5.4-16.4,5.5-12.3,12.3l-7.2,1.6v3.6c-1.4,1.5-7.9-6.2-7.7-8.3-5.8-1.6-2.6,5.5-7.7,4.2l5.2-9.2c3.2-.7,1.8,2,2,4.1l3.1-1,1.6,4.1c3.5-1.4,6.8-4.4,6.6-8.7-.1-1.9-2.3-3.1-2.7-5.2-.5-2.9.9-8.3-1.3-11.7h3.1s-1.5-4.1-1.5-4.1c-4.3,1.8-5.5,5.8-6.4,10-.7,2.8,1,7.1-2.3,8.5l-1-14.4-4.1,1c-1.8-1.9,4.9-21-1-23.6-.9,3.3-2.2,7.2-3.7,10.3-.7,1.5.2,2.6-2.5,2.1.4-4.4,3.2-7.5,3.8-12.1.7-4.6-.7-13.5,1.3-17,.6-1.2,8-4.1,7.2-9l4.1,2c-2.8-3.8-.8-9.6-1-14.9-.1-2.1-1.2-11.7-2-12.3-4.7-3.8-4.1,2.4-8.2,1.6l2,1.5c-4.8,3-3.7,24-6.1,25.8l-11.3-.6-2-5.1c-.5,2.4,1.1,5.1.6,7.2-.8,3.4-5.1,4.5-5.5,5.2-.2.3.8,1.8.4,2.9-3.6,9.7-5.1,18.4-5.8,28.7-3.3-.2-14.1,1.7-15.4,4.7,4.8,2.9,10.8,3.8,16.4,3.6l1,8.2-22.9-2-5.9-20.1,4.7-9.8c-4.1-3.6-7.1-4.9-12.9-4.1l2,3.1c-11.5,1.3-20.1-9-28.3-15.4-3.9-3-9.2-5.5-12.7-8.9-3.7-3.5-5.7-8.9-9.4-12.1-5.4-4.6-14.5-7.6-21.5-7.8l.5-2c3.7,1.9,7.4,2.2,7.7-2.5-2.5-3.2-6.6-1.7-9.2.4-.2-5.5-2.7-16.7-8.8-18.5-2-.3-1.4,0-1.6,1.5-.8,7,5.7,15.5,9.3,21-6.2,0-15.8,1.3-18.2-5.9-.6-1.9-.2-4-1.1-6.1-1.7-3.9-7.1-12.6-11.5-13.2-1.4-.2-2.2,1.6-3.4,1.4-1.3-.2-3.5-2.8-5.9-1.9-.6-2.8,2.3-4.7,1.9-7.5-.3-2.2-4.3-9.2-5.5-12.1-1.9-4.7-.8-9.6-7.3-12.2-7.1,3.3,3.3,8.8,5.8,12.2l-7.2-1.6c-10.5,9.3,7.7,13.5,8.2,21.6l-6.2-1.5,3,4.5c-1.3,3.1-5.8,5.1-7.7,1.7-.5-.9,1.1-2.9,0-5.2-.5-1-4.5-4.5-5.6-4.8-3,.5-4.4,3.1-3.1,5.8-11.3-3-21.6-8.8-31.7-14.5v-2.9c0,0,4-2.1,4-2.1-6,2.3-5.9-5-9.5-7-1.4-.8-14.3.8-17.3-1.7l2.6-3.6,2.6,3.1c-.6-5.1.2-8.8,6.2-8.2-2.7-3,.8-5.7.6-7.2-.3-2.1-4-7.4-3.7-10.7l2.1-1.1c-1.5-4.3-9.2-5.8-8.9-10.3,0-.8,1.5-1.9,1.7-3.2.2-1.8-.9-3.5-.7-4.9.3-2.3,4.5-7.4,3.8-10.9,10.6,2.2,13,15.6,24.7,17.5l-.6,2.1c-5.5,1.3-8.5,7.3-14.8,5.1l1,3.6,2-.5-1,8.2c9,.9,11.8,4.5,18.9-3.2l6.1-8,5.8,5c-2.5.1-6.4.9-6.2,4.1l11.3,3.1c-2.9,10.1,4.9,3.8,9.2,9.2l-.5-4.2c6.1-2.5,7.3-4.8,3.7-10.8l-7.2-.5c-.5-2,1.9-5.1,1.8-6.5-.2-3.3-3.1-4.8-3.6-6.6-1.2-4.1.9-9.9-2-14.2,6-4.6,10.6-10.2,14.1-16.9l2.1.6,4,6.1,2.6-.5c1-3.3.7-6.8-.2-10.1-1.1-4.1-4.5-5.5-4-9.5-.4-.7-10.5-5.8-11.3-5.9-1.6-.2-3.6,1-5.9.7-4.9-.5-4.9-3.6-10.8.7-3.3,2.3-7.9,8.1-10.7,10.3-.6.4-6.7,4.3-7.2,4.3-1,0-7.7-2.5-7.9-3.4.6-2.8,3.7-3.8,4.7-6.6.4-1,1.5-6.2-1.1-5.2-4.6,2.4-5.4,9.9-7.7,12.9-.9,1.2-2.9,1.3-4,3.2-2.3,3.9,1.5,13.2-5.3,11.1,2.8-9.1-7.2-33-16.9-19-4.7,6.7-2.2,14.4-2.6,21.5-3.8-3.4-5.9-4.4-4.2,1.9l-7.1,4.7c3.3,5.1,10.2.4,13.9-2.5,3.2,2,.5,8.1,1.7,10.1l4,3.2c-9.3-3.8-20.8-4.3-25.7,6.2l-2-.5c-.5-4,1.5-4.1,4.1-6.2l-4-1.6c-.6-.8,1.8-8.2,2.5-9.1.8-1.1,2.9-1.1,4.1-2.1,8.1-6.7,2.1-12.2-6.5-9.4l-4.2-6.7,3-2.9c-1.9-7.2-4.5-2.8-7.9-4.3-2.4-1-2.7-3.3-4.2-4.4-2-1.5-8.2-4.4-9-6.1-.7-1.4.9-4.2.6-6.6-.3-1.8-2.4-3.5-2.1-5.7-4.5,1.7-6.4,1.2-9.2-2.6,4.8-2,15.6.2,14.4-7.7-6.2-.8-17.4-2.1-21.6,3.6-.8,1.1-2.9,5.9-3,7.2,0,4,5.3,6.4.9,10.3-1.1,1-3,1-3.8,1.8-1.5,1.5-2,6.5-4.9,7.9l-4.2-10.2c-14.1-16.6-35.5,3.1-44,16.5-2.3,3.7-7.7,14.3-5.3,18.4.8,1.4,10.4,7.6,12.9,6.2-3.1,6.1-9.7,1-13.9,1-.9,0-2.1.1-3.3.4,10.4,22.5,22.1,44.2,35.1,65.1,2.1-.2,4.2-.2,6.7.3-1.8,2.9.8,8.3,2.6,3.1,2.8,6.6,11.4,3.9,16.2,5.3,1.4.4,2.2,2.4,3.5,2.7,1.9.5,5.9-1.2,8.5.1-.8-3.3-8.4-1.4-9.2-2.1,2.9-9.4,6.3-1.5,12.3-2,1.6,4.9-3.4,5.4-4,6.3-.3.4,1.9,6.2-.3,10.5-.8,1.6-2.9,1.6-2.9,2.3,0,4.1,8.8,13.5,12.9,9.7l1.5-3.5-4-3.2c3.7-5,9.4-3.4,14.8-3.7l1.6,3.1c-.5-3.5-.1-4.1,3.1-5.1l.2,2.9,2.9.2.5,3.1c3-2-1-4.6-.5-7.2l6.1,1.5c-4.5,1.8-2.4,3.6-3.3,6.9-.8,3.3-2.9,5.9-1.8,10-4.1-.4-8.6-7.7-12-4.8-5.1,4.3-2.1,8.6,2.1,12.7,1,1,6.4,1.8,4.3,4.4l-9.3,2.8c-1.2-.2-4.5-8.4-7.6-4.3l5,6.4c-.8,1.7-1.8,4.5-2.3,7.3,2.6,3.1,5.2,6.2,7.8,9.2,4.2-1.2,5.8-5.8,10.1-5.4l1-4.7c3.9,3.3,7.8,2.7,12.3,4.1,1-4-4.9-1.7-5.7-3-1.7-3,.3-7.9-6.7-8.3-1.5-2,5.3-5.9,7.2-4.7,2.4,7.3,4.1,3.8,8.2,5.1,2.8.9,4.1,4.4,6.8,4.8,1.9.3,16.6-4.6,18.4-6.2,6.5-5.9,5.4-7,6.8-14.8.3-1.7,1.8-2.8,2-4.2.4-3.6-2.3-9-1.5-12.8,3.3,3.2,6.5,5,5.8,10.2h2.9c-.6,5.9-4,17.3-2.8,22.9.6,2.6,3,3.4,3.9,4.6,2.1,3.3,2.6,6.3,3.6,8.4.8,1.8,4.9,4.3,6.2,6.2l1.7-2.9c2.7-1.1,3.7,1.9,5.8,2.7,4.4,1.7,11.5,3.1,16.2,3.4,2.1,0,9.8-1.1,10.8-.6,1.2.6,1.8,3,3.2,4.1,5.3,4.1,14,8.1,20.4,9.9,1.5,1.6-5.5,4.3-6,7.9-1.1,8.3,11.1,6.6,14.6,7.4,1,.2,10.1,14.5,15.6,5.2,3.1,1.6,2.5,6,3.9,7.9.3.4,6,6.2,6.9,7,4.6,4.1,12.3,7.5,18.5,6.2,2.4-.5,4.3-2.9,6.2-4.1,2.6-1.6,5.6-.7,7.1-5.3,4,.5,0,6.8,3.1,9.8-3.5.2-14.3,6.2-16.1,8.5-.5.7-2.9,10-2.9,11.1,0,12.3,7.8,23.9,15.6,32,.9,1,.8,2.9,1.5,3.6,1.3,1.1,8.8,2,11.1,2.3l-1,4.1c-11.1-4.5-8.2,22-3.1,25.2,6.3,4,5.3-12.4,5.2-15.5,0-1.9-1.3-4.7-1-6,.4-1.3,2.4-1.4,3-2.4.9-1.6.7-4.2,2.4-5.5,1.9-1.5,6.3-1.6,9.5-4.4,1.5-1.4,8-10.1,9-12,1-1.8.2-4.4,1.9-5.9-.6-1.7.8-3.8.7-6-.3-4.2-3.4-10.3-6.8-12.8-3.6-2.8-7.7-1.3-9.6-5.3,4.7-3.5,5.5.3,9,.9,2.1.3,3.8-.9,5.6-.6.7.1,7.8,3.2,8.5,3.8,2.2,2,1.7,4.4,2.9,5.9,2.2,3,10.7,5.4,10,11.6-8.5-4-12.3-1.3-19,4.1,1.2,2.7.9,6.3,2,8.6.7,1.4,2.7,1.5,3.3,2.3,6.3,8.1,10,11.5,20.6,13.9,6.1,1.3,9-6.9,10-6.9l2.6,1.5,3.1-4.7c1.8-.2.4,1.8,1.7,3.2,3.7,4.2,7.9,1.4,6.5-4.2h4c.9,4.9.7,14.9,7.7,12.5l1.1.8c1.5,6.8,2.3,11.5,6.3,17.4,3.7,5.5,3.2,5.4,5.8,11.7.6,1.4,2.3,2.3,2.7,3.5,1.2,4-2.8,4.5-3.7,7.2-.3.9-2.3,10.4-2.3,11,.2,2.6,4.9,14.7,8.9,18.7,1.1.2,2.2.5,3.3.7,2-2.2,1.3-7.3,1.1-10.1-.5-7.8-2.7-15.8-5.1-23.1.9-1,8,7.4,12.5-3.4,3.7-8.9,2.2-18.4.3-27.5-1.9-9.3-5.2-21.2-12.4-27.7l-7.2,7.2-.6-3c-6.6-1.8-7.1.5-7.1,7.1l-2.1-8.7c.3-4.9,8.7-1.4,9.3-2,.8-.7.7-2.7,1.3-3.3,2.5-2.6,7.6-7.6,11-5.5-2.1-1.3.7-9.7,1.2-10.1.8-.6,3.2.6,4.1-.7l.8-3.8c-5.9-3.9-4.6-11.8-9.1-17.1h5.1s0,3.1,0,3.1h3.1s0-3.6,0-3.6c5.8-2.9,8.9,1.4,13.7,2.8,2.2.6,11.8,2.1,12.9,3.1.6.5.4,3.7,1.7,5,1.6,1.5,4.9.9,6.7,2.6,1.1,1,3.4,5.9,5.1,7.9,7.4,8.5,12.5,10.6,20.8,16.6,5.3,3.8,4.7.1,8-1.8,3.2-1.8,13.6-7.5,16.5-8.3,2.6-.7,3.9.9,6.8-.2,1.7-.7,5.2-4.4,5.3-6.1-.7-4.4-8.2-3.8-9.6-5.5ZM163.6,867c-.3,1.1-2.2,1.2-2.7,1.9-.7,1-.4,3.1-1.1,4.6-.8,1.6-1.8,4.8-3.3,5.4-4.1-4.9,2-9.5-4.1-11.8,4-2.2,5.7-7.8,10.2-6.7-.7,1.9,1.2,5.4.9,6.6ZM429.9,1032.9c-.6-.8,4.2-4,6-2.9l2.3,5,3-1v4.1c-5.1.6-7.2-3.8-11.3-5.1Z"/>
  <path d="M1142.6,851.1c-4.2,0-10.8,5.1-13.9-1,2.4,1.4,12-4.8,12.9-6.2,2.5-4.1-2.9-14.7-5.3-18.4-8.5-13.4-29.9-33.1-44-16.5l-4.2,10.2c-2.9-1.4-3.4-6.5-4.9-7.9-.8-.8-2.7-.9-3.8-1.8-4.5-3.9.9-6.3.9-10.3,0-1.3-2.1-6.1-3-7.2-4.2-5.6-15.4-4.4-21.6-3.6-1.2,7.9,9.5,5.7,14.4,7.7-2.9,3.8-4.8,4.2-9.2,2.6.4,2.2-1.8,3.9-2.1,5.7-.3,2.3,1.3,5.2.6,6.6-.9,1.7-7.1,4.7-9,6.1-3.3,2.5-3,6.6-9.9,4.3l-2.2,4.5,3,2.9-4.2,6.7c-8.6-2.8-14.6,2.7-6.5,9.4,1.1.9,3.3.9,4.1,2.1.7.9,3.1,8.4,2.5,9.1l-4,1.6c2.6,2.1,4.6,2.2,4.1,6.2-2.1,1.8-3.1-2.7-5.7-4.6-7.7-5.8-13.7-3.7-22.1-1l4-3.2c1.2-2-1.5-8.1,1.7-10.1,3.7,3,10.6,7.7,13.9,2.5l-7.1-4.7-.6-5-3.6,3.1c-.4-7.1,2-14.8-2.6-21.5-9.7-14-19.7,9.8-16.9,19-6.8,2.1-3.1-7.2-5.3-11.1-1.1-1.9-3.1-2-4-3.2-2.3-3-3.1-10.4-7.7-12.9-2.6-1-1.4,4.1-1.1,5.2,1,2.8,4,3.8,4.7,6.6-.2,1-6.9,3.4-7.9,3.4-1.3,0-12.9-9.5-15.1-11.3-1.2-1-1.7-2.5-2.8-3.3-5.9-4.2-5.9-1.1-10.8-.7-2.3.2-4.4-.9-5.9-.7-.8,0-10.9,5.1-11.3,5.9.5,4-2.9,5.3-4,9.5-.9,3.3-1.3,6.8-.2,10.1l2.6.5,4-6.1,2.1-.6c3.5,6.7,8.1,12.3,14.1,16.9-2.9,4.3-.8,10.1-2,14.2-.5,1.8-3.4,3.3-3.6,6.6,0,1.4,2.3,4.4,1.8,6.5-6.9-1.1-10.1,1.3-8.8,8.2l5.2,3-.5,4.2c4.4-5.4,12.1.8,9.2-9.2l11.3-3.1c.2-3.2-3.7-4-6.2-4.1l5.8-5,6.1,8c7.2,7.6,9.9,4.1,18.9,3.2l-1-8.2c2.6,1.2,3.4-.2,3.1-3.1-6.3,2.2-9.2-3.7-14.8-5.1l-.6-2.1c11.6-1.9,14.1-15.3,24.7-17.5-.7,3.5,3.5,8.7,3.8,10.9.2,1.4-.9,3.1-.7,4.9.1,1.3,1.6,2.4,1.7,3.2.4,4.5-7.3,6-8.9,10.3,4.9,1.1-1.2,9.2-1.6,11.7-.2,1.6,3.3,4.2.6,7.2,6-.6,6.7,3.1,6.2,8.2l2.6-3.1,2.6,3.6c-3,2.5-15.9,1-17.3,1.7-3.6,2-3.5,9.3-9.5,7l4,2.1v2.9c-10.2,5.7-20.5,11.5-31.8,14.5,1.3-2.7,0-5.2-3.1-5.8-1.1.3-5.2,3.7-5.6,4.8-1,2.3.5,4.3,0,5.2-1.8,3.3-6.4,1.3-7.7-1.7l3-4.5-6.2,1.5c.5-8.1,18.7-12.2,8.2-21.6l-7.2,1.6c2.5-3.4,12.8-8.9,5.8-12.2-6.5,2.7-5.4,7.5-7.3,12.2-1.2,2.9-5.1,9.8-5.5,12.1-.4,2.7,2.5,4.7,1.9,7.5-2.4-.9-4.6,1.7-5.9,1.9-1.3.2-2-1.6-3.4-1.4-4.4.6-9.8,9.3-11.5,13.2-.9,2.2-.5,4.2-1.1,6.1-2.4,7.3-12,5.9-18.2,5.9,3.6-5.6,10.1-14,9.3-21-.2-1.5.5-1.8-1.6-1.5-6.1,1.8-8.6,12.9-8.8,18.5-2.6-2.1-6.7-3.6-9.2-.4.3,4.7,4,4.4,7.7,2.5l.5,2c-7,.2-16.2,3.2-21.5,7.8-3.8,3.3-5.7,8.6-9.4,12.1-3.5,3.3-8.8,5.8-12.7,8.9-8.2,6.4-16.8,16.7-28.3,15.4l2-3.1c-5.7-.8-8.7.5-12.9,4.1l4.7,9.8-5.9,20.1-22.9,2,1-8.2c5.6.2,11.6-.6,16.4-3.6-1.3-3-12-4.9-15.4-4.7-.7-10.4-2.2-19-5.8-28.7-.4-1.1.6-2.6.4-2.9-.4-.7-4.7-1.8-5.5-5.2-.5-2.2,1.1-4.9.6-7.2l-2,5.1-11.3.6c-2.4-1.8-1.4-22.8-6.1-25.8l2-1.5c-4.2.8-3.5-5.4-8.2-1.6-.8.6-1.9,10.2-2,12.3-.3,5.3,1.7,11.1-1,14.9l4.1-2c-.8,4.9,6.6,7.8,7.2,9,1.9,3.5.6,12.4,1.3,17,.7,4.6,3.5,7.7,3.8,12.1-2.7.5-1.8-.6-2.5-2.1-1.5-3.1-2.8-6.9-3.7-10.3-5.9,2.6.7,21.8-1,23.6l-4.1-1-1,14.4c-3.3-1.4-1.6-5.7-2.3-8.5-1-4.2-2.1-8.2-6.4-10l-1.5,4.1h3.1c-2.3,3.4-.9,8.7-1.3,11.7-.4,2.1-2.6,3.3-2.7,5.2-.2,4.3,3.1,7.3,6.6,8.7l1.6-4.1,3.1,1c.2-2.1-1.2-4.8,2-4.1l5.2,9.2c-5,1.3-1.8-5.7-7.7-4.2.2,2-6.3,9.7-7.7,8.3v-3.6s-7.2-1.6-7.2-1.6c4.1-6.8-6.8-11.9-12.3-12.3-.5-.4,2.7-4.9-.6-6-4.1-1-3.2.6-4.4,3.5,4.9,2,.4,3.4,0,4.3-1.2,2.8-1.4,5.5-.6,8.5.9,3.3,4.9,5.5,4.1,8.2-7-1-11.8.6-18.9-2.7-2.9-1.3-6.8-5.8-9.3-6.2-2.6-.4-3.7,1.5-5.7,1.6-3.2,0-10.6-4.6-15.8-4.8-3.2-.1-5.7,1.4-8.8.7-2.7-.9-5.6-14.8-10.9-11.1-.4.3-2.2,7.5-2.1,8.7,0,2.9,2.4,5.7,2.1,8.2-.2,1.9-2.2,2.7-2.8,4.4-1.6,4.3-5.2,15.6-8,18.7-1.5,1.7-9,1-9.6,5.5.1,1.7,3.7,5.4,5.3,6.1,2.9,1.1,4.2-.5,6.8.2,2.9.8,13.3,6.5,16.5,8.3,3.4,1.9,2.8,5.6,8,1.8,8.3-6,13.4-8.1,20.8-16.6,1.8-2.1,4.1-6.9,5.1-7.9,1.8-1.7,5.1-1,6.7-2.6,1.3-1.3,1.1-4.5,1.7-5,1.1-.9,10.7-2.4,12.9-3.1,4.8-1.4,8-5.7,13.7-2.8v3.6s3,0,3,0v-3.1s5.1,0,5.1,0c-4.5,5.3-3.2,13.3-9.1,17.1-.7,6,3.8,3.7,4.9,4.6.5.4,3.2,8.8,1.2,10.1,3.3-2.2,8.5,2.9,11,5.5.6.7.5,2.6,1.3,3.3.7.6,9-3,9.3,2l-2.1,8.7-2-7.8-5.1.7-.6,3-7.2-7.2c-7.2,6.5-10.4,18.4-12.4,27.7-1.9,9-3.3,18.6.3,27.5,4.5,10.8,11.6,2.4,12.5,3.4-2.5,7.3-4.6,15.3-5.1,23.1-.2,2.7-.8,7.6.9,9.9,1.3-.3,2.5-.6,3.8-.8,4-4.2,8.4-15.9,8.6-18.4,0-.6-2-10.1-2.3-11-.9-2.7-4.9-3.1-3.7-7.2.3-1.2,2.1-2.2,2.7-3.5,2.5-6.2,2.1-6.2,5.8-11.7,3.9-5.8,4.7-10.6,6.3-17.4,1.1-1.7,3.1.3,4.6-.4,3.2-1.5,3.7-9.6,4.2-12.8h4c-1.3,5.5,2.8,8.3,6.5,4.1,1.3-1.4-.1-3.4,1.7-3.2l3.1,4.7c4.5-3.3,3.8,2.2,7.8,4.4,4.7,2.5,4.4,0,7.4-.6,2.1-.5,3.9-.3,6.1-1.1,2.8-1.1,14-11.4,15.2-13.6,1.2-2.3.9-5.9,2-8.6-6.6-5.4-10.5-8-19-4.1-.7-6.1,7.8-8.6,10-11.6,1.5-2,.5-4.7,4-6.8.6-.3,7-2.9,7.3-3,1.9-.3,3.5,1,5.6.6,3.4-.5,4.3-4.3,9-.9-1.9,3.9-6,2.5-9.6,5.3-3.3,2.6-6.5,8.6-6.8,12.8-.1,2.3,1.2,4.3.7,6,1.7,1.5.9,4.1,1.9,5.9,1,1.9,7.5,10.7,9,12,3.2,2.8,7.6,2.9,9.5,4.4,1.7,1.4,1.5,4,2.4,5.5.6,1,2.7,1.1,3,2.4.3,1.2-4.2,26.8,4.2,21.5,5.1-3.2,8.1-29.7-3.1-25.2l-1-4.1c2.2-.3,9.7-1.2,11.1-2.3.8-.6.6-2.6,1.5-3.6,7.8-8.1,15.7-19.8,15.6-32,0-1.1-2.3-10.4-2.9-11.1-1.9-2.3-12.7-8.3-16.1-8.5,3.1-3-.9-9.3,3.1-9.8,1.5,4.5,4.5,3.7,7.1,5.3,1.9,1.2,3.9,3.6,6.2,4.1,6.2,1.3,13.9-2.1,18.5-6.2.9-.8,6.6-6.6,6.9-7,1.4-1.9.8-6.3,3.9-7.9,5.5,9.3,14.6-4.9,15.6-5.2,3.5-.8,15.7.8,14.6-7.4-.5-3.7-7.5-6.4-6-7.9,6.5-1.8,15.1-5.8,20.4-9.9,1.4-1.1,2-3.5,3.2-4.1,1-.5,8.7.7,10.8.6,7-.3,14.7-2.5,20.6-6.2l3.1,3.1c1.3-1.9,5.4-4.4,6.2-6.2,1-2.1,1.5-5.1,3.6-8.4.8-1.3,3.3-2,3.9-4.6,1.2-5.6-2.2-17-2.8-22.8h2.9c-.7-5.3,2.5-7.1,5.8-10.3.8,3.8-1.9,9.2-1.5,12.8.1,1.4,1.7,2.6,2,4.2,1.3,7.8.3,8.9,6.8,14.8,4.4,4,12.7,3.7,18.4,6.2,2.6-.4,4-3.9,6.8-4.8,4.1-1.3,5.8,2.1,8.2-5.1,1.9-1.2,8.7,2.7,7.2,4.7-7,.4-5,5.3-6.7,8.3-.7,1.3-6.7-1-5.7,3,4.6-1.4,8.4-.8,12.3-4.1-.7,6.7,2.3,3.6,4.1,4.6.7.4,1,2,1.8,2.6,1.3.8,2.8,1.8,4.5,2.5,2.8-3.3,5.6-6.5,8.3-9.9-1-2.6-2.5-4.8-2.1-6.3,2.6-1.6,7.6-10.4,1.6-6.7-2,1.2-3.3,4.5-4.2,4.7-1.4.2-13.4-2.1-8.1-5.7.9-.6,2.3-.7,3.1-1.5,5.1-5,7.5-10.3-.2-13.7l-9.8,5.8c1-4.1-1-6.8-1.8-10-.9-3.3,1.2-5.2-3.3-6.9l6.1-1.5c.5,2.5-3.5,5.2-.5,7.2l.5-3.1,2.9-.2.2-2.9c3.2,1,3.6,1.7,3.1,5.1l1.6-3.1c5.4.3,11.1-1.3,14.8,3.7l-4,3.2c1.7,10.6,14.5-.8,14.4-6.2,0-.7-2.1-.7-2.9-2.3-2.2-4.3,0-10.1-.3-10.5-.6-.9-5.7-1.4-4-6.3,6,.5,9.5-7.3,12.3,2-.8.7-8.5-1.2-9.2,2.1,2.6-1.4,6.6.4,8.5-.1,1.4-.4,2.1-2.3,3.5-2.7,4.9-1.5,13.4,1.3,16.2-5.3l2.6,2v-5.1c2.1-.4,4-.5,5.7-.4,13-20.9,24.8-42.7,35.2-65.2-.9-.1-1.7-.2-2.4-.2ZM771.1,1032.9c-4.1,1.4-6.2,5.7-11.3,5.1v-4.1s3,1,3,1l2.3-5c1.8-1,6.6,2.1,6,2.9Z"/>
  <path d="M830.9,817.5c3.2,1.8,6.4,10.4,8,11.5,1.8,1.2,11.3,3.6,13.8,3.7,7.8.5,20.2-3.3,26.5-1.9,7.3,1.7,14.4,13.2,22.3,11.6l-9.6-10c.9-3.3-1.1-5.1-1.6-7.6-.8-4-.6-9-1.7-12.7-1.4-4.7-4.4-2.5-5.4-3.2-.5-.4-2.3-9.5-3.2-11.7-2.7-6.8-8.7-14.2-16-15.8-9.2-2-9.1.7-16.2,3.2-4.2,1.5-11.9,2.8-14.5,6-.6.8-5.4,9.4-5.5,9.9-.7,4.5,4,11.9,3.1,17Z"/>
  <path d="M321.7,830.8c6.3-1.4,18.7,2.4,26.5,1.9,2.6-.2,12-2.5,13.8-3.7,1.4-.9,2.5-4.8,3.7-6.6,1.2-1.7,3.8-3.1,4.3-4.9.5-1.6,3-14.1,3.1-15.5,0-2-4-9.7-5.5-11.5-2.6-3.3-10.4-4.5-14.5-6-2.4-.9-6-3.8-8.1-4-9.7-1-18,4.8-22.5,13-1.8,3.2-4.1,14.9-4.7,15.3-1,.8-4.4-1.4-5.8,4-.9,3.7-1.7,17.5-3.3,20.1-.4.6-10.9,8.8-9.3,10,3.4,2.6,17.7-11,22.3-12.1Z"/>
  <path d="M221.6,1049.1c.6-.2,7.5-5.1,7.7-5.6.2-.7-.7-12.1-1-13-1.5-5-9.4-13.3-14.1-15.7-8.2-4.2-21.5-5.5-28.5-9.5-11.4-6.5-2.4-6.8,2.1-9.6,3.8-2.4,7.4-11.8,3.4-15-5.2-4.1-18.7,2.6-21.3,8.5l-4.1-.6c1.7,2,1.5,5.4,2.6,7.1,1.1,1.8,3.9,2.1,4.3,3.8.8,2.9-.7,10.2-.5,13.1.3,4.2,5,5.2,5.4,8.8.1,1.1-.7,2.2-1.3,3.3,7.6,7.6,15.5,15,23.5,22.2,6.4,1,20.3,2.5,21.8,2.1Z"/>
  <path d="M1023.4,1021.5c.4-3.6,5.1-4.6,5.4-8.8.2-2.9-1.3-10.2-.5-13.1.5-1.7,3.3-1.9,4.3-3.8,1.1-1.8.9-5.2,2.6-7.1-5.2,2.3-4.3-1.1-7.2-3.5-9.9-8-26.7-8-17.6,7.4,3.4,5.9,18,5.4,5,12.8-6.3,3.6-18.9,5.2-26.4,8.5-5.9,2.6-14.4,10.5-16.2,16.6-.3,1.1-1.2,13-.8,13.6.2.4,7,4.8,7.5,4.9.9.3,14.1-.9,20.2-1.7,8.4-7.5,16.6-15.3,24.6-23.3-.5-.9-1-1.8-.9-2.7Z"/>
  <path d="M667.1,899c3.3,9.3,8.2,11.7,14.2,17.8,1.8,1.8,2.3,4.8,4,6.3,2.2,1.8,6.5,2.4,9.3,5.1,2.2,2.2,2.9,5.6,5.7,7.2-2-8.3-7.8-15.3-9.8-23.6-1-4.2-1-9.3-1.8-13.6-.7-3.8-3.9-14-3.8-16.8.2-2.9,6-5.4,6.9-9.4.5-2.4.6-8.6-1.1-10.3-.3-.3-7.3-4-7.7-4.1-5.4-1.5-8.4,1.9-12.9,4.1-.9.5-2.4-.2-2.6,0-.7.6-3.2,7.1-3.3,8.5-.4,4.5,1.4,24.7,2.9,28.9Z"/>
  <path d="M516.3,922.6c1.4-1.4,1.8-4,3.5-5.8,5.9-6.1,10.8-8.5,14.2-17.8,1.7-4.7,3.1-22.6,2.9-27.9,0-1.9-2.3-8.6-3.3-9.6-.2-.2-1.7.5-2.6,0-3.7-1.8-6.9-4.8-11.1-4.4-1.6.1-9.5,4.2-10.1,5.5-1.1,2.5-1,7.5-.2,10.1,1,3.3,6.5,5.8,6.7,8.6.2,2.8-3.1,13-3.8,16.8-.8,4.3-.8,9.4-1.8,13.6-2,8.3-7.8,15.3-9.8,23.6,2.7-1.6,3.4-5,5.7-7.2,2.9-2.7,7.8-3.6,9.8-5.6Z"/>
  <path d="M1073.3,956.4c-5.1,1.4-2,6.7-5,10.4l2.5,5.1c3.7-4.7,7.3-9.4,10.8-14.1-3.1-.8-7.4-1.7-8.3-1.4Z"/>
  <path d="M133.4,977.2c.7.8,1.3,1.6,2,2.4l.6-1.1-2.6-1.3Z"/>
  <path d="M132.7,967.5c.1-1.5-1.3-2.8-1.6-4.2-.4-1.7.2-4.1-.4-5.2-.2-.4-3.7-2.2-4.4-2.2-.4,0-4.5,1.2-7.7,2.2,3.7,4.9,7.4,9.8,11.2,14.6,1.1-1.9,2.8-4,2.9-5.2Z"/>
  <path d="M421.3,955.9c-3.6-.4-10.5-2.6-13.5-.1-1.5,1.2-3.9,8-6.5,8.4v1.9c.6-.1,4,3.5,4,3.8.6,4-3.1,3.2-4.5,4.5-1,.9-.3,2.6-.8,3-.9.8-3.3-.7-2.9,1.2l4.1,1.6-2,6.6c3,.4,4.8,1.7,7.6,0,1.1-.7,1.4-2.4,1.8-2.7,2.6-1.7,8.8-1.8,14.6-7,4.4-4,11.4-12,7.7-18.3-2.8-4.8-6-2.3-9.6-2.7Z"/>
  <path d="M800.3,974.3c-.9-.8-3.7-.6-4.4-2.6v-1.9c0,0,4.1-4.2,4.1-4.2,0-.2-2.1-3.7-2.4-4.2-.7-1-4.9-6.2-5.5-6.4-3.9.2-17.2-.3-19.8,1.4-8,5.3,1.5,17.7,6.5,21.6,4.5,3.6,12.3,4.9,13.8,5.8.5.3.8,2,1.8,2.7,2.8,1.8,4.7.5,7.6,0l-2-6.6,4.1-2.1c-4.4-.1-2.4-2.5-3.7-3.7Z"/>
  <path d="M1150.7,828.5c-1.4.5-2.9-1.2-2.4,2l5.5.6c.3-.8.7-1.7,1-2.5-1.1-.8-1.8-1.6-2.5-2.1-2.9-2-.8,1.7-1.7,2Z"/>
  <path d="M1150.3,839.5c.5-1,.9-2.1,1.3-3.1-2,1.4-3.3,2.6-1.3,3.1Z"/>
  <path d="M52.7,830.6c.5-3.2-1-1.6-2.4-2-1.4-.4.7-1.7.3-2.1-.3-.3-3.1,1.5-5.4,2.7.3.7.6,1.4.9,2.1l6.5-.7Z"/>
  <path d="M51.7,838.3l-3.9-3.1c.7,1.6,1.3,3.1,2,4.7,1.1.1,2.4.3,1.9-1.5Z"/>
  <path d="M182.9,684.7c13.9,1.3,21.2-12.6,11.3-23.2-.8-.8-5.4-4.4-6.3-4.4-5.4,2-12.9,2.4-14.7,8.9-.4,1.3-1.3,8.6-1.1,9.8.6,3.2,7.4,8.6,10.8,8.9Z"/>
  <path d="M1014.5,684.5c6.1.7,6-.2,9.9-3.5,1-.8,2.4-1.4,3.2-2.4,3-4.3.9-15.5-4.3-18.3-6.5-3.5-11.2-4.4-16.4,1.1-8.3,9-4.8,21.7,7.6,23Z"/>
  <path d="M924.2,857.3c-7.1,2.7-7.3-6.3-11.4-8.7-6.9-4-10.3,1.9-6,7,1.6,1.9,13.5,7.7,3.1,7.9-3.3,8.8-2.9,14.2,6.9,17,4.5,1.3,8.8,2.3,11.6-2.3,4.2-6.9-7.6-13.3-4.2-21Z"/>
  <path d="M284.2,880.6c9.8-2.8,10.1-8.3,6.9-17h-4c.2-6.5,7.7-5.4,8.8-11.4,1.1-5.7-4.5-5.7-8.3-3.1-3.4,2.3-3.8,11-10.7,8.3,3.3,7.5-7.8,14-4.6,20.5,2.5,5.1,7.3,4.2,12,2.8Z"/>
  <path d="M558,964.6c1.6-11.3-18.4-14.3-22.7-3.6-4.7-3.6-6.3-3.8-11.7-.9-1.6,4.3,3.6,7.4,7.2,6.5,1.8-.4,2.8-3,5-2.6,1.7,4.3-.7,7.1-1,11.3,3.3,1.6,4.7-4.1,5.6-4.1.5,0,3.4,3.1,9,1.8,2.4-.6,8.3-6.6,8.5-8.5Z"/>
  <path d="M665.8,961c-4.3-10.7-24.3-7.7-22.7,3.6.2,1.2,5.5,7.3,7.1,7.9,6.4,2.6,9.6-1.3,10.5-1.2,1,0,2.3,5.6,5.6,4.1-.3-4.2-2.7-6.9-1-11.3,2.2-.4,3.2,2.1,5,2.6,3.6.8,8.8-2.3,7.2-6.5-5.4-2.9-6.9-2.7-11.7.9Z"/>
  <path d="M839,946.9c0,.3,3.4,2.8,3,4.8l-5.1,2.1c2.5.2,7,1.7,7.3-2,3.3-.8,2.4,4.1,4.7,4.9,1.5.6,9.9.1,10.5-2.6-1-7.4,1.4-13.8-4.5-19.9-9.4-9.7-18.4,1.6-15.9,12.6Z"/>
  <path d="M358.7,932.6c-8.4-7.1-16.2,4.4-17.1,12.7-.2,1.4.2,9.5.9,10.2,5.3,2.3,10.9,2.8,12.9-3.6h1.5c.3,3.7,4.8,2.2,7.3,2l-5.1-2.1c3.7-4.8,5-14.8-.3-19.2Z"/>
  <path d="M449.9,839.8c-4.7-1.4-7.8,9.9-7.7,13.3,6.1.4,12.4-11.9,7.7-13.3Z"/>
  <path d="M436.1,851.5c-4.3.6-8.6,2.8-8.2,7.8l-4.1-1,8.2,9.7c-5,2.2-6.4,15.5-1.7,17.3,8.9,1.4,16.5-7.7,10-15.3-1.1-1.3-4.8-1.4-2.6-3.6.8-.8,2.6-.7,3.7-1.7,3.8-3.7,1.2-7.9,1-11.6-2.3-.1-3.5-2-6.2-1.6Z"/>
  <path d="M758.8,853.2c.2-3.4-3-14.8-7.7-13.3-4.8,1.4,1.6,13.7,7.7,13.3Z"/>
  <path d="M759.8,864.8c1.4,1.4,4.2.7,4.2,3.3,0,.7-2.2.9-3.1,2-6.5,7.6,1.1,16.8,10,15.3,4.6-1.9,3.2-15.1-1.7-17.3l8.2-9.7-4.1,1c.4-5-3.9-7.2-8.2-7.8-2.7-.4-3.9,1.5-6.2,1.6-.2,3.7-2.8,7.9,1,11.6Z"/>
  <path d="M856.2,644.5c2.5.5,9-.5,10.4-2.5,5.7-7.5-.3-20-9.7-20.5-10.5-.6-13.2,20.7-.8,23Z"/>
  <path d="M344.9,644.5c12.4-2.3,9.7-23.6-.8-23-14.6.9-16.9,26.2.8,23Z"/>
  <path d="M142.7,653.9c-4.8-.2-8.6,7.7-8.7,11.9,0,2.8,5.3,17.5,7.3,18.7,5.9,3.5,9.1-12.2,9.1-15.7,0-4.3-2.1-14.7-7.7-14.9Z"/>
  <path d="M1059.7,684.5c2-1.2,7.3-15.9,7.3-18.7,0-4.2-3.9-12-8.7-11.9-5.6.2-7.7,10.5-7.7,14.9,0,3.5,3.1,19.2,9.1,15.7Z"/>
  <path d="M791.8,855.9c-.2,1,1.1,8.6,1.8,9.1,10.2,3,21.6-6.1,21.5-16.3-1.2-4-9.1-4.6-12.5-3.6-1.1.3-10.6,9.8-10.8,10.8Z"/>
  <path d="M407.4,865.1c1-2.7,2.5-8.1,1-10.4-.5-.8-8.8-8.9-9.4-9.2-2.1-1-6.2-.8-8.5-.3-14.2,3.2,6.7,26.1,16.8,19.9Z"/>
  <path d="M112.1,931c.8-.8,1.7-4.4-.3-4.8-4.6.1-9,1.4-13.1,3.4,1.5,2.3,3.1,4.7,4.7,7,1.2-1.3,8.4-5.2,8.8-5.7Z"/>
  <path d="M115.4,951.8l-1,.7c.2.3.5.7.7,1,.4-.7.6-1.4.3-1.7Z"/>
  <path d="M1085.6,951.8c-.2.2-.2.5,0,.8.1-.2.3-.4.4-.6l-.3-.2Z"/>
  <path d="M1088.1,927.1c-1.6,2.9,6.4,7.1,9,9,1.5-2.2,3-4.5,4.5-6.7-6-2.9-11.9-4.6-13.5-2.2Z"/>
  <path d="M842.3,922.5c.2,3.2,11.1,5.3,13.7,5.5,1.8.1,3.5-1.1,4.9-1,.5,0,.9,3.4,3.7,2.1l3.1-15.4-4,2c-6.1-10.3-19.9-4.2-21.4,6.7Z"/>
  <path d="M358.7,922.5c-1.4-10.8-15.1-17.2-21.4-6.7l-4-2,3.1,15.4c3.1,1.1,2.9-1.6,3.3-1.8,1.5-.7,3.5.8,5.3.7,2.7-.2,13.5-2.3,13.7-5.5Z"/>
  <path d="M488.8,847.7c.5,0,9.1-3.9,9.9-4.4,8.5-5.6,10.8-19.5-3.3-16.6-8.7,1.8-17.6,22.7-6.6,21Z"/>
  <path d="M701.2,842.5c2.7,2.2,13.5,7.2,16.1,3.6.7-9.5-7.4-22.7-18.4-19.4-7.2,2.2-1.6,12.6,2.3,15.8Z"/>
  <path d="M884.6,903.5c-4.5-3-13.1-7.5-16.9-1.3-5.4,8.7,12.8,15.4,19.5,11.6-1-8.4-.8-9.6,5.2-15.3-4.1-.4-5.6,2.3-7.8,5.1Z"/>
  <path d="M333,901.7c-6.1-7.3-15,2.1-16.6,1.8-2.1-2.8-3.6-5.5-7.8-5.1,6,5.8,6.2,7,5.2,15.3,3.8.4,6.4,1.5,10.3.7,5-1.1,13.5-7.1,8.9-12.6Z"/>
  <path d="M772.6,682.7c-2.4-6.2-7.2-14.4-14.8-8.7-4.2,3.2-.4,10.4,2.3,13.5,5.7,6.4,17.3,7.4,12.5-4.8Z"/>
  <path d="M440.9,687.5c.5-.6,4.2-7,4.3-7.6,1.2-6.1-6.1-9.1-10.9-6.7-2.3,1.1-8.4,13.8-7,16.7,2.4,4.8,10.9.7,13.6-2.4Z"/>
  <path d="M600.1,891.2l5,3.1,2.4-1.8c1.2-6.7-2.1-12.6-4.1-18.7l-6.1.5c-2.7,5.6-8.9,27,2.8,16.9Z"/>
  <path d="M936.6,746.8c.2-3.5-3-7.1-6.5-7.4-6.5,3.5-13,8.7-10.8,17.1,5.2,5,16.9-3.8,17.3-9.7Z"/>
  <path d="M281.7,756.4c1.5-5.3-1.2-10.6-5.3-13.8-1.7-1.3-3.8-2-5.5-3.3l-1.4.2c-2.8,1.3-5.3,4-5.1,7.2.3,5.8,12.1,14.7,17.3,9.7Z"/>
  <path d="M803.7,894.4c-6.4,1.9-4.6,22.6,6.5,18.9,6.9-2.3,1.5-21.3-6.5-18.9Z"/>
  <path d="M393.6,894.4c-4.2,1.3-11,19.6-.2,19.4,9.8-.1,10.3-22.5.2-19.4Z"/>
  <path d="M183.2,767.4c0,5,4.8,7.6,9.3,7.7,4.5-7.2-9.3-16.3-9.3-7.7Z"/>
  <path d="M201.8,772c-.5-.2-8.2,2.5-9.3,3.1-1.2.7-8.7,6.9-9.3,7.9-1.3,2.2-.8,4.1.2,6.4,6.7.9,18.4-5,19.3-12,.3-2.1-2-3.3-.9-5.4Z"/>
  <path d="M998.4,777.4c.9,7.1,12.5,12.9,19.3,12,.9-2.3,1.5-4.1.2-6.4-.6-1-8.1-7.2-9.3-7.9-1-.6-8.8-3.3-9.3-3.1,1.1,2.1-1.2,3.3-.9,5.4Z"/>
  <path d="M1017.8,767.4c0-8.6-13.8.5-9.3,7.7,4.5-.2,9.3-2.7,9.3-7.7Z"/>
  <path d="M890.8,757.7c7,0-3.5-17.5-.5-21.6-2.9.9-6.3-.4-9,.7-6.3,2.6,5.4,20.9,9.5,21Z"/>
  <path d="M309.2,757.6c4.4,1.3,15.6-16.4,11.5-20.3-2.2-2.1-7.1-.3-10-1.3,2.8,4.2-6.6,20-1.5,21.6Z"/>
  <path d="M601,794.6c2.6,2.6,4.3,7.6,8.7,7.2,1.9-3.8-6.7-19.1-9.7-18.4-4.8,5-9.3,11.2-8.8,18.4,3.9,1.8,7.4-7.7,9.7-7.2Z"/>
  <path d="M548.1,1009.8l2.1,3.1c-5.2,2.6-1.6,8,.6,4.7l.5-5.2c4.5,1.8,24.6-1.8,17.2-9-3.6-3.6-19.7,1.8-20.3,6.4Z"/>
  <path d="M652.6,1011.1c3.1-5.3-20.4-13.8-21.1-5.2-.6,7.3,13.6,6.7,18.3,6.4l1.6,6.2,2.6-2.5-3.1-3.1c-.7-1.8,1.6-1.5,1.7-1.7Z"/>
  <path d="M562.2,1154.3c-1,.2-4.5,2.6-4.8,3.5.4,10.1,12.5,15.7,16.9,5-.4-5.1-7.3-9.7-12.2-8.5Z"/>
  <path d="M635.2,1154.3c-3.3.6-9.5,5.3-8.4,9.1,3.1,10.3,17.7,3.8,16.8-5.5-2.2-2.6-4.8-4.2-8.4-3.6Z"/>
  <path d="M848.6,674.2c6.9-2.5,3.8-16.6-2.8-16-4.4.4-6.5,7.9-5.9,11.6.6,3.5,5.7,3.8,8.6,4.4Z"/>
  <path d="M352.5,674.2c2.9-.6,8.1-.9,8.6-4.4.6-3.7-1.6-12-6.6-11.6-6.3.6-8.6,13.4-2.1,16Z"/>
  <path d="M485.9,892.2c-.7-1.6-3.6-2.4-4.3-3.4-.9-1.2-1.1-5.4-2.9-5.9-3.9-.9-7.6,19.2-6.7,22.6,2.8,2.9,8.9-8.7,8.2-11.3l5.1,1,.5-3.1Z"/>
  <path d="M722.3,883c-1,.2-3.8,8.6-7.2,9.2l.5,3.1,5.1-1c-.7,2.6,5.5,14.2,8.2,11.3.9-3.3-2.8-23.5-6.7-22.6Z"/>
  <path d="M816.9,827.5c3.1,6.6,13.5,5.6,18.9,3,4.4-6.3-23.9-13.7-18.9-3Z"/>
  <path d="M384.2,827.5c4.9-10.7-23.4-3.2-18.9,3,5.5,2.5,15.9,3.6,18.9-3Z"/>
  <path d="M250.1,906.6l-3.1-2.6c-.2-.9,1.4-.2,1.7-.7,1.4-2.2.6-7-2.1-8.3-.9-.4-9.7,1.6-10.8,2-1.9.8-2.4,3.5-2.2,5.4l4.1,2.6-5.1,3.6h6c.6-7.8,6.1-.3,11.4-2.1Z"/>
  <path d="M962.4,908.5h6c0,.1-5.1-3.5-5.1-3.5l4.1-2.6c.5-.7-.5-4.1-1.2-4.8-.9-.9-11.1-3.3-12.5-2.2-2.4,1.8-3.1,7.8.4,8.6l-3.1,2.6,9.7-2,1.7,4Z"/>
  <path d="M638.6,1000.1c12-2.8,11.4-20.8-1.8-13.5-8.2,4.5-.2,8.6,1.8,13.5Z"/>
  <path d="M562.5,1000.1c1.9-5,10-9,1.8-13.5-13.1-7.2-13.7,10.8-1.8,13.5Z"/>
  <path d="M1024,718c-5.6-4-15,11.6-12.4,17,6.4,2.8,16.5-14,12.4-17Z"/>
  <path d="M177.1,718c-4.2,3,5.9,19.8,12.4,17,2.6-5.4-6.8-21-12.4-17Z"/>
  <path d="M789.1,745.2c9.6-2.1.7-19.9-7.5-12-3.4,3.3,1.1,13.4,7.5,12Z"/>
  <path d="M411.9,745.2c6.4,1.4,10.9-8.6,7.5-12-8.1-7.9-17.1,9.9-7.5,12Z"/>
  <path d="M847.1,727.2c-6.8,10.2,10.8,16.8,11.4,5.2,0-1.4-.3-4.4-1.3-5.4-1.6-1.6-8.9-1.7-10.1.1Z"/>
  <path d="M343.8,727.1c-1,1-1.4,3.9-1.3,5.4.6,11.6,18.2,5,11.4-5.2-1.2-1.8-8.5-1.7-10.1-.1Z"/>
  <path d="M951,1047.3c1.7.3,2.7-.9,3.6-2,1.8-2.1,9-12.9,9.5-15.2.4-1.8.3-3.6.2-5.4-11,2.1-11.5,13.9-13.4,22.6Z"/>
  <path d="M242.6,1027.1c-.8-.7-5.4-2.9-5.8-2.4-.1,2.1-.1,4.1.5,6.2.6,2,8.1,13,9.8,14.9,1,1,1.5,1.9,3.1,1.5-2.1-6.8-1.2-14.9-7.5-20.2Z"/>
  <path d="M902.8,745.5c-.7.4-1.3,4.1-1,5.3.9,3.5,11.8,9.1,14.8,4.9,3.3-4.7-10-12.6-13.8-10.2Z"/>
  <path d="M299.2,750.7c.3-1.2-.3-4.9-1-5.3-3.9-2.5-17.2,5.5-13.8,10.2,3,4.2,13.9-1.4,14.8-4.9Z"/>
  <path d="M486.9,945.6c-4.1-.9-9,17-7.7,20.5,1.2-.1,2.8.4,3.9-.2,2.2-1.2,8.3-17.8,3.8-20.3Z"/>
  <path d="M914.4,777.2c-1.8,2.8,3.1,7.1,3.4,9.9.2,2.1-2.6,7,1.3,7.1,2.2-2.1,1.9-4.1,1-6.7,12.9.6-.9-17.8-5.7-10.3Z"/>
  <path d="M276.7,787l4.2.5c-.9,2.6-1.2,4.6,1,6.7,3.9,0,1.1-4.9,1.3-7.1.3-2.8,5.1-7.1,3.4-9.9-3.8-5.9-14.4,4.5-9.9,9.8Z"/>
  <path d="M721.8,966.2c3.2-5.8-9.8-31.3-9.3-14.9.1,4.4,3.6,16.7,9.3,14.9Z"/>
  <path d="M294.6,903.2c-1.3-3,1.6-10.3-4.5-9.6-6,.7-9.1,7-4.9,11.7l7.3-.8,3.7,3.1c1.3-3.6-1.6-4.1-1.7-4.4Z"/>
  <path d="M910.2,893.4c-4.7-.1-2.9,6.9-3.4,9.4-.1.5-3.5,1.3-2,4.8l3.7-3.1,7.3.8c2.5-2.6,2.6-7.3,0-9.8-.6-.5-4.8-2.1-5.6-2.1Z"/>
  <path d="M591,1018.7c-9.3,1.8-3.7,14.1,3.6,12,7.1-2.1,2.8-13.2-3.6-12Z"/>
  <path d="M607.4,1018.7c-6.2,1.7-6.5,13.4,1.8,12.2,8.3-1.2,6.8-14.5-1.8-12.2Z"/>
  <path d="M1040.4,773.1c-7.5-.7-4.6,6.2-9,9.7l4.4,8.7c5.8.5,5.5-17.9,4.6-18.5Z"/>
  <path d="M164.3,791.5c1.6.4,5.4-8.2,5.4-8.7,0-.7-1.9-1.6-2.3-2.6-.7-1.7-.9-4.9-1.9-5.9-.7-.7-4.3-1.7-4.9-1.3-.9,3.8-.7,17.5,3.6,18.5Z"/>
  <path d="M440,1178.4c1.6.5,3.3.9,5,1.3-.2-1.9-.5-3.3-.7-4.1-2.4-.6-3.6.8-4.3,2.7Z"/>
  <path d="M952.5,798.2c-.5,2.6-4.1,8.6,1.2,8.5,2.2,0,7.3-4.2,7.6-6.5.5-4-2.7-5.5-4.3-8.5-6.7.3-3.9,3.8-4.4,6.5Z"/>
  <path d="M244.5,791.5c-2.1,3-5.8,5.2-4.5,9.6.7,2.5,8.1,7.6,10,4.7,1.3-2-1-5.5-1.4-7.5-.6-2.7,2.4-5.5-4-6.8Z"/>
  <path d="M805,933.3c-2.3.5-5.6-1.5-7.5-1.1-1.3.3-1,4.8-5.8,2.1l2,5.6-4,3.7c3.8,2.2,4.1-1.7,6.1-2.5,1.1-.5,3.1.8,4.6.5,2.8-.6,7.6-2.4,8.8-5.1l-5.1,2,1-5.1Z"/>
  <path d="M404.8,940.9c2.1.3,2.9,5,6.6,2.7l-4-3.7,2-5.6c-5.2,2.4-4.1-1.1-5.3-1.9-1.6-1-5.9,1.4-8,.8l1,5.1-5.1-1.5c1.7,1.9,5.7,4,8,4.4,2.1.4,3.8-.6,4.9-.4Z"/>
  <path d="M1171.9,779.2c.3-.1.6-.2,1-.3.8-2.6,1.6-5.2,2.4-7.8-2.6,2.3-4.5,5.8-3.3,8.2Z"/>
  <path d="M24.4,770c.8,2.9,1.7,5.8,2.6,8.6.7.1,1.4.3,2.1.6,1.4-2.8-1.4-7-4.7-9.2Z"/>
  <path d="M323.9,885.3c1.5-9.7-15-4.3-12,3.7,4,2.2,11.2,1.5,12-3.7Z"/>
  <path d="M877.1,885.3c.8,5.2,8.1,5.9,12,3.7,3-8-13.5-13.4-12-3.7Z"/>
  <path d="M252.9,755.7c-9,2.4,1.2,13.3,6.4,10.7,4.9-2.4-.4-12.3-6.4-10.7Z"/>
  <path d="M940.1,764.8c2.1,5,11-1,11.8-3.8.8-3-3.3-5.9-6.3-5.3-3.8.7-6.5,5.4-5.4,9.1Z"/>
  <path d="M881.1,1110c-2.9,6.1-.4,11.4,1,17.5,8.1.7,5.5-12.5,1.7-16.1-.4-.4-2.6-1.5-2.7-1.4Z"/>
  <path d="M318.9,1127.4c1.5-6.1,3.9-11.4,1-17.5-6.4,1.8-10,17.7-1,17.5Z"/>
  <path d="M480.4,1098.8c-3.3,5.9-3.2,11,2.4,15.2,4.4-3.7,4.6-10.2,1.6-14.9l-4-.3Z"/>
  <path d="M720.6,1098.8c-6.4-3.8-8.2,12.5-2.4,15.2,5.1-1.8,5.8-13.2,2.4-15.2Z"/>
  <path d="M73,759.9c-3.4.5-8.8,2.8-11,5.4,0,4.1,16-.4,18.5-2,3.5-2.4-4.9-3.7-7.5-3.4Z"/>
  <path d="M1139,765.3c-3.2-3.5-11.2-6.4-15.7-5.4-1.5.3-2.8,1.2-3.8,2.4,0,1.6,17.2,7.5,19.5,3.1Z"/>
  <path d="M260.2,731.4c-6.5,1.4-6,16.8,2.9,9.5,3.9-3.2,3.1-10.8-2.9-9.5Z"/>
  <path d="M937.9,740.9c8.9,7.3,9.4-8.1,2.9-9.5-6-1.3-6.8,6.3-2.9,9.5Z"/>
  <path d="M115.5,708.4c-2.1,1.8,1.8,16.6,7.1,15.4,0-5.3.5-16.7-7.1-15.4Z"/>
  <path d="M608.5,952.3c-2.1-4.3-5.1-1.7-8.3-1.6-2.2,0-5.8-2.5-7.4,1.1-.4,1,2.1,4.1.6,6.2,6.2-4.5,8.2-4.5,14.4,0l.8-5.6Z"/>
  <path d="M538.9,925.6c3.9,1.7,12.2-10.7,10.2-14.9-1.5-1.7-12.2,12-12.1,12.8.1.8,1.3,1.5,1.9,2.1Z"/>
  <path d="M663.8,924.1c.9-1.9-1.7-2.8-2.2-3.5-.7-1-7.9-11.9-9.7-9.8-2.4,4.5,8.7,20.2,11.9,13.4Z"/>
  <path d="M1085.5,708.4c-7.6-1.3-7.1,10-7.1,15.4,5.3,1.3,9.3-13.5,7.1-15.4Z"/>
  <path d="M683.3,811c3.3-4.8-1.1-11.6-2.6-16.4-8.6-1.4-1.1,16.5,2.6,16.4Z"/>
  <path d="M796.8,808.5c5.1-4.4,0-7.9-4.6-9.5l-4.1,3.8c0,5.3,3.8,7.6,8.7,5.7Z"/>
  <path d="M522.9,794.6c-2.2-1-2.1.1-2.8,1.3-2.8,4.4-4.1,10-2.8,15.1,4.7-.2,9.6-14.7,5.6-16.4Z"/>
  <path d="M404.2,808.5c4.9,2,8.8-.4,8.7-5.7l-4.1-3.8c-4.6,1.6-9.8,5.1-4.6,9.5Z"/>
  <path d="M719.7,997c-.3,8.1,6.7,13.7,12.3,18.5.2-1.7-.4-3.2-1-4.7-.7-1.7-9.3-16.1-11.3-13.8Z"/>
  <path d="M470,1010.8c-.6,1.5-1.2,3-1,4.7,5.6-4.7,12.6-10.4,12.3-18.5-2-2.3-10.7,12.1-11.3,13.8Z"/>
  <path d="M829.7,940.5c-.4,1.9-1,5.1-2.5,6.3-1.2,1-2.8-.4-3.4,0-.5.3-.5,1.9-2,2.7-1.6.8-4.6.9-6.5,1.3-.5.6,2.6,9,3.4,10,.5.6,3.4,2.4,2.8-.2-.4-1.7-4.1-7.6-3.1-8.7l12.2-3.2c.7-3,4-8.1-.9-8.1Z"/>
  <path d="M379.2,949.5c-1.5-.8-1.5-2.4-2-2.7-.7-.4-2.2,1-3.4,0-1.5-1.2-2.2-4.4-2.5-6.3l-2.8,1.5,2,6.6,12.2,3.2-2.6,10.3c2.9,0,6.3-10.6,5.7-11.3-1.9-.3-4.9-.4-6.5-1.3Z"/>
  <path d="M764,1134c.3,2,3.1,12.9,4.5,12.9,4.5-6.2-1.8-14.2-2.6-20.5-2.7-3-2.1,6.4-1.9,7.6Z"/>
  <path d="M434.8,1128.6c-.9,2-6.9,18.3-2.3,18.3,3.8-6,5-13.6,4.6-20.5-2.9-.6-1.6.8-2.3,2.2Z"/>
  <path d="M580.6,1104.9c-7.7,11.4,14.5,11.2,7.3,2.3-.9-1.1-5.8-2.7-7.3-2.3Z"/>
  <path d="M613.1,1107.2c-7.2,8.9,15,9.1,7.3-2.3-1.5-.5-6.4,1.2-7.3,2.3Z"/>
  <path d="M1146.2,804.8c2.9-1.8.8-14.3-5.1-14.3-.8,2.8,0,17.5,5.1,14.3Z"/>
  <path d="M53.8,797.3c-.4,2.9,0,9.6,3.9,7.4,2.8-1.6,2.3-11.1,2.2-14.2-3.1,1.2-5.6,3.2-6.1,6.8Z"/>
  <path d="M1153.4,759.1c-5.9.4-6.3,4.7-6.2,9.8,7.3,1.3,11.8-4.1,6.2-9.8Z"/>
  <path d="M52.5,761c-1.6-1.9-4.7-2.7-6.3-.2-3.6,5.5,2.1,9.4,7.6,8.1.5-.5-.5-7-1.3-7.9Z"/>
  <path d="M991.1,894.8c.2-1.8-1.2-4.8-1.6-6.7-.5-.7-3.6-.7-4.1-.5-1.8.7-3.9,4.4-3.5,6.1.2.9,8.6,6.4,9.2,1.1Z"/>
  <path d="M212.5,887.4c-2,.7-3.8,9.1-1,9.9,9.2-.8,10.1-9.6,1-9.9Z"/>
  <path d="M256.3,1027.3c3.2,5.8,13.4,4.2,13.3-2.6-4.7-.8-9.6-1.1-13.3,2.6Z"/>
  <path d="M931.4,1024.7c0,6.8,10.2,8.4,13.3,2.6-3.7-3.6-8.7-3.4-13.3-2.6Z"/>
  <path d="M709.8,1176.5c-5.1,2.4-3.7,4.7-3.4,9.5,4-.8,9.1-1.1,8.1-6.4-.5-2.8-1.9-4.4-4.7-3.1Z"/>
  <path d="M491.3,1176.5c-2.8-1.3-4.1.3-4.7,3.1-1,5.3,4.1,5.6,8.1,6.4.3-4.8,1.7-7.1-3.4-9.5Z"/>
  <path d="M37.6,809.5c.1.4.3.8.4,1.2,0,0,.2-.1.3-.2,0-.5-.3-.8-.7-1Z"/>
  <path d="M616.9,879.9c1.8-2.8-.4-13.6-4.6-12.3-4.1,1.3-.3,12.8,4.6,12.3Z"/>
  <path d="M588.7,867.6c-4.2-1.3-6.4,9.5-4.6,12.3,4.9.4,8.7-11,4.6-12.3Z"/>
  <path d="M407.3,998c-6.8,1.4-1.7,13.3,4.1,13.3l.9-6c-3.2-.8-4.3-4.4-5-7.3Z"/>
  <path d="M795.2,998c-1.7-.8-3.2,4.6-4.2,6.1-.4.6-1.6.9-2.3,1.2l.9,6c.5.6,4.2-1.7,4.8-2.4,2.1-2.4,3.9-8.5.8-11Z"/>
  <path d="M257.3,1050.4c-.9,4.2,7.3,10.4,10.2,7.1,3.2-3.6-6.5-9.1-10.2-7.1Z"/>
  <path d="M934,1053.5c-4.1,8.1,10.6,4.5,9.8-3.1-3-.4-8.3.1-9.8,3.1Z"/>
  <path d="M860.2,1110.1c-4.5,1.3-5,7.9-.2,9.1,4.3,0,7.6-11.2.2-9.1Z"/>
  <path d="M338.1,1110c-4,1.3,0,10.3,3.9,9.1l2.6-5.4c-1.2-2.2-3.6-4.6-6.4-3.7Z"/>
  <path d="M96.8,649.1l-2.1-5.3c-13.2-2.7-4.4,13.7,2.1,5.3Z"/>
  <path d="M729,989.8c.9-5.7-2.8-10.2-4.1-15.4-6.6.8,0,13.6,4.1,15.4Z"/>
  <path d="M477.7,974.4c-1.8-.8-1.9,1.6-2.4,2.7-1.9,4-3.9,8.2-3.3,12.7,3.7-1,9.6-13.6,5.6-15.4Z"/>
  <path d="M1106.3,643.8l-2.1,5.3c6.5,8.4,15.3-8.1,2.1-5.3Z"/>
  <path d="M636.5,824.4c0-4.5-.5-10.8-5.6-12.3-3.9.8,1,12.9,5.6,12.3Z"/>
  <path d="M570.2,812.1c-5.1,1.5-5.6,7.8-5.6,12.3,4.6.6,9.5-11.5,5.6-12.3Z"/>
  <path d="M910.9,795.1c-.3-3.4-5.5-7.5-8.6-6.6-5.7,3.8,7.7,11,8.6,6.6Z"/>
  <path d="M296,788.7c-1.8.5-5.6,3.7-5.8,5.6,3.6,8.3,16.1-8.3,5.8-5.6Z"/>
  <path d="M555.3,889.1c5.2-1.4,5.4-7.8,5.1-12.3-5.3-1.7-7.4,10.7-5.1,12.3Z"/>
  <path d="M299.4,916.3c3.5,2.4,3.9,5.2,8.6,4.7l1.7-6.2c-3.4.4-9.2-3.5-10.3,1.5Z"/>
  <path d="M891.4,914.8l1.1,6.1c1-.3,4.4,0,4.8-.3.7-.4,1.9-3.5,3.8-3.8,1.1-5.6-6.7-1.9-9.8-2.1Z"/>
  <path d="M645.7,889.1c2.3-1.6.2-14.1-5.1-12.3-.3,4.6,0,10.9,5.1,12.3Z"/>
  <path d="M182.2,805.9v-7.2c-4.4-1.1-4.9,4-4.1,7.2,1.3-.2,2.8.1,4.1,0Z"/>
  <path d="M178.1,805.9c-2.3.3-5.8-.7-4.7,3.1.9,3.3,5.5,5.6,8.8,5.1,1.5-4.1-3.5-5.9-4.1-8.2Z"/>
  <path d="M1018.8,798.7v7.2c1.3.1,2.8-.2,4.1,0,.8-3.2.3-8.3-4.1-7.2Z"/>
  <path d="M1022.9,805.9c-.6,2.3-5.6,4.1-4.1,8.2,3.4.6,7.9-1.7,8.8-5.1,1-3.8-2.4-2.8-4.7-3.1Z"/>
  <path d="M1107.2,791c.7-3.6-10.8-3-12.7-2.4-.7.2-1.2.9-1.7,1.4,1.7,2.9,13.8,3.9,14.4,1Z"/>
  <path d="M477.1,791.4c1-2.4,1.7-6.7-1.2-7.8-2.3-.9-4.1-.1-5.5,1.8l1.8,6h4.8Z"/>
  <path d="M95.6,788.6c-7.8,2.4,9.6,7,12.7,1.4,0-2.1-11-1.9-12.7-1.4Z"/>
  <path d="M728.8,791.4l2.1-5.3c-4.4-6.3-10.1-.6-6.9,5.4h4.8Z"/>
  <path d="M308.1,589.2c4.3,1.3,5.2-6.6,4.6-9.2l-5.3.6c-.9,2.8-2.1,6.5.6,8.6Z"/>
  <path d="M753.1,913.8c.3,5,5.6,5.5,9.8,5.1-1.2-4.8-5.5-10.3-9.8-5.1Z"/>
  <path d="M894.3,587.5l-1-7.4h-5c-.8,3.8,1.4,12.7,6,7.4Z"/>
  <path d="M438.1,918.9c4.2.4,9.5-.1,9.8-5.1-4.3-5.2-8.6.4-9.8,5.1Z"/>
  <path d="M886.2,847c-5.8,0-8.1,3.6-7.2,9.2,4.7,0,8.1-4.7,7.2-9.2Z"/>
  <path d="M314.8,847c-.9,4.6,2.5,9.3,7.2,9.2,1-5.6-1.4-9.2-7.2-9.2Z"/>
  <path d="M386.7,734.1l-6.9.2c-3.1,9.6,7.5,8.7,6.9-.2Z"/>
  <path d="M821.2,734.2l-6.9-.2c-.6,8.8,10,9.9,6.9.2Z"/>
  <path d="M759.3,1151c-2.9,1.3-1,12.4-1.5,15.4h3.1c-.7-5.7,2.6-10.6-1.5-15.4Z"/>
  <path d="M441.2,1151c-3.1,5.3-.6,9.6-1,15.4h3.1c-.8-4.6,2.1-12.3-2-15.4Z"/>
  <path d="M663.2,908.1c-7.1,3.3.5,8.6,4.9,5.4,2.8-2,0-7.7-4.9-5.4Z"/>
  <path d="M684.8,1000.6c1,3.2,10.9,1,11.3.5,3.5-4.3-8.9-6.3-11.3-.5Z"/>
  <path d="M537.8,908.1c-4.9-2.3-7.6,3.5-4.9,5.4,4.4,3.1,12-2.1,4.9-5.4Z"/>
  <path d="M505.6,1001.1c4.3.8,6.7,2.5,10.6,0-1.9-4.9-13.4-6.4-10.6,0Z"/>
  <path d="M409.4,1131.5c3.5-.3,6.8-13.7,6.2-14.4-2.4-2.7-7.9,12.3-6.2,14.4Z"/>
  <path d="M348.9,841.2c.7,3.4,7,3.1,7.9,1.6,3-4.8-7.8-9.2-7.9-1.6Z"/>
  <path d="M1157.5,799.7c.4.5,4.6,1.4,8,1.2.5-1.3,1-2.7,1.4-4.1-3.9-.6-10.1-.7-9.4,2.9Z"/>
  <path d="M852.1,841.2c0-1.1-.4-2.5-1.1-3.2-1.4-1.4-4.6-1.3-5.9.2-5,5.6,6,7.8,7,2.9Z"/>
  <path d="M43.5,799.7c.7-3.9-6.7-3.5-10.4-2.7.4,1.3.9,2.5,1.3,3.8,3.5.5,8.7-.5,9.1-1.1Z"/>
  <path d="M785.5,1117.2c.9,4.9,1.5,11.6,6.2,14.4,1.8-2.1-3.7-17.1-6.2-14.4Z"/>
  <path d="M975.6,743.3c2.5-5.7-2.6-6.8-7.2-8.2-1.1,5,2.5,8,7.2,8.2Z"/>
  <path d="M710.5,1111c-5.5.7-7.9,6.4-6.1,11.3l5.4-6.4.8-4.8Z"/>
  <path d="M225.4,743.3c4.7-.2,8.3-3.2,7.2-8.2-4.6,1.4-9.7,2.5-7.2,8.2Z"/>
  <path d="M490.6,1111c-.5,3.6,1.8,6.5,3.6,9.2.4.6.7,3.8,2.5,2,1.6-1.5,0-7.3-1.3-8.9-.5-.6-4.3-2.9-4.8-2.3Z"/>
  <path d="M213.6,691.9c3-1.4,4-8.1.9-9.1h-3.5c0,1.7-1,9.9,2.5,9.1Z"/>
  <path d="M956.7,915.9c4.1-6-10.7-8.9-5.7,2l5.7-2Z"/>
  <path d="M244.4,915.9l5.7,2c5-10.9-9.8-8-5.7-2Z"/>
  <path d="M110.3,935.3c0,2.9,2.9,4.3,1,7.2l4.7.8,1.5-3.9h-4.1s5.1-2.6,5.1-2.6c-2.3-3.1-5-1.7-8.2-1.5Z"/>
  <path d="M1082.5,936.9l5.1,2.6h-4.1s1,3.6,1,3.6l5.2-.6c-1.9-2.9.9-4.3,1-7.2-3.2-.2-5.9-1.6-8.2,1.5Z"/>
  <path d="M987.5,691.9c3.6.8,2.5-7.5,2.5-9.2h-3.5c-3,1.1-2.1,7.8.9,9.2Z"/>
  <path d="M299,675.6c4.2-3.4-.5-8.9-4.5-5-3.4,3.4.2,8.3,4.5,5Z"/>
  <path d="M902.1,675.6c4.2,3.4,7.8-1.6,4.5-5-3.9-4-8.7,1.6-4.5,5Z"/>
  <path d="M615.9,1055.5c.8-11.2-12.6-4.4-6.2-.5,1.7,1,4.3.4,6.2.5Z"/>
  <path d="M845.2,974.2h3.8c1.6-2.8,2-4.9,1.2-8.1-4.5-.4-7.2,4.4-5,8.1Z"/>
  <path d="M585.1,1055.5c1.9-.1,4.5.5,6.2-.5,6.4-3.9-7-10.7-6.2.5Z"/>
  <path d="M273.7,848c-3.8,1-8.1,3.8-7.2,8.2,6.3.6,7.2-2.6,7.2-8.2Z"/>
  <path d="M934.5,856.2c1-4.5-3.4-7.2-7.2-8.2,0,5.6.9,8.8,7.2,8.2Z"/>
  <path d="M350.8,966.2c-.8,3.1-.4,5.2,1.2,8h3.8c2.2-3.7-.5-8.5-5-8Z"/>
  <path d="M476.2,945.6c-4.4-2.1-6.1,9.1-5.1,10.3,5-.6,5.5-6.4,5.1-10.3Z"/>
  <path d="M727.8,945.8l-2.9-.2c-.4,3.9.2,9.7,5.1,10.3l-2.2-10.1Z"/>
  <path d="M894.4,862.4h-6.1c0,0-.6,5.2-.6,5.2l3.1,1.6c3.8-.6,3.9-3.4,3.6-6.8Z"/>
  <path d="M306.6,862.4c-.3,3.4-.2,6.2,3.6,6.8l3.1-1.6-.6-5.1h-6.1Z"/>
  <path d="M490.6,953.8c4.2-2.5,6.7-7.5,6.2-12.3-2.2-2.7-7,10.7-6.2,12.3Z"/>
  <path d="M710.5,953.8c.9-1.6-3.9-15-6.2-12.3-.5,4.8,1.9,9.8,6.2,12.3Z"/>
  <path d="M800.9,656.6l1.6-2.6c.5-4.6-3.5-4-6.7-3-.9,3.4,1.4,6.5,5.1,5.7Z"/>
  <path d="M400.1,656.6c3.7.8,6-2.3,5.1-5.7-3.2-1-7.3-1.6-6.7,3l1.6,2.6Z"/>
  <path d="M878.5,916.9c-3.8.7-4.3,5.3-5.6,8.2,4.3,3.2,9.7-7.3,5.6-8.2Z"/>
  <path d="M322.5,916.9c-4.1.9,1.3,11.4,5.6,8.2-1.4-2.9-1.9-7.5-5.6-8.2Z"/>
  <path d="M158.2,989.9c-1.7.5-2.1,2.2-1.5,3.8,9,6.7,9.6-6.4,1.5-3.8Z"/>
  <path d="M1038.9,995.9l5.5-2.2c3.1-5.5-12-5.9-5.5,2.2Z"/>
  <path d="M515.2,1107.9c-1.4,2.9,2.2,9.2,5.1,7.2,2.8-2-.2-9.1-5.1-7.2Z"/>
  <path d="M685.8,1107.9c-9.9-1.3-5.6,11.8-.9,5.7,1.3-1.7,1-3.8.9-5.7Z"/>
  <path d="M473.1,997.5c0-2.5-6.3-6.9-9.2-5.7-.5.5.7,3.2,1.3,3.8.6.6,7.8,4.5,7.9,1.8Z"/>
  <path d="M730.7,998.2c2.9-1,6.8-2.5,6.5-6.3-2-.2-3.8.1-5.5,1.1-2.3,1.3-5.7,6.9-1,5.2Z"/>
  <path d="M497.2,1004.2c2.8,1.4,2.8-8.2,2.5-9.2-5.3-1.7-5.3,7.9-2.5,9.2Z"/>
  <path d="M685.8,1020.6l-2.2-5c-10.1,0-5.8,8.2,2.2,5Z"/>
  <path d="M517.8,1015.4l-2.6,5.2c7.3,3.1,12.5-4.3,2.6-5.2Z"/>
  <path d="M701.2,995.4l1,8.7c3.4,2.6,5.5-12.1-1-8.7Z"/>
  <path d="M1035.3,806.4l7.7,6.7c1.1-1-.2-4.9-.8-5.8-1.2-1.6-5.5-3.6-6.8-.8Z"/>
  <path d="M164.8,807.5c2.4-3.7-4.1-2.6-5.8-.2-.9,1.3-1.3,4.2-1.3,5.8,2.4-1.1,5.8-3.5,7.2-5.7Z"/>
  <path d="M511.8,1121.4l-2.8,3.5c0,6.1,13.9-1.1,2.8-3.5Z"/>
  <path d="M687.6,1121.4c-8.6,5.9,9.9,9.3,2.4.4l-2.4-.4Z"/>
  <path d="M539.4,822.4c-1.5,0-4.2,8.3-3.6,10.2,1.6,1.9,8-8.2,3.6-10.2Z"/>
  <path d="M665.3,832.6c.6-1.9-2-10.2-3.6-10.2-4.4,2,2,12.1,3.6,10.2Z"/>
  <path d="M487.8,731.8c4-1.3,2.1-7.1-1.8-6-3.1.9-3.9,7.9,1.8,6Z"/>
  <path d="M716.1,731.9c3.1-1,.6-6.9-2.8-6-4.5,1.2-1.7,7.4,2.8,6Z"/>
  <path d="M242.9,1072c-.5,4,2.5,5.6,6.1,5.1l-1-5.7-5.2.6Z"/>
  <path d="M953,1071.4l-1,5.7c3.6.5,6.6-1.1,6.1-5.1l-5.2-.6Z"/>
  <path d="M146.3,745.3l3.1,8.2c3.4.3,3.5-3.6,2.9-6l-6-2.2Z"/>
  <path d="M1050.2,753.5c1.8.9,1.6-1.2,2-2,.6-1.1,3.2-5.6,2.6-6.2l-6,2.2c-.6,1.7-.4,5.1,1.4,6Z"/>
  <path d="M160.7,815.2c.4,2.6.8,6.3,3.3,7.5,2.8,1.7,5.9-.1,5.9-3.4-6,2.1-5.5-.7-9.2-4.1Z"/>
  <path d="M1037,822.6c2.6-1.2,2.9-4.8,3.3-7.5-3.7,3.4-3.2,6.2-9.2,4.1l2.1,3.6,3.8-.3Z"/>
  <path d="M770,638.4c.7-2,2.9-3.9.9-5.8-3.6-3.5-6,.9-4.7,4.7l3.8,1Z"/>
  <path d="M603.6,822.4l-1.9,2.4-2.1.6-2.1-3.1c-.9,9.4,7,9.3,6.1,0Z"/>
  <path d="M487.4,1013.9c-1.4-1.3-.1-3.8-2-3.6l-.6,5.2c3.9.2,3.1,4.2,7.7,3l-.6-3.2c-1.3-.5-3.6-.6-4.6-1.4Z"/>
  <path d="M496.2,1014.4c-1.2,1.3-2.4,2.7-3.6,4.1-1.5,1.7-3.9,3.9-4.1,6.2,1.3,1.3,8.1-6.6,8.8-8.1.7-1.6,1-2.5-1.1-2.1Z"/>
  <path d="M434.9,637.3c1.8-9.8-9.1-5.9-3.8,1l3.8-1Z"/>
  <path d="M703.7,1016.6c.7,1.6,7.5,9.4,8.8,8.1-.2-2.3-2.6-4.4-4.1-6.2-1.2-1.4-2.4-2.8-3.6-4.1-2.1-.4-1.8.6-1.1,2.1Z"/>
  <path d="M713.6,1013.9c-.9.8-3.3.9-4.6,1.4l-.6,3.2c4.6,1.2,3.8-2.8,7.7-3l-.6-5.2c-1.9-.2-.6,2.3-2,3.6Z"/>
  <path d="M212,782.3c-1.4,6,8.6,9.7,5.6,3.1-.8-1.7-3.6-3.6-5.6-3.1Z"/>
  <path d="M989,782.3c-2.1-.5-4.9,1.4-5.6,3.1-3,6.6,7,3,5.6-3.1Z"/>
  <path d="M446.3,884c-2.3-.8-2.9,3-3.3,4.4-.5,1.8-1.7,2.1.7,3.8,4.5-1,3.8-4.8,2.5-8.2Z"/>
  <path d="M781.4,567.1c2.7-1.9.3-5.7-3.5-4.6-4,1.2-.5,7.4,3.5,4.6Z"/>
  <path d="M423.8,567.1c2.7-1.9.3-5.7-3.5-4.6-4,1.2-.5,7.4,3.5,4.6Z"/>
  <path d="M757.2,892.2c3.4-2.3-1.1-5.2-.5-8.2-2.4-2.5-5.3,8.1.5,8.2Z"/>
  <path d="M880,1079.1l-1.1,3-5.7,1-.4,4.2c4.1-.5,8-3.9,7.2-8.2Z"/>
  <path d="M322.1,1082.1v-3c-1.8-.3-1.2,2.6-.9,3.4.9,2.2,4.4,4.8,7,4.8l-1-4.7-5.1-.5Z"/>
  <path d="M67.3,795.5c1.3.8,4.9.3,6-1.4-4-7.3-9.9-1-6,1.4Z"/>
  <path d="M918.1,889.1c2.5,3.7,13.3,5.8,7.6-.9l-7.6.9Z"/>
  <path d="M273.7,891.7c.6,2.6,8.6-.6,9.2-2.5-3,.6-10.5-3-9.2,2.5Z"/>
  <path d="M27.2,641.5c-.2-.3,1.4-2.8.9-4-9.1.3-4.4,7.4,2.1,6.1,0-1.6-2.7-1.7-3-2.2Z"/>
  <path d="M1127.7,794.1c1,1.7,4.7,2.2,6,1.4,3.9-2.4-2-8.6-6-1.4Z"/>
  <path d="M721.3,844.9c3.1-2.5,1.4-7-1-9.2-3.2,1.3-.3,9.2,1,9.2Z"/>
  <path d="M479.8,844.9c1.3,0,4.3-7.9,1-9.2-2.5,2.2-4.1,6.7-1,9.2Z"/>
  <path d="M1178.1,638.5l-5.1-1c-.4,1.2,1.1,3.7.9,4-.3.4-3,.6-3,2.2,4.2.7,6.9-.6,7.2-5.1Z"/>
</svg>