<?xml version="1.0" encoding="UTF-8"?>
<svg id="Layer_1" xmlns="http://www.w3.org/2000/svg" version="1.1" viewBox="0 0 1200 1200">
  <!-- Generator: Adobe Illustrator 29.0.0, SVG Export Plug-In . SVG Version: 2.1.0 Build 186)  -->
  <path d="M1045.3,1002l-4.6,1.3c-.8.8-1.5,1.7-2.3,2.5,3.1,1,6.1,2,8.7,3,0-.8-.2-1.6-.3-2.3-.3-1.5-.9-3-1.6-4.4Z"/>
  <path d="M594.6,1196.9l23.8,3.1-1.6-3.3c-5.6.2-11.2.2-16.8.2s-3.6,0-5.4,0Z"/>
  <path d="M227.1,657.5l5.2-5.7c-6-2.5-11-5.5-15.1-9,3,4.6,6.3,9.5,9.9,14.7Z"/>
  <path d="M256.9,913.6c-4.9,0-10.5.4-16.6,1.3l2.7,7.8-1.6,155c6.8,5.1,13.7,10,20.7,14.8l2.2-125.4c-10.1-18.2-8.9-35.3-7.4-53.5Z"/>
  <path d="M785.5,672.7c-6.3,4-12.5,9.7,1.9,19.2,1.6-4.7,2.5-9.5.8-14.9-.5-1.7-1.5-3-2.7-4.2Z"/>
  <path d="M201.7,557c-5.7-4.3-12.6-9-18.8-10.4,0,12.4-.3,24.9-.5,37.3,6.3,11.8,13.2,23.4,20.1,34.9-5-18.2-2.4-40.3-.8-61.7Z"/>
  <path d="M270.4,601.5c-17.9-5.5-14-27.1-12.1-47.4l-18.5-22.8-1.1,142.9c5.7,8.2,11.5,16.6,17,24.7-.6-14.5-.7-28.6,1.1-41.2,1.8-12.6,13.6-7.8,13.5-12.1-.5-14.1-27.5-25.3.1-44.1Z"/>
  <path d="M204.6,924.2c-13,4.7-24.4,10.4-30.8,16.3l12,4.1v12.5c-.1,0-17.4-4.5-17.4-4.5.8,7.3,6.8,15.3,9.8,23.3h7.5c0,0-.5,53.9-.5,53.9,6.8,6.5,13.7,12.9,20.8,19.1,1.2-41.7,1.8-83.5-1.4-124.7Z"/>
  <path d="M440.6,650.1h5.7s-5.7-6.9-5.7-6.9c0,2.4,0,4.7,0,6.9Z"/>
  <path d="M924.6,836.3c-2.8-4.4-5.3-8.7-7.1-12.9,2.6-5.5,4.6-11.2,6.3-17-.7-21.5-1.7-42.8-3.1-63.9-3-46-4.2-92.7-4.4-139.7l-2.3,2.7c-3.4,2.7-6.8,5.4-10.1,8.2l1.1,200.9-9.4-15.9-15.9,15.7c41.5,22.1,23,76.1,5,106.8l19.2,16.3h-25.2c-1.1,9.9,8.8,3.4,14,14.3,10.8,22.2-21.4,16.9-25.9,9.7-5.7-9.1.4-56.2,18.4-58.6l-6.3-15.9-12.6,9.3,1.1-129.2,12.2,6.1,6.8-18.5-19.3-3.6c1.6-18-6.9-32.8,13.4-37.4l-13-7.3.5-60.1c-6.3,6.1-12.6,12.4-19,18.7,0,1.3,0,2.6-.2,3.9-1.8,39-.2,82.8-.2,126.2-.1,62.1-3.4,124.4-1.8,186.2l-25.1-3.4c9.5,9.7,20.8,19.1,23.8,33.4,3.9,18.9,6.8,77.7,7.7,129.6,7-3.3,13.9-6.7,20.8-10.2.2-2.6.3-5.2.4-7.8.3-15.3-18-16.8,9.5-40.5l-19-.3.5-50.3,36.8,7.5c3.5,23.9-3.9,47.8-2.7,71.5,0,1.9.2,3.8.4,5.7,7.8-4.5,15.5-9.2,23.1-14.1,1.5-89.5,3.5-179,1.5-266Z"/>
  <path d="M320.9,1011.5c-.7-22.5-14.6-47.8-9.3-82.1,2.3-14.8,14.8-25.9,13.6-37-.4-3.4-11.6-2.9-12.8-7.8-2.9-12.4-1.8-85.1.2-100.2,1.2-9.1,23.5-16.4,13.4-40.5l-12.6,6.3,1.1-135.1c-6.3-5.8-12.7-11.6-19.1-17.4l-.6,66.2-18.7,16.5,19-2.8c-1.1,43.2-2.4,86.5-2.9,129.7,1.6,5.9,3.7,11.4,6.8,16.3-1.8,4.1-4.3,8.3-7,12.6,0,51.2,1.6,102.4,6.8,153.4-21-2.9-25.5-1.3-31.7,18.6l31.5-6-12.8,28.2,12.6-3c-1,29-1.6,58.1-1.9,87.2,6.7,4,13.5,7.8,20.4,11.5,2.5-39.3,5-78.4,4-114.4Z"/>
  <path d="M996.7,646.2l-2.3,2,.9.2c.5-.7.9-1.5,1.4-2.2Z"/>
  <path d="M988.6,594.6l-13.1-12.3.5-50.8-20.3,24.2c.4,2.1,1,4.2,1.9,6.2l-13.1,7.1c-1,5.8,9.1,1.3,11,4.4,7.7,12.3-2.3,82.3-2,102.9.2,11.9.6,23.9,1.1,35.9,7.1-11,15.4-24,24.1-37.7-2.4-27.9-11.2-72.8,9.7-79.9Z"/>
  <path d="M1031.5,547.1c-5.9,1.8-11.9,6.3-17.2,10.4l-.4,60.7c9.4-15.5,17.7-29.9,23.8-41.3-5.7-6.9-6.7-17.8-6.2-29.8Z"/>
  <path d="M1035.9,1004.7c0,0,0,.1,0,.2.9.3,1.7.6,2.5.8.8-.8,1.5-1.7,2.3-2.5l-4.9,1.4Z"/>
  <path d="M820.3,1059.5c-.4-12-11.3-22-11.7-37.4-1.2-49.3,2.4-99,1.4-148.3l18.9,3.2-19-25.4,13.1-25-12.6,3.1.9-124.6c-5.6,4.3-11.8,7.5-18.8,8.9l-1.8,203.8-12.6,3c.6,5.7,11.1,1,12.7,7.4,2.7,10.9,5.1,75.5,5.8,93.4,1.7,47.4-2.7,95.4-1.4,142.9,6.5-2.2,12.9-4.6,19.2-7-7.8-27.4,6.7-75.7,6-98Z"/>
  <path d="M760.9,1040.5c-.1-33.5-21.9-76,4.4-100.9l-13-12.1,4-329.7c-5.7-4-12.6-6.3-20.6-6.7v99.3c-12.6-.2-2.4-19-7.6-30.1-9.3-19.6-23.6-4.8-28.1-39.6-6.2,13.9-11.7,30.8-17,45.4.8.5,1.5,1,1.7,1.8,2,5.9-.3,111.3-1.1,125.5-.8,14.5-.7,35.7-8.8,47.9-5.5-25-24.4,9.5-28.4-28.4-1.4-13,1.7-27.9.7-41.3,29.5,17.6.5-30.5-.4-40.9-.9-12,5.3-23.6,4.8-32.6-.4-8.2-.7-16.4-.9-24.6-7.1-14.7-14.5-31.9-17.8-34-1.2-.8-2.3-1.2-3.4-1.4l-.5,73.4c-.9,14.6-13.2,16.2-25.8,15.8,8.4,15.7,8.5,28.4-.3,44l25.2-6c-3.5,22.8,5.8,62.7-3.7,82.1-6.1,12.5-24.9,6.8-22.3,21.7l25.2-2.9,3.8,315.2c-41.5-2.7-42.1-44.9-37-78.9,1.6-10.5,12.5-17.9,12.5-19-.3-4.9-15.1-6.6-17.5-12.6-2-4.9-2.4-99.1-.5-106.3l12.9-7.1-13.3-12.5c10.6-68-5.7-148.4,1.7-214.8,1.5-13.7,12.3-8,13.3-9.3,1-1.2-11.1-14.8-12.6-27.9-2-16.9-1.8-35.6-.7-54.7-.5-.1-1.1-.2-1.6-.1-4.8,0-10.2,10.3-15.9,22.3l-.7,66.7-21.6-31.2c-.5.3-1,.5-1.5.6-2.2,0-5.9-7.2-10.2-17.6l-4.3-6.2,1.1-1.8c-6.2-16.1-13.2-36.4-18.8-50.2l-.2,21.3-13.3,12.1,12.6,3.2-.5,72.5-12.6,3c3.1-22-18.6-17.1-12.7,2.9.6,2.1,23.9,15.7,24.8,20.7,2.9,14.8-1.7,33,0,48.5l-25.4,3.5c6.6,20.4,3.4,24.3,25.4,28.8,7.1,23-12,52.4-13.1,69.3-.2,2.7,10.4,1.7,11.8,7.2,3.9,14.3,6.3,93.9,5.9,112.2-.4,16.6-22.6.3-34.8,9.4l-5.6-443.5c-14.4,1.1-28.6,10.4-34.2,25-1,2.5-1.7,5.2-2.2,7.9,5.6.6,11.5,1.2,17,.6l-1.8,227-37.9-.3.5-50.5,12.6-2.9c.6-6.2-9.2-1-11.3-6.2-5.1-12.4-1.7-45.5.7-77.8-3.9-.7-7.2-1.9-10.1-3.6,2.1,83.2-8.3,185.3-18,257.9l12,18.5-18.9-3.2c28.6,17.1,14.8,51.1,18.2,82l-9.3-19-19,18.8c-22-9.1-2.9-91.8-2.9-111,0-26.8-19-126.1,8.2-138.4,40.4,6.6,15.9-16.3-12.7-9.1l1.1-53.9,18.2-2.8c-26-16.2-26.7-50-7.4-71.5-3.5-3.5-7.1-7-10.6-10.5h-.2s0-.2,0-.2c-5.9-5.8-11.8-11.5-17.7-17.2-.4,16.1-1.1,30.1-1.6,32.1-1.8,6.4-11.1,1-12.5,7-3.4,14.5,11.2,6.4,12.9,13.6,1.7,7.3-1.1,93.2-3.9,97.2l-22.6,15,25.2,3.4c6.5,18.6-22.6,12.2-19.1,28.1,4.9,22.4,10.7,1.1,18.8-2.9,4.7,34.1-5.4,72.6-4.9,104.8.7,46,15.6,114.6,9.7,157.4-2,14.8-16.1,3.2-13.3,18.3l12.6-3c.3,8.8,1,16.3.7,22.4,4,1.8,8.1,3.6,12.2,5.3.7-26.1,1-52.1.2-78,9.4,16.7,29.6,12,30.6,13.5,6.9,9.1,7.3,42.8,6,78.7,6.2,2.1,12.4,4.2,18.7,6.1.2-5.3.5-10.6.8-15.9l18.8,9.5c-22-30-25.5-104.1-18-138.9,3.4-15.6,10.4-13.9,24.4-16.5l1.2-17.8-25.2,6c-3.4-40.8,12.4-84.6-5.2-123,.9-13.7,40.5-2.9,42.5,7.4l.9,52.9-18.9,2.9,16.8,12.4c2.7,76.7.2,153.9-1.8,230.9,6.9,1.7,13.9,3.2,20.9,4.7l1.1-137.3,15.1,6.6c6.1-14.9,9.3-8.1,22.6-12.6-6.2,47.1,2.3,101.2,1.2,150,5.4.7,10.8,1.4,16.2,1.9.7-27.5,1.4-54.4,1.3-80.1-.3-52.6-13.3-163.8-5-206.1,1-5.1,12.2-4.9,12.9-7.3,3.3-11.8-21.2-24.2-9.5-47.4l35-6-.7,88.3c-13.5-10-25.1-22.9-31.6,2.8l31.6,3.4c-9.5,63.3,18.1,157.3,4.3,216.2-.5,2-22.1,14.7-18.4,32.3l6.8,6.1c10.1.6,20.2,1,30.4,1.1,0,0,0-.1,0-.2l1.5.2c1.8,0,3.6,0,5.4,0,5.6,0,11.2,0,16.8-.2l-4.6-9.3h18.9c0,0,0,8.7,0,8.7,5.4-.3,10.8-.6,16.2-1.1.4-12.8,1.2-25.1,2.5-36.2,2.1-18.4,12.1-28.1,12.9-37.2,1.7-19-17.1-21.9-18.1-26.6-9.5-43.5,15.8-39.4,19.2-55.4-34.6-13.8-12.9-63.2-18.2-94.6l22.2,3.2,3.2-15.6-25.3,2.9.8-94.6c17.8-1.1,25.6,16.4,25.1,31.8l12.5-6.3-1.1,173.7c-11.3,46.2,5.2,104.6-3.5,151.6,6.9-.9,13.8-2,20.7-3.1-1.9-41.1-4.5-87.2,13.7-117.1-23.2-7.4-6.9-57.5-8.1-80.9-1.8-35.8-11.5-72.8-9.9-108.8,1.1-24.1,15.3-6.9,13.3-27.8l-12.5,6.3.2-25.2,31.3,12.8,6.5-25.1-.4,71.6-12.9,7.1c16.8,4.3,17.4,49.9,18.4,69.6,3.4,69.4.6,139.7-1.7,209.9,5.9-1.4,11.8-2.9,17.6-4.4-.8-32.4,5.3-118.4,5.3-136ZM570.9,834.1l-37.8-.3.8-104c0-3.8,13.1-12,18.9-9.3-5.7,18.8,14,22.2,16.8,26.7,5.1,8.1-.9,71.6,1.3,87ZM697,828.7l.5-56.7,21.8,19.1,15.9-18.9c2.2,25.6-21.7,40.9-38.1,56.4ZM735,753.1l-37.5,12.6.5-63c13.8,5.8,7.8,25.3,31.3,19.1l6.4-25.1-.7,56.4Z"/>
  <path d="M1035.6,1004.8h.3c-1.5-3.7-3.7-7.7-6.9-12.4l.7-60.1c-7-3.8-14.7-7.7-18-9.1v5.7c2.2,19.4-6.5,28.4-23.9,33.7l-14.7-8.8.3-39.2c-4-.3-8-.4-12-.3-.3,8.3-.6,15.4-.9,19.9-2.6,43-2.5,93.3-2.2,143.6,6.8-5.1,13.5-10.3,20.1-15.7.2-21.3.4-42.7.6-64.1,15.7-13.8,12.4,13.8,25.1,15.9l6.6-37.8.9,56.8c8.7-8.3,17.2-16.8,25.4-25.5-.3-.8-.6-1.7-.9-2.6-.1,0-.2,0-.4-.1Z"/>
</svg>