<?xml version="1.0" encoding="UTF-8"?>
<svg id="Layer_1" xmlns="http://www.w3.org/2000/svg" version="1.1" viewBox="0 0 1200 1200">
  <!-- Generator: Adobe Illustrator 29.0.0, SVG Export Plug-In . SVG Version: 2.1.0 Build 186)  -->
  <path d="M1010.5,837.9c-8.7-3.7-20.1-13.1-30.4,1-1.1,0-2.3,0-3.4.1-8.2-18-29.6-1.4-43.4-1.4-21.3,0-45.2-7.9-68.2-2.9l.6,9.5c-2,0-4,.2-6,.3-1.5-4.6-5.9-8.2-14-9.3l-144.6-.3-.8,4.7c-2.6,0-5.2.3-7.9.5-3.8.4-8.4,1.6-13.3,3.3,2.6-5.9,12.6-.3,10.3-8.8-60.9-2.7-125.3,12.6-184.5.6l-3.8,8.6c-.7,0-1.4,0-2.2,0l-5.4-9c-40.9,10.4-91.9-1.8-131.1,3.8-5,.7-7.4,3-8.9,5.7-3.9.2-7.9.4-11.8.5l-.9-4.6c-26.3,7.1-57.1-3.9-82.7-4-63.7-.4-127.7,2.3-191.8,4.5v-.2c-5.6.2-11.1-.3-16.3-.6.2.5.4.9.6,1.4,3.8,8.6,7.8,17.1,11.9,25.5,1.1,2.3,2.3,4.5,3.4,6.7l24.9.2-11-6.9c8,0,16,0,24.1,0,5.6,4.2,12.2,6.9,19.9,7.1-1.5-2.5-2.4-4.8-3-7,3.5,0,7,0,10.5,0l-1.9,7c34.9-.8,71.7,4,105.1-4.7,4.6.2,9.3.3,13.9.5.1,0,.2,0,.3,0l-1.3,5.1c5.9-.5,12-.7,18.2-.8.7.3,1.4.5,2.1.8v-.8c6.4,0,12.9,0,19.5.2v.3c.7-.1,1.3-.2,1.9-.3,37.9,1.2,77.7,5.7,112.4,2.1,8.6-.9,14.5-2.7,19.8-8.7,1.5.4,3,.7,4.5,1.1.3,3,.5,6.8,3.6,7.6,7.3,2,79.8,1.4,83.3-.8.9-.6,1.1-2,1.1-3.6,1.9,0,3.8-.1,5.8-.2,7,11,14.3,6.6,22.5-.5,4.5,0,9.2-.2,13.9-.2l-3.9,6.2,186.7-4v-5.7s20.4.2,20.4.2l-3.9,5.7c28.8-7.2,68.8,9,92.6-7.4,1.3-.7,2.5-1.4,3.7-2.3,2.9,15.4,35,13.2,49.6,11.3,6.5-.8,7.7-4.8,8.5-7.9,3.9,0,7.9-.1,11.9-.2,11.3,5.5,27.6,15,42.4,8.1l-1-10.9c2.1-.2,4.2-.4,6.3-.6l.3.5,1-.7c4.8-.4,9.6-.9,14.3-1.3l-1.7,13.2,38.7-10.7,4.8,10.6c36.4-4.1,73.3-6.3,110.5-7.4,1.1-2.1,2.1-4.3,3.2-6.4,3.7-7.7,7.3-15.4,10.7-23.3,1.4-3.1,2.7-6.3,4-9.5-40.3,1.3-80.5,5.1-118.2,8.5-8.7.1-17.4.3-26.2.6Z"/>
  <path d="M570.8,921.6c0-.1,0-.2.1-.3,0,0-.1,0-.2,0v.2Z"/>
  <path d="M1014.2,781.6c-7.6,1.4-11.5,4.4-15.8,10.5-.1,0-.2,0-.3,0l-10.7-11c-85.7,2.9-172.4,8.2-258.1,8.3-157.6,0-335.6,0-500.3-1.3-22.3-.2-59.1-2-79.4,8.4-3.7,0-7.3.2-10.9.4l-3.6-6c-20.6,9.1-35.6-3-54.2-3.6-16.5-.5-33.5-.1-50.8.5.9,2.6,1.7,5.2,2.6,7.7,3,8.7,6.2,17.3,9.5,25.8,1,2.5,2,4.9,3,7.4.4-.2.7-.4,1.1-.6,2.7-1.6-1.2-10.4,3.8-9.6,6.1,20.4,35,10.7,56.1,5,5.7,1.3,10.8,2,14.6,1.6l7.7-4c11.3,2,24.1,7.6,31.6,1.9,4.6-.3,9.3-.6,14-1,3.6,2,7.8,2.9,12.9,3.5,4.7.6,62.1,1.1,65.3.3,2.7-.6,3.3-5,4.1-8.1,1.9,0,3.9,0,5.9.1,6.9,5.3,14.5,7.2,23.7,8.2,16.1,1.7,129.2,1.9,134.9-1.7.6-.4,1.1-.9,1.6-1.5,6,.2,12,.3,17.9.5l4.8,4.3c27.2-5.2,74.2,6.5,98.2.4,4.4-1.1,3.1-8.1,4.3-10.4.6-.2,1.2-.4,1.7-.6,0,0,.2,0,.3.1,12.3,15.8,23.4,12,35.3,5,4.6.3,11,.5,18.8.7l1,6c29-6.4,70.9,5.7,96.3-5.2,19.3-.1,37.3-.4,50.8-1,.5.3,1.1.5,1.7.7,16.1-3.2,108.9,4.7,116.2.2.6-.4.8-1.1,1-2.1,3-.3,5.9-.5,9-.8,13.4,10.4,30.3.5,45.7,1.2,32.9,1.5,66.1,4.1,99.2,4.5l1.9-14.7c1.4.2,2.8.4,4.2.6l5.5,13.4,17.7,1.1,3.8-11.3c6.5,4.6,13.8,2.6,21.9.2v5.4s78,.7,78,.7c1.2-3,2.4-6.1,3.6-9.1.7-1.9,1.5-3.9,2.2-5.9.2-.4.3-.9.5-1.3,2-5.5,3.9-11.1,5.8-16.7.9-2.6,1.7-5.3,2.6-7.9-58.7-2.9-124.6-5.4-158,.6ZM977.4,815.3l-10.1-3.2c4.2-.3,8.3-.6,12.4-.8l-2.3,4ZM1047.7,802.1l.3-.3c.1.3.3.6.4.9-.2-.2-.5-.4-.7-.6ZM1052.2,810.1c0-.1,0-.3,0-.4,0,0,.1.2.2.3l-.2.2Z"/>
  <path d="M1010.1,1029.9c-2.8,0-5.7,0-8.6,0-3.7-4.2-11.2-2.6-18.7-.2-6,0-12.1-.1-18.2-.2-1-2.6-2.9-5.3-8.2-5.8-51.2-4.7-126.1,7.8-180.5,9.4-.7,0-1.4,0-2.1,0-14.9-2.9-32.2-2.1-49.5-.3-19.8-.4-39.6-.9-59,0l-2.2,7.4c-2.8.1-5.6.1-8.4,0-15.1-20-35.1-6.2-55.5-6.4-64-.7-127.8.5-191.8,1.3l-5.2,17-4.5-12.1,7.7-4.5h-9.4c0,0,0,0,0,0-.2,0-.5,0-.7.1l-36.9.2-1-4.6-130.7,4.2-.6,1.1h-15.6c0,0-3.6-3.5-3.6-3.5l-7.4,3.6h-10.8c1.2,1.2,2.4,2.4,3.6,3.5,5,4.7,10.2,9.3,15.4,13.8.9.8,1.8,1.5,2.6,2.3,4.1,3.5,8.2,6.9,12.4,10.3.4.3.8.6,1.1.9l87.2.7,1.1-2c3.7.2,7.4.4,11.1.6,6.2,4.1,15.8.7,26.8,1.7v-.3c13.9.6,27.7,1,41.3.9,9.1-.1,20,1.9,28-.3l57.2.5-1.6-2.2c6.2,1.4,13.9.3,21.6-1.3,13.3,5.2,31.8,6.2,36.8,3.1,1.7-1.1,3.4-4,4.4-7.5,20.4-1,41.4-2.8,59.3-2.9l-2.4,11.8,43.8.4v-8.6c3.2.4,6.3.8,9.4,1.3,7.6,6,11.6,4.2,16.1,1.9,13.6,1.4,27.3,1.9,40.6,0,10.9,1.2,22.1,2,32.8.5l-3.1-1.8h11.7c0-.1,1.1-5.3,1.1-5.3,16.6,7.3,47.7,13.4,59.8,4.3,4,0,8.1-.1,12.3-.2,17,11.1,40.6-.5,58.5.2,34,1.3,67.7,2.2,101.4,2.7,1.5-1.2,3-2.4,4.5-3.7,6.8-5.7,13.5-11.5,20-17.4,0,0,.1-.1.2-.2,5-4.6,9.9-9.2,14.8-14,.9-.9,1.9-1.8,2.8-2.7l-10,.3-1.1,2.4Z"/>
  <path d="M1094.2,928.1c-2.5,1.7,1.3,10.1-3.5,9.5-24.9-14.3-90.5-11.5-121.4-7.8-5.3.6-6.9,3.2-7.8,5.7-5-1.3-10.9-1.9-17.7-1-1.1-1.5-2-2.8-2.8-2.9-39.7-7.7-93.7,6.4-131.9,4.9-189.9-7.5-387.5,7-581-.3l-4.5,4.3h-16.8c0-.1-.7-3.6-.7-3.6-32,7.2-71.7-7.4-104-2.1,1.1,1.6,2.2,3.2,3.3,4.8,6.6,9.6,13.5,19,20.6,28.2,1.4,1.8,2.9,3.6,4.3,5.4l72.7.7,4.9-5.3c3.9,0,7.4,0,10.3.1,14.3,11.2,53.4,2,73,1.7,9.9-.2,21.1,5.1,32.4,4.5,5-.3,7.9-6.6,13-10.4,1.8,8,6.5,9.7,12.3,8.4l-.8,1.5,49.4.5,2-5.3c3-.2,5.8-.4,8.3-.6l.7,6h22c0,0,2.5-6.4,2.5-6.4.1,0,.3.1.4.1,2.4.5,5.6.8,9.5.9l1.4,5.6,82.4.7,6.3-10.6c15,.5,31.3,12.6,28.5-6l5.1-.3c-4.6,2.3-7.3,5.1-1.4,11.8,132.1.9,263.8,4.2,395.3-4.8,8.2-.6,17.6,4.3,27.1,2.8,4.1-.7,7.7-2.9,11.1-5.5,9-.4,18.6-1.3,28.4-2.3l4.8,8c13.3,2.2,5.3-5.1,4.3-8.9,4.6-.5,9.2-1,13.7-1.5.8,1.8-.6,5.2-4.4,10.5l27.5.2h0s0,0,0,0v-12.9c3.5-.3,7-.5,10.4-.7.8-1,1.5-2,2.2-3.1l9.5-2.2c-1.2-1.7-2.7-3.3-4.5-4.7,4.3-6.1,8.5-12.2,12.6-18.5-4.6,0-7.8.1-8.7.8Z"/>
  <path d="M684.5,1125.6v5.7c-6.6,0-13.3-.2-20-.4-50.7-10.7-104.3,4.8-156.1-.3l-3.6,4.1c-.3,0-.5.1-.7.2-2.3.6-2.9,2.4-3.2,4.5l-2.7,3.1-1.6-1.1-1.5-6.4h-7.9c0,0-11.8-8.1-11.8-8.1l-3.5,7.9h-3.2s-4.8-8.2-4.8-8.2c-46.8,1.1-93.8,5-140.8,5.8.6.3,1.3.7,1.9,1,13,6.7,26.3,13,39.9,18.8,3.2,1.4,6.5,2.7,9.7,4,5.4,2.2,10.9,4.3,16.5,6.4,4.2,1.6,8.4,3.1,12.6,4.5l99.7,1.2,9.8-10.6c.7.2,1.5.5,2.3.7,19.6,18.4,50.6,5.7,77.4,2.8,1.4-.1,2.8-.2,4.2-.4,1.6-.1,3.2-.2,4.8-.2,18.2,0,120.2,7.4,128.7,3.5,4,0,8.1,0,12.2,0h15.6c0,.1-.5-.9-.5-.9,3.8-.3,7.7-.6,11.6-1,1,.5,2.1.9,3.3,1.2,3.8.7,7.9-.9,12.1-2.8,8.5-.9,17.1-1.9,25.6-2.6l.2,1.2,5.4-1.2c-.7-.1-1.4-.2-2.1-.3,1.8-.1,3.7-.3,5.5-.4l-3.4.7c1,.2,2,.3,3,.5,1.3-.5,2.5-1,3.8-1.5.9-.4,1.8-.7,2.7-1.1,2.8-1.1,5.5-2.3,8.3-3.4,13.6-5.8,27-12,40.1-18.7,5.7-2.9,11.3-5.9,16.8-9-68.9,3.6-137.7,8.5-206.2.6Z"/>
  <path d="M735.2,1179.3c-16.1,0-24.8-8.7-32.2.7-4.4-.1-8.8-.3-13.2-.4-6.6-6.1-15.1-5.7-28.3-3.4l-.4,2.5c-6.4-.2-12.9-.3-19.3-.5-2.4-1.2-4.1-2.1-4.9-2.2-10.6-.7-22,0-33.2,1.8-20.9,0-41.7.4-62.4,1.4-4.4.2-10.2.4-16.5.8-25.3.7-50.8.8-76.5.6,4.4,1.1,8.7,2.2,13.1,3.2,4.9,1.2,9.9,2.3,14.9,3.3,3,.6,5.9,1.2,8.9,1.8,37.1,7.2,75.4,10.9,114.6,10.9s101-6.4,148.5-18.5c2.7-.7,5.5-1.4,8.2-2.1-7.1,0-14.3,0-21.5,0Z"/>
  <path d="M898.2,1084.1c-.7,0-1.4,0-2.1,0l-5.3-8.7c-31.7,4.7-74.9-3.6-100.3,14.1.3-3.6.1-9.9-4-10.8-9.1-2.2-30.5-.5-52,1.7-34.1-.6-87.8.7-124.2,3.2-25.5-.4-51.3-.3-78.5,1.1-12.6.7-50.9-4.9-72.4.9-6.9-.1-13.8-.3-20.6-.4l-.2-6.7c-13.2.6-23.2-3.6-28,6.2-1.8,0-3.6,0-5.3,0l-3.2-5.2c-24.5,6-66.6-2.1-93.4,5.6-8.9,0-17.7-.2-26.2-.5l-.6-1.6c-1.6.5-3.2,1-4.7,1.4-10.8-.5-21.7-.7-32.6-.8,1,.7,1.9,1.4,2.9,2.1,10.1,7.4,20.5,14.4,31.1,21.2,5.5,3.5,11,6.8,16.6,10.1l123.2.9-1.6-6.8c2.3,0,4.6,0,6.9,0l13.8,7.2,13.1-9.8c2,1.4,4.5,2.6,7.2,3.7l-1,6c42.9-.8,86.2,2.3,129.2,1.3,10.4-.3,18-6.1,25.7-8.8,8.5,0,16.9,0,25.4.2,23.4,3.3,55.3,10,72.3,1.6,12.5.2,25,.4,37.6.4l4.1,2.2,154.4,1.6c6.3-3.8,12.6-7.6,18.8-11.6,10.6-6.9,21.1-14,31.2-21.5.3-.2.5-.4.8-.6-16.7-5.5-49-21.9-58,1.2ZM787.7,1095.3v-.3c.2.2.3.4.4.6-.1-.1-.3-.2-.4-.3Z"/>
  <path d="M138.4,983.3c.2.3.5.6.7.8v-1c-.2,0-.5,0-.7.1Z"/>
  <path d="M147.5,994c0,0,.2.2.2.3l-.2-.4h0Z"/>
  <path d="M1012.2,879.3l-2.6,8.4c-2.3,0-4.6,0-6.8.1-1.2-.9-2.4-.5-3.7.1-2,0-3.9.2-5.7.3-.8-2.3-.9-7.5-3.1-7.3-3.7.3-9.8,5.8-16.5,5.5-18-.9-56.2-12.2-64.8,5-1.3,0-2.6-.2-3.8-.2-.2-2.5.4-5.9-1.2-6.8-5.9-3.5-91.4,1.9-111.2,1.9-65.9-.1-135.2,2.3-203.5,3.3-39.9.6-95.6-10-131.9-3.9-2.4.4-.9,3.9-.4,7.6h-18.4c-27.7-12.4-66.5-1.4-96.2-4.5l-1.2,3.8-45,.3c-2.2-.5-4.2-1.2-6.1-2.1v2.1c0,0-5.5,0-5.5,0l-.2-7.5c-19.1-2.6-39.1,4.6-56.9,4.9-44.8.8-107.8-9.8-149.1-4.6-2,.3-3.8.6-5.5,1,1.4,2.5,2.8,5,4.2,7.5,4.1,7.3,8.4,14.5,12.7,21.5,1.6,2.6,3.3,5.3,5,7.9,6.3-1.1,12.4-3.5,17.1-7.6h6.8c0,0,7,7.9,7,7.9,22.1-5.4,61.9,9.9,75-6.7h10.6c2.3,14.1,27.4,4.6,40.9,7.6l2.4-6.9,16.3.2,8.8,7c44.5-5.1,95.9,10.3,136.9-7.5,1.8-.1,3.6-.3,5.4-.4l-2.2,8.5,140.3,1.6c4-2.8,7.5-4.7,10.7-6l-2.1-7.3c1.6,0,3.1,0,4.7,0-.8,2.2-1.5,4.6-2.4,7.1,17.3-6.9,23.2,6,37.4,5.9,33.2-.3,78.3-14.1,115.5-4.6l4-6.9c1.7,0,3.5,0,5.2,0,13.2,14.2,35.1,9,52.4,4,10.9,4.8,22.8.5,32.8-4.4,9.1.5,18.3,1.1,27.7,1.6,4.2,2.9,10.3,4.4,19.3,1.1,75,4.1,159.2,7.5,239.6,6.4,3.3-5.1,6.5-10.2,9.6-15.4,4-6.7,7.9-13.5,11.7-20.4,1.6-3,3.2-5.9,4.8-8.9-39.2-2.1-87.1,3.9-118.8-.4ZM499.5,915.6l-6.8-1.9c1.1,0,2.3,0,3.4,0,1.7,0,3.3,0,5,0l-1.5,2ZM669.8,916.9l-1-1.1c2.9,0,5.8,0,8.8,0-.8,1.9-3.1,2.5-7.8,1ZM771.3,912.2v-7.6c0,0,2.3-6.6,2.3-6.6l4.2,7.8-6.5,6.4ZM784.2,902l2.4,3.9v.9c0,0-3-3.9-3-3.9l.6-.9ZM863,904.5l-1.4-3.7h15.9s0,1.2,0,1.2c-2.2,4-5.8,6.6-14.6,2.5ZM936,918.9l.9-4.4c3.6-.1,7.2-.3,10.8-.4l7.5,5.1-19.2-.2Z"/>
  <path d="M1020.7,983.8h-26.2c-17.8-11.5-62.3-9.5-72.4-2.1-.9.7-1.7,1.4-2.4,2.3h-23s-7.9-7.6-7.9-7.6l-65.3,2.2-2.9,5.6h-6.4s-3.2-5.4-3.2-5.4c-9.9,4.3-30.8,1-37.7,2.7-1.1.3-1.6,1.4-2.1,2.8h-17.6c-1.3-1.9-3.5-3.4-7.5-3.7-12.8-.9-27,1.9-41.3,3.8h-35.6c-1.6-.3-3.3-.7-4.9-1.2l-.5,1.3h-22.9c-2.9-1.3-6.8-1.5-11.9,0h-38.7c-3.7-1.9-10.3-3.3-25.3-3.3-17.6,0-28.8-2.4-38.6,3.5h-11.5s.3-2.1.3-2.1c-2.5,1-5.4,1.7-8.5,2.1h-33.9c-7.9-.3-15.7-.5-22.7.1l-257.5.5c-5.8-1.4-11.6-3.3-17.6-3.6l-1.4,3.6h-33.3c2,2.4,4,4.7,6,7.1,5.7-5.1,15-1.7,24.9-1l-4,10.1-8.5-8.1-2.9,9.7c3.2,3.5,6.4,7,9.7,10.4.5.5,1,1.1,1.6,1.6,3.3,3.4,6.6,6.8,10,10.2,55.8.6,111.1-.2,165.5-3.7.2,0,.4,0,.6,0,3.6.7,7,.6,10-.6,7.1-.4,14.3-.8,21.4-1.1,17.1.9,57.1-.7,93.8-2.3,33.5-.2,67.3,0,101.3.5,3.1.3,6.1.4,9.2.1,10.7.2,21.4.3,32,.5,7.2,2.7,15.7,2.3,24.4.4,73.9,1.3,148,2.5,220.4.2,17.1-.5,34.5-3.7,51.9-2.3l.9-4.4c1.4,0,2.9,0,4.3,0l.8,4.7c18.3-4.8,41.2,2.6,57.4,1.2,4.2-.3,7.6-2.7,10.1-6.1,10.8-.5,21.6-1.1,32.3-1.1l-.2-5.5c6.8,3.1,14,5.7,21.4,7.8,1.1-1.1,2.1-2.2,3.2-3.3,2.4-2.6,4.9-5.2,7.2-7.9,5.2-5.8,10.3-11.6,15.3-17.6.3-.4.7-.8,1-1.2,1.3-1.6,2.7-3.2,4-4.8-16.1-2.3-37-5.2-44.6,4.9ZM1011.3,985.1l-9.5,10.2c-.1-4.6-2.7-8.2-6.9-11.1,5.5.3,10.9.6,16.4.9ZM919,984.9c-3.9,5.5-4.6,13-7.8,13.2l-14.4-13.9c8.7.2,16.6.5,22.2.7ZM818.8,987.6l-1.3,2.4-2.7-4.5c1.4.6,2.8,1.3,3.9,2.1ZM769.6,988.7c-1.6,2.7-4.7,4.7-12.4,3.2-1.4-.3-1.3-3.7-3-6.7,5.2.6,10.5,2,15.4,3.5ZM662.2,988.8l-7.2,18.7h-3.4c-.9-4.8-1.8-13.1-5.6-18.6,5.4,0,10.8,0,16.2,0ZM622.5,989c-2.1,4.1-6.8,11.8-18.9,6.3-4.6-2.1-6.6-4.3-8.3-6.2,9,0,18.1,0,27.2,0ZM522.4,987.7c-3.1,2.7-6.2,6.4-9.4,11.5l1.6-11.9c2.6.1,5.2.3,7.8.4ZM433.2,986.4c2.4-.4,6.3-.6,11-.8-10,1.9-17.3,6.3-19.1,16.2l-5.1-4.9c0-5.2,2.5-8.9,13.2-10.6ZM403.3,988.5c2.2,1.3,2.3,11.3,6,18.3l-.3,1-6-16.2-10.5,16.7,2.5-16.7c-.9-1.2-3.1-2.2-6.4-3,4.9-.1,9.8-.2,14.6-.2ZM312.5,1011.8l5.7-6.6c1.7,2.3,3.7,4.4,5.9,6.4h-11.6ZM361.7,1011.1c.2-.6.4-1.2.6-1.9,1.7-.3,2.4.5,2.7,1.9h-3.3ZM599.8,1008.1c2.1-1.8,4.3-3.9,6.6-6.3l1.3,6.2h-8ZM670.9,1007.2c4-1.4,7.4-2.4,9.7-2.5,1,0,1.4.9,1.8,2.3h-11.5ZM717.8,1006.7c.4-1,.8-1.7,1.4-1.9,4.6-1.5,11.1-.3,18,1.6l-19.3.2ZM1013,1002.9l-.6-17.8c2.4.1,4.8.2,7.2.3-1,1.8-1.6,4-1.8,6.6-.2,3.6,0,7.5,1.3,10.8h-6.2Z"/>
</svg>